<?xml version="1.0" encoding="UTF-8"?>
<svg width="117px" height="116px" viewBox="0 0 117 116" version="1.1" xmlns="http://www.w3.org/2000/svg" xmlns:xlink="http://www.w3.org/1999/xlink">
    <title>8C14F1D4-31F8-4533-AF8F-371476615B93</title>
    <g id="Desktop" stroke="none" stroke-width="1" fill="none" fill-rule="evenodd">
        <g id="0.0-Exportable-Items-Copy" transform="translate(-1048.000000, -8548.000000)" fill-rule="nonzero">
            <g id="icon-employers-conscience-small" transform="translate(1048.307859, 8548.000000)">
                <circle id="Oval" fill="#FFFEF7" cx="58.003044" cy="58.4432602" r="54.93"></circle>
                <path d="M99.783044,98.3632602 C100.9817,97.2545075 102.113679,96.0757797 103.173044,94.8332602 C102.163044,95.8332602 101.093044,96.8732602 99.783044,98.3632602 Z" id="Path" fill="#FFFEF8"></path>
                <polygon id="Path" fill="#FFFEF8" points="103.203044 94.8032602 103.203044 94.8032602 103.203044 94.8632602"></polygon>
                <path d="M93.543044,95.6932602 L92.543044,96.6032602 C92.893044,96.3032602 93.233044,95.9932602 93.543044,95.6932602 Z" id="Path" fill="#FFFEF8"></path>
                <path d="M96.163044,14.2632602 L95.803044,14.2632602 L94.803044,13.3732602 C94.553044,13.1432602 94.343044,12.9932602 94.193044,12.8632602 C94.0161187,12.7214086 93.8521412,12.5641241 93.703044,12.3932602 C93.1021092,11.7912114 92.4305667,11.2640506 91.703044,10.8232602 C91.1812797,10.5592358 90.6828294,10.2514678 90.213044,9.90326022 C89.603044,9.51326022 88.873044,9.10326022 88.213044,8.66326022 C87.1086885,7.90969054 85.9486845,7.24110037 84.743044,6.66326022 C84.1895005,6.40069725 83.6548786,6.0999724 83.143044,5.76326022 C82.1143799,5.39932637 81.1120073,4.96496491 80.143044,4.46326022 C79.713044,4.32326022 80.433044,4.65326022 80.713044,4.84326022 C79.8378249,4.45485215 78.9394473,4.12088276 78.023044,3.84326022 C77.023044,3.41326022 76.763044,3.22326022 77.913044,3.60326022 C77.033044,3.31326022 75.743044,2.77326022 74.093044,2.30326022 L71.363044,1.61326022 C70.3235907,1.32375135 69.268566,1.09338201 68.203044,0.923260219 C65.774392,0.482333842 63.3188646,0.205043001 60.853044,0.0932602189 C58.1573635,-0.0560956245 55.4547346,-0.0260292949 52.763044,0.183260219 C51.403044,0.313260219 50.043044,0.543260219 48.693044,0.723260219 C48.023044,0.823260219 47.353044,0.893260219 46.693044,1.02326022 L44.703044,1.54326022 C43.433044,1.86326022 42.153044,2.12326022 40.953044,2.54326022 L37.523044,3.73326022 C34.2522446,4.92868918 31.1098022,6.44965807 28.143044,8.27326022 C29.143044,7.86326022 31.203044,6.48326022 32.143044,6.35326022 C31.673044,6.60326022 31.263044,6.80326022 30.893044,6.98326022 L30.003044,7.44326022 C29.5346878,7.69633479 29.0836915,7.98029545 28.653044,8.29326022 C27.755902,8.6260228 26.8975393,9.05520414 26.093044,9.57326022 C25.1627868,10.2563731 24.1909073,10.8809142 23.183044,11.4432602 L22.803044,11.9532602 L21.873044,12.5032602 C21.1282403,13.0709595 20.4232525,13.6890768 19.763044,14.3532602 L18.583044,15.4432602 L17.703044,16.2732602 L16.943044,16.9332602 C16.463044,17.3532602 15.733044,18.1932602 14.323044,19.7232602 C13.0377289,21.1241521 11.8798156,22.6368019 10.863044,24.2432602 C10.013044,25.4932602 9.293044,26.4932602 8.613044,27.6432602 C8.813044,27.3032602 9.453044,26.4532602 8.853044,27.5532602 C8.603044,27.6532602 7.273044,30.4532602 6.853044,30.9032602 C6.263044,31.9632602 4.653044,35.5632602 5.393044,34.4332602 C5.203044,34.7132602 4.723044,35.6532602 4.393044,36.2732602 C4.063044,36.8932602 3.933044,37.2732602 4.283044,36.2732602 C3.823044,37.3732602 3.453044,38.4632602 3.203044,39.2732602 L3.763044,37.8532602 C3.143044,39.7632602 2.523044,41.1832602 2.173044,42.5132602 C1.823044,43.8432602 1.553044,45.0132602 1.343044,46.3032602 L1.773044,44.8832602 C1.523044,46.0532602 1.193044,47.1032602 1.073044,48.0132602 C0.971310432,48.7164051 0.807333001,49.4091261 0.583043995,50.0832602 L0.873043995,47.6332602 C0.603043995,49.6332602 0.383043995,51.1832602 0.173043995,52.6332602 C-0.0369560048,54.0832602 0.00304399524,55.6332602 0.00304399524,57.2932602 L0.0630439952,56.1132602 C0.0630439952,56.6432602 0.0630439952,57.4432602 0.0630439952,58.4532602 C0.0630439952,59.4632602 0.213043995,60.6832602 0.303043995,62.0332602 C0.363043995,62.7132602 0.383043995,63.4232602 0.463043995,64.1632602 C0.543043995,64.9032602 0.703043995,65.6432602 0.823043995,66.4132602 C1.03354201,68.0045746 1.34415812,69.5810349 1.753044,71.1332602 C1.963044,71.9132602 2.163044,72.6932602 2.373044,73.4732602 C2.53367258,74.2394925 2.74411949,74.994429 3.003044,75.7332602 C3.543044,77.1832602 4.063044,78.5632602 4.523044,79.8132602 C5.643044,82.2232602 6.613044,84.0732602 7.073044,84.9132602 L6.473044,83.2332602 C6.94946108,84.2232058 7.49410676,85.1788418 8.103044,86.0932602 C7.903044,85.7632602 6.803044,84.9932602 6.743044,84.6432602 C7.093044,85.4632602 7.853044,86.6432602 8.743044,88.0632602 C9.193044,88.7932602 9.623044,89.6332602 10.213044,90.4532602 L12.133044,93.0532602 L13.183044,94.4532602 C13.523044,94.9432602 13.973044,95.3632602 14.373044,95.8332602 L17.003044,98.6732602 C17.903044,99.6732602 18.953044,100.47326 19.943044,101.39326 L21.453044,102.75326 C21.9482576,103.192719 22.4655985,103.606592 23.003044,103.99326 L26.323044,106.44326 L29.753044,108.44326 C30.323044,108.77326 30.863044,109.11326 31.423044,109.44326 L33.123044,110.23326 L36.333044,111.71326 C38.443044,112.46326 40.333044,113.15326 41.903044,113.71326 L45.543044,114.63326 C48.103044,115.35326 45.953044,115.01326 45.923044,115.03326 C46.4483388,115.167807 46.9832754,115.261421 47.523044,115.31326 L48.153044,115.31326 C48.7720286,115.312222 49.3902876,115.355667 50.003044,115.44326 C50.743044,115.57326 49.833044,115.55326 49.413044,115.51326 C50.2031982,115.659656 51.0012208,115.759827 51.803044,115.81326 C50.323044,115.54326 50.983044,115.42326 50.373044,115.19326 C51.5226815,115.403226 52.6854484,115.533536 53.853044,115.58326 L53.683044,115.71326 C54.083044,115.71326 54.583044,115.71326 55.413044,115.62326 C55.833044,115.62326 56.323044,115.62326 56.933044,115.62326 L57.933044,115.62326 L59.123044,115.62326 C65.1164047,115.549165 71.0576234,114.498728 76.713044,112.51326 C75.9498863,112.899557 75.1614108,113.233657 74.353044,113.51326 C75.093044,113.26326 76.223044,112.84326 76.923044,112.66326 C75.543044,112.99326 79.213044,111.76326 78.143044,112.07326 C78.633044,111.85326 79.143044,111.66326 79.673044,111.42326 L81.223044,110.64326 L84.463044,109.11326 C85.463044,108.53326 86.463044,107.92326 87.463044,107.35326 C88.3700561,106.853786 89.2331401,106.278397 90.043044,105.63326 C90.093044,105.41326 91.043044,103.18326 91.733044,101.08326 L91.993044,100.30326 L92.203044,99.5032602 C92.323044,98.9832602 92.433044,98.5032602 92.523044,98.0932602 C92.6622948,97.6229386 92.7264175,97.1335809 92.713044,96.6432602 C93.503044,95.9432602 94.293044,95.2432602 94.553044,95.0432602 C93.6584353,95.7375606 92.8068644,96.4856072 92.003044,97.2832602 L92.003044,97.5532602 C90.133044,99.2932602 91.543044,97.9432602 89.563044,99.4332602 C89.463044,99.4332602 89.863044,99.0632602 90.493044,98.5632602 L92.613044,96.5632602 L90.673044,98.2532602 C90.1650884,98.6066796 89.6898516,99.0049415 89.253044,99.4432602 C87.843044,100.44326 89.253044,99.1832602 87.603044,100.33326 C86.319232,101.412926 84.9208706,102.34852 83.433044,103.12326 L83.433044,103.12326 C81.693044,104.12326 80.243044,104.73326 78.913044,105.45326 C78.2496332,105.832514 77.5614056,106.166605 76.853044,106.45326 C76.113044,106.72326 75.323044,106.99326 74.433044,107.26326 L74.793044,107.08326 C74.153044,107.23326 73.263044,107.62326 72.193044,107.91326 C71.123044,108.20326 69.923044,108.48326 68.773044,108.71326 C69.433044,108.58326 70.023044,108.55326 68.643044,108.91326 C68.0264702,109.051606 67.4019516,109.151796 66.773044,109.21326 L65.133044,109.44326 L63.613044,109.65326 L62.883044,109.73326 L62.133044,109.73326 L60.233044,109.97326 L58.143044,110.07326 C57.353044,110.07326 56.453044,109.99326 55.483044,109.96326 L54.003044,109.81326 C53.4599047,109.806603 52.9181718,109.756442 52.383044,109.66326 L48.843044,109.16326 C43.3444438,108.147627 38.0375333,106.281943 33.113044,103.63326 C31.853044,102.87326 30.553044,102.18326 29.333044,101.38326 L25.803044,98.8432602 C24.673044,97.9732602 23.693044,96.9832602 22.663044,96.1032602 C22.173044,95.6432602 21.663044,95.2332602 21.203044,94.7532602 L19.913044,93.3232602 C19.083044,92.3832602 18.213044,91.5532602 17.533044,90.6432602 L15.643044,88.0932602 L14.803044,86.9632602 L14.143044,85.8632602 L13.073044,84.0532602 L13.283044,84.3632602 C11.0133313,80.5337788 9.26775499,76.4170438 8.093044,72.1232602 C7.783044,70.8932602 7.473044,69.6232602 7.153044,68.3332602 C6.833044,67.0432602 6.763044,65.6832602 6.573044,64.3332602 C6.523044,63.9932602 6.453044,63.6532602 6.423044,63.3332602 L6.373044,62.3332602 C6.373044,61.6432602 6.303044,60.9532602 6.273044,60.2532602 C6.243044,59.5532602 6.163044,58.8632602 6.193044,58.1632602 L6.293044,56.0632602 L6.383044,53.9632602 C6.383044,53.2632602 6.563044,52.5832602 6.643044,51.8832602 C6.723044,51.1832602 6.833044,50.5032602 6.933044,49.8232602 C7.00376459,49.1486572 7.12409027,48.4801812 7.293044,47.8232602 L8.293044,43.8232602 C8.723044,42.5532602 9.153044,41.3032602 9.573044,40.0832602 C11.1644251,35.8208545 13.3094854,31.7862583 15.953044,28.0832602 C16.333044,27.6332602 16.733044,27.0832602 17.143044,26.6032602 L17.763044,25.7932602 C17.993044,25.5332602 18.233044,25.2832602 18.473044,25.0232602 L21.203044,22.0232602 C20.253044,23.0232602 20.493044,22.5732602 21.203044,21.7832602 C22.2329582,20.9393013 23.2082531,20.0308074 24.123044,19.0632602 C24.2582867,18.8838402 24.4125146,18.719554 24.583044,18.5732602 C25.3942827,17.7981741 26.2634715,17.0861079 27.183044,16.4432602 C28.3024901,15.53769 29.4892526,14.7186567 30.733044,13.9932602 L33.173044,12.5432602 C33.6136385,12.2677701 34.0750359,12.027041 34.553044,11.8232602 L36.003044,11.1032602 L37.553044,10.3832602 L38.353044,10.0132602 L39.193044,9.72326022 L42.673044,8.51326022 C43.873044,8.13326022 45.133044,7.89326022 46.383044,7.57326022 C47.013044,7.43326022 47.633044,7.24326022 48.273044,7.14326022 L50.203044,6.87326022 C52.7300625,6.50254289 55.2791406,6.30209115 57.833044,6.27326022 C59.073044,6.27326022 60.283044,6.40326022 61.463044,6.45326022 C62.043044,6.50326022 62.623044,6.45326022 63.183044,6.57326022 L64.833044,6.82326022 L67.833044,7.28326022 L70.463044,7.95326022 L72.643044,8.50326022 C73.283044,8.71326022 73.823044,8.93326022 74.273044,9.09326022 C75.273044,9.38326022 76.273044,9.71326022 77.393044,10.0932602 C78.513044,10.4732602 79.483044,11.0332602 80.533044,11.5132602 L82.113044,12.2332602 L83.583044,13.0932602 C84.583044,13.6632602 85.493044,14.2032602 86.393044,14.6832602 L86.003044,14.5232602 C86.7302122,14.9413037 87.4254443,15.4125909 88.083044,15.9332602 C88.953044,16.6032602 90.083044,17.3432602 91.233044,18.3132602 L95.003044,21.6132602 C96.163044,22.9232602 97.403044,24.2732602 98.603044,25.6132602 C99.803044,26.9532602 100.803044,28.6132602 101.783044,30.0332602 C102.763044,31.4532602 103.553044,33.0332602 104.303044,34.3732602 C105.053044,35.7132602 105.533044,37.0432602 106.033044,38.1032602 C106.26279,38.5724648 106.459923,39.0569461 106.623044,39.5532602 C106.773044,39.9832602 106.913044,40.3532602 107.013044,40.6532602 L106.823044,40.0032602 C107.336346,41.2366904 107.767291,42.5028014 108.113044,43.7932602 C108.263044,44.6132602 108.353044,45.3332602 108.733044,47.0332602 C108.733044,46.7832602 109.103044,47.5632602 109.383044,48.6032602 C109.663044,49.6432602 109.833044,50.9432602 109.943044,51.6632602 L109.883044,51.6132602 C109.953044,52.1532602 110.123044,52.8632602 110.213044,53.6832602 C110.303044,54.5032602 110.353044,55.4532602 110.433044,56.4332602 C110.577592,58.4072843 110.577592,60.3892362 110.433044,62.3632602 L110.303044,62.2132602 C110.303044,62.5932602 110.303044,63.0132602 110.303044,63.4532602 C110.303044,63.8932602 110.183044,64.3732602 110.123044,64.8732602 C109.993044,65.8732602 109.843044,66.8732602 109.703044,67.9332602 C109.313044,69.9332602 108.763044,71.8532602 108.543044,72.9332602 C107.640173,75.7955669 106.509905,78.5811079 105.163044,81.2632602 C104.422862,82.8047759 103.591385,84.3007661 102.673044,85.7432602 C101.806574,87.2096305 100.861877,88.6283455 99.843044,89.9932602 C99.363044,90.5232602 98.923044,91.0832602 98.413044,91.5832602 L96.833044,93.0432602 L96.443044,93.5232602 C96.2727586,94.671854 96.3202525,95.8422405 96.583044,96.9732602 C97.023044,98.3332602 98.313044,99.0332602 101.913044,95.7632602 L101.913044,95.9632602 C102.344015,95.4974292 102.7512,95.0101426 103.133044,94.5032602 C104.553044,92.6932602 105.053044,91.7532602 105.063044,91.9532602 L103.193044,94.4732602 C104.593044,92.6432602 103.693044,93.9832602 103.193044,94.7332602 C103.783044,93.9732602 104.343044,93.2232602 104.833044,92.6332602 C105.063044,92.2332602 104.593044,92.8632602 104.353044,93.1432602 L105.563044,91.4432602 L106.233044,90.4432602 C106.463044,90.1232602 106.643044,89.7732602 106.853044,89.4432602 C108.073044,87.4432602 107.113044,89.4432602 108.533044,87.0532602 C115.871036,74.3530148 118.088417,59.33205 114.733044,45.0532602 C114.733044,44.7132602 114.793044,45.0532602 114.923044,45.5132602 C114.643044,44.4332602 114.383044,43.3832602 114.113044,42.3532602 C113.843044,41.3232602 113.443044,40.3532602 113.113044,39.3532602 L112.113044,36.4832602 C111.673044,35.5632602 111.243044,34.6532602 110.813044,33.7332602 C110.57677,33.1855909 110.382867,32.6205992 110.233044,32.0432602 C110.092095,31.8283194 109.97157,31.6006603 109.873044,31.3632602 C109.603044,30.8632602 109.143044,30.1432602 108.613044,29.2432602 C108.083044,28.3432602 107.463044,27.2432602 106.753044,26.1732602 L104.263044,22.8032602 C103.431211,21.6625846 102.522429,20.5800647 101.543044,19.5632602 C100.613044,18.5632602 99.803044,17.5632602 99.003044,16.8232602 L96.163044,14.2632602 Z" id="Path" fill="#FFFEF8"></path>
                <path d="M37.703044,65.6332602 C37.813486,65.8430863 37.9405591,66.043728 38.083044,66.2332602 C37.9730993,66.0231468 37.8460012,65.8224657 37.703044,65.6332602 Z" id="Path" fill="#373735"></path>
                <path d="M52.293044,46.5632602 L52.493044,46.5632602 L52.293044,46.5632602 Z" id="Path" fill="#373735"></path>
                <path d="M36.593044,66.1432602 L36.913044,66.7232602 L36.973044,66.7932602 C37.1845845,66.8323741 37.4015035,66.8323741 37.613044,66.7932602 C37.893044,66.7132602 38.103044,66.4832602 37.783044,65.8632602 L37.783044,65.8632602 L37.623044,65.6432602 C37.443044,65.3732602 37.323044,65.2632602 37.363044,65.2632602 L37.623044,65.6332602 C37.433044,65.3632602 37.623044,65.5432602 37.673044,65.6332602 C37.593044,65.5132602 37.513044,65.4032602 37.463044,65.3132602 C37.413044,65.2232602 37.463044,65.3132602 37.463044,65.4032602 C37.353044,65.2632602 37.183044,65.0832602 37.063044,64.9032602 C36.943044,64.7232602 37.063044,64.9032602 36.843044,64.5432602 C35.6130675,62.8978026 34.2768878,61.3344723 32.843044,59.8632602 C32.843044,59.8632602 32.843044,59.8632602 32.903044,59.8632602 C32.453044,59.4232602 32.053044,59.0232602 31.633044,58.6332602 C31.5743188,58.5710919 31.5208052,58.5041998 31.473044,58.4332602 L31.133044,58.1332602 L30.333044,57.4432602 L29.483044,56.6932602 L29.073044,56.3432602 L29.003044,56.3432602 C28.523044,55.9432602 28.903044,56.1832602 28.453044,55.8232602 C28.233044,55.7332602 27.713044,55.2132602 27.533044,55.1232602 C27.533044,55.1232602 27.313044,54.9432602 27.343044,54.9332602 C27.2053855,54.859827 27.0776831,54.7690911 26.963044,54.6632602 C26.903044,54.6632602 26.963044,54.6632602 27.023044,54.7432602 L26.853044,54.6232602 L26.853044,54.6232602 C26.853044,54.6232602 26.853044,54.6232602 26.853044,54.6232602 L26.853044,54.6232602 L26.853044,54.6232602 L27.353044,54.0632602 L28.663044,52.5932602 L30.663044,50.3232602 C30.543044,50.4132602 30.323044,50.6832602 30.203044,50.7532602 C30.383044,50.5132602 30.503044,50.4332602 30.563044,50.3132602 C30.623044,50.1932602 31.013044,49.8332602 31.213044,49.7032602 L31.213044,49.6132602 L31.403044,49.4432602 C31.7156946,49.055138 32.049536,48.684574 32.403044,48.3332602 C32.843044,47.8232602 33.013044,47.5432602 33.283044,47.2732602 C33.283044,47.3232602 33.123044,47.4132602 33.233044,47.2732602 C33.343044,47.1332602 33.523044,46.9132602 33.603044,46.8732602 C33.683044,46.8332602 34.083044,46.3232602 33.923044,46.4332602 C34.003044,46.3832602 34.343044,46.0132602 34.163044,46.2532602 C34.273044,46.1232602 34.383044,46.0132602 34.453044,45.9132602 L34.303044,46.0632602 C34.5893294,45.7643373 34.8597025,45.450571 35.113044,45.1232602 L34.963044,45.2732602 C35.1132843,45.0691016 35.291729,44.88729 35.493044,44.7332602 L35.273044,45.0032602 C35.643044,44.5832602 35.863044,44.3232602 36.153044,44.0032602 L36.043044,44.1232602 C36.173044,43.9532602 36.513044,43.5332602 36.923044,43.0432602 L37.553044,42.2932602 L37.713044,42.1032602 C37.7170848,42.0834643 37.7170848,42.0630561 37.713044,42.0432602 L37.793044,41.9432602 L37.933044,42.0132602 L37.933044,42.0132602 L38.023044,42.0632602 L38.153044,42.1332602 L38.003044,41.9432602 L38.423044,42.1732602 C38.373044,42.1732602 38.163044,42.1732602 38.133044,42.1132602 C38.563044,42.3832602 39.913044,43.2032602 41.303044,43.9332602 C42.693044,44.6632602 44.113044,45.3132602 44.543044,45.5232602 C44.973044,45.7332602 44.543044,45.6032602 44.543044,45.6032602 C44.973044,45.7832602 44.743044,45.6532602 45.103044,45.8032602 C45.203044,45.8032602 45.103044,45.8032602 45.013044,45.8032602 C45.1148374,45.8577365 45.2220988,45.9013115 45.333044,45.9332602 C45.143044,45.8332602 45.243044,45.8332602 45.173044,45.7632602 L45.633044,45.9732602 L45.633044,45.9732602 C45.733044,46.0232602 45.923044,46.0232602 46.383044,46.2032602 C47.163044,46.5232602 48.033044,46.8132602 48.843044,47.0632602 C48.7211534,47.0510016 48.6006469,47.0275698 48.483044,46.9932602 L48.853044,47.1132602 C48.663044,47.0232602 49.203044,47.1832602 49.053044,47.1132602 C49.363044,47.1132602 49.703044,47.2632602 50.053044,47.3432602 C50.403044,47.4232602 50.723044,47.4932602 50.993044,47.5332602 L51.233044,47.3832602 L51.693044,47.0632602 C51.9204156,46.9240387 52.1288131,46.7559762 52.313044,46.5632602 C52.473044,46.5632602 52.633044,46.6132602 52.683044,46.6332602 C52.5140408,46.582119 52.3394044,46.5518935 52.163044,46.5432602 L52.163044,46.5432602 C51.783044,46.5432602 52.083044,46.5432602 51.713044,46.4532602 C51.9222555,46.4275244 52.1338325,46.4275244 52.343044,46.4532602 C52.126237,46.4032613 51.9053223,46.3731366 51.683044,46.3632602 C51.433044,46.3132602 51.683044,46.3632602 51.413044,46.2632602 C51.143044,46.1632602 50.903044,46.1932602 50.663044,46.1232602 L50.663044,46.1232602 L50.253044,46.0332602 L49.903044,45.9532602 C49.6583913,45.9046463 49.4177193,45.8377929 49.183044,45.7532602 L49.253044,45.7532602 C49.053044,45.6832602 48.673044,45.5832602 48.333044,45.4432602 C48.423044,45.4432602 48.503044,45.5332602 48.333044,45.4432602 C47.943044,45.2932602 47.663044,45.2132602 47.333044,45.0832602 L47.003044,45.1432602 C46.313044,44.8932602 44.623044,44.1432602 43.003044,43.3732602 C41.383044,42.6032602 39.763044,41.6332602 39.133044,41.2432602 L39.133044,41.2432602 L38.643044,40.9432602 L38.423044,40.8032602 L38.143044,40.6232602 L37.543044,40.2332602 C36.643044,41.2332602 35.493044,42.5632602 34.393044,43.8332602 C33.393044,44.9432602 32.483044,46.0132602 31.833044,46.7832602 C31.573044,47.0332602 31.243044,47.4232602 30.973044,47.7032602 C31.133044,47.5532602 31.093044,47.6232602 30.973044,47.7032602 C30.203044,48.5832602 30.973044,47.7832602 30.163044,48.7032602 C29.763044,49.1832602 28.803044,50.2732602 27.813044,51.3832602 L24.813044,54.7532602 L25.383044,55.1632602 L25.763044,55.4232602 L26.103044,55.6632602 L26.533044,55.9832602 L27.343044,56.6132602 L27.343044,56.6132602 C27.603044,56.8232602 28.473044,57.5432602 29.343044,58.3032602 C30.213044,59.0632602 31.013044,59.8732602 31.343044,60.1432602 L31.273044,60.0632602 C31.5495023,60.3208846 31.8068485,60.5982836 32.043044,60.8932602 C32.043044,60.8032602 32.463044,61.2032602 32.623044,61.3632602 L32.623044,61.3632602 C32.863044,61.6032602 33.433044,62.1232602 33.803044,62.5432602 L33.803044,62.5432602 C33.973044,62.7032602 34.203044,62.9532602 34.413044,63.1932602 L34.923044,63.7932602 C35.163044,64.0932602 35.473044,64.4632602 35.773044,64.8832602 L36.593044,66.1432602 Z" id="Path" fill="#373735"></path>
                <path d="M79.903044,43.1332602 C79.623044,42.7632602 79.313044,42.3832602 78.903044,41.8932602 C79.093044,42.1932602 79.513044,42.6732602 79.903044,43.1332602 Z" id="Path" fill="#373735"></path>
                <path d="M77.883044,40.9832602 L78.303044,40.7432602 L77.883044,40.9832602 Z" id="Path" fill="#373735"></path>
                <path d="M54.693044,53.5432602 L54.583044,53.6332602 L54.693044,53.5432602 Z" id="Path" fill="#373735"></path>
                <path d="M91.173044,54.0532602 L90.313044,53.0532602 L89.633044,52.3132602 L88.353044,50.9432602 L88.403044,50.9432602 C87.663044,50.1432602 86.313044,48.5932602 85.793044,48.0032602 C84.613044,46.6432602 82.793044,44.5332602 81.203044,42.7632602 L80.203044,41.5432602 L80.073044,41.4432602 C80.073044,41.4432602 77.683044,40.2332602 79.623044,42.7432602 L79.563044,42.7432602 L79.983044,43.2032602 C80.473044,43.7832602 80.723044,44.0232602 80.673044,44.0032602 L80.003044,43.1632602 C80.493044,43.7332602 80.133044,43.3532602 79.933044,43.1632602 C80.143044,43.4032602 80.343044,43.6332602 80.493044,43.8332602 C80.643044,44.0332602 80.433044,43.7432602 80.363044,43.6432602 C80.633044,43.9432602 81.033044,44.3532602 81.363044,44.7332602 C81.873044,45.3132602 81.363044,44.8032602 81.953044,45.4832602 L89.253044,53.8432602 L89.253044,53.8432602 L89.253044,53.8432602 L89.023044,54.0132602 L88.103044,54.7232602 C88.013044,54.7832602 88.103044,54.7232602 88.223044,54.6032602 C87.1467383,55.466534 86.1153854,56.3844047 85.133044,57.3532602 C84.853044,57.6032602 84.773044,57.6632602 84.683044,57.7332602 C84.773044,57.6632602 83.443044,58.9732602 82.253044,60.4732602 L81.393044,61.5932602 L80.683044,62.5932602 C80.463044,62.8932602 80.323044,63.1732602 80.203044,63.3632602 L80.003044,63.6832602 L80.003044,63.7932602 L79.773044,64.1732602 C79.713044,64.2732602 79.683044,64.3432602 79.643044,64.4032602 C79.6103123,64.4740269 79.5700821,64.5410773 79.523044,64.6032602 C79.3685793,64.8448964 79.2347716,65.0991309 79.123044,65.3632602 C79.123044,65.4232602 79.123044,65.5032602 79.033044,65.5932602 L78.913044,65.9132602 L78.843044,66.0832602 L78.843044,66.0832602 L78.843044,66.0832602 L78.843044,66.0832602 L78.843044,66.0832602 C78.723044,65.9732602 78.613044,65.8732602 78.633044,65.8732602 C78.3463932,65.6631508 78.0725706,65.4360784 77.813044,65.1932602 C77.693044,65.1032602 77.883044,65.2732602 77.963044,65.3532602 L77.243044,64.7532602 C76.983044,64.5032602 76.923044,64.4232602 77.243044,64.6832602 L70.953044,59.2232602 L67.123044,55.8932602 L65.593044,54.5732602 C65.373044,54.3932602 65.183044,54.2232602 65.003044,54.0632602 C64.827027,53.9065665 64.6398686,53.7628556 64.443044,53.6332602 L64.783044,53.9032602 L65.093044,54.1832602 C65.313044,54.3732602 65.513044,54.5632602 65.623044,54.6732602 C65.4067532,54.5117365 65.199757,54.3381267 65.003044,54.1532602 L64.783044,53.9732602 C64.7079666,53.9069628 64.6277111,53.8467713 64.543044,53.7932602 C64.2525045,53.5433222 63.9113866,53.3591185 63.543044,53.2532602 L63.153044,53.1632602 L62.963044,53.1632602 L62.793044,53.1632602 C62.6251476,53.1497629 62.4581919,53.1263891 62.293044,53.0932602 L62.093044,53.0932602 L61.743044,53.0432602 C58.743044,52.8332602 61.053044,53.0432602 58.353044,52.7732602 L57.803044,52.7732602 L57.003044,52.7732602 C56.6645364,52.7787263 56.3282576,52.8291681 56.003044,52.9232602 C55.5148975,53.0667161 55.0596345,53.3045401 54.663044,53.6232602 C54.803044,53.5232602 54.943044,53.4332602 54.663044,53.6832602 C54.4617053,53.8348239 54.2890028,54.0210716 54.153044,54.2332602 L54.073044,54.3532602 L54.073044,54.4132602 L54.073044,54.4132602 L53.963044,54.5832602 C53.9188424,54.6635559 53.8687028,54.7404366 53.813044,54.8132602 C53.603044,55.1532602 52.923044,56.2532602 53.193044,55.9032602 C53.053044,56.0732602 52.443044,57.0532602 52.783044,56.4632602 C52.573044,56.7932602 52.373044,57.1032602 52.233044,57.3532602 L52.513044,56.9332602 L51.653044,58.3032602 L51.313044,58.8532602 C51.2295733,58.9780212 51.1394427,59.0981953 51.043044,59.2132602 L51.303044,58.9432602 C51.1305607,59.1666444 50.9248355,59.3622519 50.693044,59.5232602 C50.5386688,59.6352739 50.3661439,59.7198449 50.183044,59.7732602 C50.3791612,59.6780148 50.5637015,59.5605801 50.733044,59.4232602 C50.368375,59.7009093 49.9492576,59.8985419 49.503044,60.0032602 C49.0795849,60.0959635 48.6463365,60.1362657 48.213044,60.1232602 L48.263044,60.1232602 L47.863044,60.1232602 C47.5449044,60.096488 47.2337201,60.0153095 46.943044,59.8832602 C46.6127705,59.7376847 46.3389424,59.4884309 46.163044,59.1732602 C45.9556818,58.8116615 45.8518883,58.3999475 45.863044,57.9832602 C45.8803008,57.5512711 46.0002834,57.1296182 46.213044,56.7532602 L46.293044,56.6232602 L46.393044,56.4632602 L46.583044,56.1532602 L46.953044,55.5732602 C47.423044,54.8332602 47.793044,54.2432602 47.953044,53.9732602 L47.603044,54.4432602 L48.173044,53.5132602 C48.103044,53.6132602 47.983044,54.0132602 47.913044,54.1032602 L49.713044,51.3432602 C50.1290085,50.70723 50.6457713,50.1431818 51.243044,49.6732602 C51.8842708,49.1596178 52.5988794,48.7450099 53.363044,48.4432602 C53.763044,48.2932602 54.163044,48.1832602 54.603044,48.0632602 L55.873044,47.7132602 L58.213044,47.0732602 C58.923044,46.8832602 59.573044,46.6932602 60.073044,46.5832602 C60.573044,46.4732602 61.003044,46.3932602 61.253044,46.3532602 C62.093044,46.2532602 61.413044,46.3532602 61.403044,46.3532602 L62.113044,46.2432602 C62.3112495,46.2081924 62.5118192,46.1881354 62.713044,46.1832602 C62.943044,46.1832602 62.713044,46.1832602 62.533044,46.1832602 C62.913044,46.1832602 63.263044,46.1832602 63.293044,46.1232602 C62.813044,46.1232602 63.013044,46.1232602 62.813044,46.0632602 C63.183044,46.0632602 63.553044,46.0632602 63.943044,46.0632602 L63.943044,46.0632602 C64.193044,46.0632602 64.593044,45.9832602 65.733044,46.0032602 L71.503044,46.0032602 L71.903044,45.7732602 L71.823044,45.8332602 L71.513044,46.0232602 L71.513044,46.0232602 L71.813044,45.8632602 L71.963044,45.7832602 C71.543044,45.9832602 72.663044,45.3632602 72.333044,45.5332602 C73.533044,44.7732602 75.163044,43.9132602 76.233044,43.2532602 C76.293044,43.1432602 78.023044,40.9832602 77.983044,40.9232602 L78.763044,40.4832602 C78.673044,40.4832602 78.003044,40.8932602 77.653044,41.1032602 L77.653044,41.1732602 C76.843044,41.6432602 77.453044,41.2532602 76.653044,41.7132602 C77.069881,41.4154028 77.5076866,41.1480406 77.963044,40.9132602 C77.373044,41.2432602 76.793044,41.5532602 76.573044,41.7132602 C76.023044,42.0132602 76.573044,41.6432602 75.953044,42.0032602 C75.493044,42.2832602 74.893044,42.6532602 74.343044,42.9432602 L74.343044,42.9432602 C73.683044,43.3032602 73.193044,43.5932602 72.713044,43.8832602 L71.983044,44.3132602 L71.593044,44.5332602 L71.383044,44.6532602 L71.283044,44.7132602 L71.203044,44.7132602 L71.203044,44.7132602 L71.203044,44.7132602 L71.273044,44.7132602 L71.213044,44.7132602 L69.323044,44.7132602 C69.573044,44.7132602 69.793044,44.7132602 69.263044,44.7132602 C68.263044,44.7132602 67.573044,44.7132602 66.843044,44.7132602 L66.133044,44.7132602 L63.193044,44.7132602 C62.763044,44.7132602 62.303044,44.7632602 61.823044,44.8132602 C61.343044,44.8632602 60.823044,44.9432602 60.343044,45.0432602 C60.093044,45.1032602 59.833044,45.1532602 59.583044,45.2232602 L59.193044,45.3232602 L58.813044,45.4232602 L55.723044,46.4432602 L54.163044,46.8732602 L53.783044,46.9832602 L53.373044,47.1032602 L52.963044,47.2432602 L52.573044,47.4032602 C51.5802833,47.8147026 50.6692343,48.4006188 49.883044,49.1332602 C49.5227269,49.4601268 49.1883849,49.8145293 48.883044,50.1932602 C48.813044,50.2832602 48.753044,50.3832602 48.693044,50.4732602 L48.513044,50.7332602 L48.203044,51.2032602 L47.203044,52.6732602 L47.273044,52.5632602 L46.133044,54.4432602 C45.913044,54.7932602 45.673044,55.1532602 45.433044,55.5232602 C45.313044,55.7132602 45.193044,55.8732602 45.053044,56.1232602 C44.9135822,56.3640767 44.7996318,56.6187895 44.713044,56.8832602 C44.5298682,57.4406695 44.4818813,58.0336501 44.573044,58.6132602 C44.6211329,58.9122485 44.7050711,59.2043536 44.823044,59.4832602 C44.9496594,59.7729604 45.1181225,60.0425014 45.323044,60.2832602 C45.7433425,60.7703021 46.3010778,61.1188867 46.923044,61.2832602 C47.2073959,61.3637108 47.4986747,61.4172793 47.793044,61.4432602 L48.223044,61.4432602 L48.653044,61.4432602 C49.2403992,61.4265282 49.8212027,61.315095 50.373044,61.1132602 C50.9418053,60.8911815 51.4566091,60.5502519 51.883044,60.1132602 C51.9939004,60.0105776 52.0974835,59.9003117 52.193044,59.7832602 C52.2452488,59.7242007 52.2920999,59.6606171 52.333044,59.5932602 L52.413044,59.4832602 L52.463044,59.3932602 L52.853044,58.7632602 C53.103044,58.3432602 53.363044,57.9332602 53.603044,57.5332602 L55.003044,55.2932602 L55.163044,55.0232602 L55.293044,54.8432602 C55.3835088,54.7278133 55.4875971,54.623725 55.603044,54.5332602 C55.8324181,54.3634694 56.0895869,54.234885 56.363044,54.1532602 C56.5438814,54.1133318 56.7279702,54.0899023 56.913044,54.0832602 L57.203044,54.0832602 L57.583044,54.0832602 L59.053044,54.2032602 C58.563044,54.1532602 58.733044,54.1432602 59.123044,54.2032602 C61.833044,54.4332602 59.303044,54.2032602 62.043044,54.4132602 L62.363044,54.4132602 L62.543044,54.4132602 L62.693044,54.4132602 C62.9227519,54.4479737 63.1455117,54.5188519 63.353044,54.6232602 C63.4694173,54.6787943 63.579964,54.7457923 63.683044,54.8232602 L63.753044,54.8832602 L63.853044,54.9732602 L64.063044,55.1532602 L64.943044,55.9132602 C66.173044,56.9732602 67.613044,58.2132602 69.033044,59.4532602 L75.753044,65.3032602 C76.343044,65.7832602 76.993044,66.3032602 77.633044,66.8832602 L78.883044,67.9632602 C78.8794725,67.9898073 78.8794725,68.0167131 78.883044,68.0432602 L78.883044,68.0432602 L78.983044,68.1532602 C79.093044,68.3032602 79.173044,68.3432602 79.143044,68.3532602 C79.113044,68.3632602 79.033044,68.2232602 78.983044,68.1632602 C79.093044,68.3032602 78.983044,68.1632602 78.983044,68.1632602 C79.0273268,68.2167791 79.0674442,68.2736121 79.103044,68.3332602 C79.103044,68.3332602 79.103044,68.3332602 79.103044,68.3332602 C79.1923176,68.4079001 79.2698522,68.4955479 79.333044,68.5932602 C79.423044,68.7532602 79.333044,68.5932602 79.403044,68.8132602 C79.6653801,69.270808 79.7805919,69.7979894 79.733044,70.3232602 C79.6932421,70.8144578 79.4679972,71.2720981 79.103044,71.6032602 C79.103044,71.6032602 79.103044,71.6032602 79.103044,71.6032602 C78.8870405,71.8061923 78.6364106,71.968763 78.363044,72.0832602 C78.3167801,72.0919309 78.2693079,72.0919309 78.223044,72.0832602 C77.9556023,72.1922696 77.6773913,72.2727162 77.393044,72.3232602 C77.153044,72.3232602 76.913044,72.3932602 76.733044,72.4032602 L76.353044,72.4032602 L76.353044,72.4532602 L76.003044,72.4532602 L76.003044,72.4532602 C76.003044,72.4532602 76.003044,72.4532602 76.003044,72.4532602 L76.003044,72.4532602 C75.9496419,72.4353218 75.901534,72.4043952 75.863044,72.3632602 C75.793044,72.3032602 75.863044,72.3632602 75.813044,72.2532602 C75.403044,71.8732602 75.013044,71.5032602 74.583044,71.1432602 C74.583044,71.1432602 74.583044,71.1432602 74.583044,71.1432602 L74.213044,70.8532602 C74.2030033,70.8275387 74.2030033,70.7989817 74.213044,70.7732602 C74.213044,70.7732602 73.553044,70.2432602 73.543044,70.2332602 L73.543044,70.2332602 C73.413044,70.1232602 73.543044,70.1532602 73.413044,70.0632602 C73.283044,69.9732602 73.223044,69.8932602 73.163044,69.8932602 C73.103044,69.8932602 73.113044,69.8332602 73.163044,69.8232602 C73.213044,69.8132602 73.103044,69.8232602 73.063044,69.7532602 C73.023044,69.6832602 73.063044,69.7532602 73.063044,69.7532602 L72.973044,69.6932602 C72.973044,69.6932602 72.973044,69.6232602 72.973044,69.6932602 C72.763044,69.4932602 71.743044,68.5832602 71.493044,68.4032602 C71.493044,68.4032602 71.593044,68.4932602 71.593044,68.5532602 C71.593044,68.6132602 71.503044,68.4632602 71.463044,68.4632602 C71.423044,68.4632602 71.333044,68.3332602 71.333044,68.2432602 L71.333044,68.2432602 L71.333044,68.2432602 C71.033044,68.0432602 71.263044,68.2432602 71.023044,67.9932602 C70.783044,67.7432602 70.783044,67.8632602 70.713044,67.7832602 C70.643044,67.7032602 70.713044,67.8432602 70.713044,67.7832602 C70.713044,67.7232602 70.603044,67.7232602 70.613044,67.6832602 C70.623044,67.6432602 70.463044,67.5532602 70.473044,67.6232602 C70.483044,67.6932602 70.363044,67.4932602 70.473044,67.5332602 C70.583044,67.5732602 70.413044,67.4632602 70.373044,67.4532602 L70.373044,67.5032602 C70.253044,67.4032602 70.213044,67.3232602 70.113044,67.2932602 L70.113044,67.2932602 C70.033044,67.2332602 69.973044,67.1932602 69.983044,67.1332602 L70.063044,67.1332602 C69.9711449,67.0494758 69.8705768,66.9757259 69.763044,66.9132602 L69.763044,66.9132602 C69.613044,66.8432602 68.943044,66.3332602 68.763044,66.2832602 L68.763044,66.3532602 L68.553044,66.4432602 C68.553044,66.4432602 68.673044,66.3932602 68.673044,66.4432602 C68.463044,66.2732602 67.363044,65.3732602 67.183044,65.1932602 C67.003044,65.0132602 67.183044,65.1332602 67.183044,65.1332602 C67.183044,65.1332602 67.123044,65.1332602 67.043044,65.0532602 C66.963044,64.9732602 67.043044,65.0532602 67.043044,65.0532602 C67.043044,65.0532602 66.973044,64.9932602 66.963044,65.0532602 C66.953044,65.1132602 66.963044,65.1132602 66.963044,65.1532602 L66.863044,65.0632602 L66.863044,65.0632602 C66.863044,65.0632602 66.753044,65.0632602 66.663044,64.9732602 L66.213044,64.4432602 C66.213044,64.4432602 66.273044,64.4432602 66.313044,64.4432602 C66.353044,64.4432602 66.253044,64.4432602 66.243044,64.3732602 C66.233044,64.3032602 66.153044,64.3732602 66.183044,64.3732602 C66.013044,64.3732602 65.883044,64.1332602 65.743044,64.0732602 C65.603044,64.0132602 64.803044,64.7032602 64.743044,64.7532602 L64.673044,64.6832602 C64.673044,64.6832602 64.733044,64.7632602 64.773044,64.7932602 L64.773044,64.7932602 C64.863044,64.8532602 64.773044,64.7932602 64.863044,64.8932602 C64.953044,64.9932602 64.763044,64.8932602 64.693044,64.8132602 C64.623044,64.7332602 64.793044,64.9332602 64.843044,64.9332602 C64.893044,64.9332602 64.843044,64.9332602 64.843044,65.0232602 C64.843044,65.1132602 64.983044,65.0832602 65.023044,65.1432602 L65.023044,65.1432602 C65.133044,65.2832602 65.263044,65.2732602 65.363044,65.4032602 L65.363044,65.4032602 C65.363044,65.4532602 65.493044,65.5032602 65.563044,65.5832602 C65.633044,65.6632602 65.563044,65.5232602 65.563044,65.5832602 C65.563044,65.6432602 65.713044,65.7132602 65.763044,65.7832602 L65.853044,65.7832602 C66.153044,66.0532602 67.413044,67.0632602 67.733044,67.3232602 L67.733044,67.3232602 C68.223044,67.7132602 69.203044,68.5432602 69.733044,68.9332602 C69.8027083,69.0229682 69.883336,69.1035959 69.973044,69.1732602 C69.973044,69.1732602 69.973044,69.1732602 69.973044,69.1732602 C70.213044,69.3832602 69.973044,69.1732602 70.263044,69.3732602 C70.553044,69.5732602 71.623044,70.5232602 71.853044,70.7632602 C72.013044,70.8432602 72.163044,71.0132602 72.313044,71.0932602 L72.313044,71.0932602 C72.463044,71.2032602 73.243044,71.9132602 73.413044,72.0932602 L73.413044,72.0932602 C73.583044,72.1932602 73.523044,72.2232602 73.623044,72.3232602 C73.623044,72.2732602 73.793044,72.3232602 73.843044,72.3932602 L73.843044,72.3932602 C73.913044,72.3932602 74.103044,72.5432602 74.223044,72.6432602 L74.223044,72.6432602 C74.3525999,72.7274244 74.4732252,72.8245948 74.583044,72.9332602 C74.703044,73.0432602 74.863044,73.2132602 75.043044,73.3632602 C75.0366251,73.4731666 75.0366251,73.5833539 75.043044,73.6932602 C75.0378934,73.7431276 75.0378934,73.7933929 75.043044,73.8432602 L75.043044,73.9232602 C75.043044,73.9232602 75.043044,74.0732602 75.043044,74.1732602 C75.043044,74.2732602 75.043044,74.1732602 75.043044,74.1232602 L75.043044,74.3532602 C75.043044,74.4332602 74.983044,74.4432602 75.043044,74.3532602 C74.9789098,74.600809 74.8918675,74.8418492 74.783044,75.0732602 C74.6175299,75.4062528 74.3862006,75.7022182 74.103044,75.9432602 C73.775551,76.1853126 73.40075,76.3556766 73.003044,76.4432602 C72.7478159,76.5273181 72.4872292,76.5941352 72.223044,76.6432602 L72.403044,76.6432602 C72.462076,76.6280182 72.524012,76.6280182 72.583044,76.6432602 C72.423044,76.7032602 72.333044,76.6432602 72.263044,76.7232602 C72.193044,76.8032602 72.133044,76.7232602 72.023044,76.7232602 C71.9304009,76.739313 71.8356871,76.739313 71.743044,76.7232602 L71.743044,76.7232602 L71.653044,76.7232602 L70.983044,76.7232602 C70.983044,76.7232602 70.983044,76.7232602 70.983044,76.6632602 C70.693044,76.3732602 70.423044,76.0932602 70.113044,75.8332602 C70.113044,75.8332602 70.113044,75.8332602 70.113044,75.8332602 C70.113044,75.8332602 69.933044,75.6832602 69.833044,75.6232602 C69.8278773,75.6002129 69.8278773,75.5763075 69.833044,75.5532602 C69.6583533,75.4382071 69.4943599,75.3076817 69.343044,75.1632602 L69.343044,75.1632602 C69.253044,75.0832602 69.343044,75.0932602 69.263044,75.0332602 C69.183044,74.9732602 69.003044,74.9432602 69.003044,74.9532602 C69.003044,74.9632602 69.003044,74.9532602 69.003044,74.8932602 C69.003044,74.8332602 69.003044,74.8932602 68.923044,74.8932602 C68.843044,74.8932602 68.923044,74.8932602 68.923044,74.8932602 L68.853044,74.8932602 C68.853044,74.8932602 68.853044,74.8932602 68.853044,74.8932602 C68.713044,74.7432602 67.983044,74.0732602 67.853044,73.8932602 C67.853044,73.8932602 67.923044,73.9732602 67.913044,74.0232602 C67.903044,74.0732602 67.853044,73.9532602 67.813044,73.9632602 C67.773044,73.9732602 67.723044,73.8632602 67.743044,73.7832602 L67.743044,73.7832602 L67.743044,73.7832602 C67.523044,73.6432602 67.683044,73.7832602 67.523044,73.6032602 C67.363044,73.4232602 67.333044,73.5232602 67.293044,73.4532602 C67.253044,73.3832602 67.293044,73.4532602 67.293044,73.4532602 C67.293044,73.4532602 67.203044,73.4532602 67.213044,73.3732602 C67.223044,73.2932602 67.113044,73.2832602 67.103044,73.3732602 C67.093044,73.4632602 67.043044,73.2732602 67.103044,73.2932602 C67.163044,73.3132602 67.103044,73.2932602 67.043044,73.2932602 L67.043044,73.2932602 C66.953044,73.2332602 66.933044,73.1632602 66.853044,73.1432602 L66.853044,73.1432602 C66.793044,73.1432602 66.753044,73.0732602 66.763044,73.0232602 L66.823044,73.0232602 C66.7588501,72.9610203 66.6844327,72.9102811 66.603044,72.8732602 L66.603044,72.8732602 C66.483044,72.8732602 66.003044,72.4632602 65.883044,72.4332602 L65.883044,72.4932602 L65.793044,72.4932602 C65.793044,72.4932602 65.903044,72.4332602 65.903044,72.4932602 C65.903044,72.5532602 64.953044,71.7132602 64.833044,71.5732602 C64.713044,71.4332602 64.833044,71.5732602 64.833044,71.5132602 C64.833044,71.4532602 64.833044,71.5132602 64.723044,71.5132602 C64.613044,71.5132602 64.723044,71.5132602 64.723044,71.5132602 C64.723044,71.5132602 64.723044,71.4632602 64.663044,71.5132602 C64.603044,71.5632602 64.663044,71.5732602 64.663044,71.6032602 L64.593044,71.5432602 L64.593044,71.5432602 C64.593044,71.5432602 64.493044,71.5432602 64.433044,71.4932602 C64.373044,71.4432602 64.173044,71.2632602 64.053044,71.1532602 C64.0782451,71.140757 64.1078429,71.140757 64.133044,71.1532602 L64.083044,71.0932602 C64.083044,71.0932602 64.023044,71.0932602 64.083044,71.0932602 C64.143044,71.0932602 63.873044,70.9232602 63.763044,70.8832602 C63.653044,70.8432602 62.873044,71.5532602 62.823044,71.6132602 L62.773044,71.5532602 C62.7860084,71.5900529 62.8105746,71.6216381 62.843044,71.6432602 L62.843044,71.6432602 C62.913044,71.6432602 62.843044,71.6432602 62.903044,71.7232602 C62.963044,71.8032602 62.833044,71.7232602 62.783044,71.7232602 C62.733044,71.7232602 62.843044,71.8132602 62.883044,71.8032602 C62.923044,71.7932602 62.883044,71.8032602 62.883044,71.8832602 C62.934774,71.8998833 62.9824597,71.9271322 63.023044,71.9632602 L63.023044,71.9632602 C63.093044,72.0732602 63.203044,72.0532602 63.273044,72.1532602 L63.273044,72.1532602 C63.273044,72.1532602 63.373044,72.2232602 63.413044,72.2932602 C63.453044,72.3632602 63.413044,72.2932602 63.413044,72.2932602 C63.413044,72.2932602 63.523044,72.3832602 63.553044,72.4432602 L63.623044,72.4432602 C63.843044,72.6432602 64.753044,73.3732602 64.983044,73.5732602 L64.983044,73.5732602 C65.343044,73.8632602 66.043044,74.4732602 66.423044,74.7432602 C66.4682737,74.812997 66.5220215,74.8768226 66.583044,74.9332602 C66.583044,74.9332602 66.583044,74.9332602 66.583044,74.9332602 C66.753044,75.0832602 66.583044,74.9332602 66.793044,75.0632602 C67.1906821,75.3759328 67.5712307,75.7097474 67.933044,76.0632602 C68.053044,76.0632602 68.153044,76.2432602 68.263044,76.3032602 L68.263044,76.3032602 C68.373044,76.3732602 68.923044,76.9032602 69.053044,76.9932602 L69.053044,76.9932602 C69.183044,77.0532602 69.133044,77.0832602 69.203044,77.1632602 C69.273044,77.2432602 69.333044,77.1632602 69.373044,77.1632602 L69.373044,77.1632602 C69.373044,77.1632602 69.573044,77.2632602 69.663044,77.3332602 L69.663044,77.3332602 C69.759897,77.3901404 69.8504087,77.4571861 69.933044,77.5332602 L70.183044,77.8032602 L70.183044,77.8032602 C70.1919952,77.9097391 70.1919952,78.0167813 70.183044,78.1232602 C70.1876562,78.1698129 70.1876562,78.2167075 70.183044,78.2632602 L70.183044,78.3732602 C70.1933049,78.4462346 70.1933049,78.5202858 70.183044,78.5932602 C70.183044,78.5932602 70.183044,78.4832602 70.183044,78.5932602 C70.183044,78.7032602 70.183044,78.8532602 70.133044,78.8932602 C70.083044,78.9332602 70.033044,79.2732602 70.133044,79.1832602 C70.233044,79.0932602 70.003044,79.4732602 70.033044,79.3232602 C70.000985,79.3910853 69.974238,79.4612961 69.953044,79.5332602 C69.9563467,79.5033511 69.9563467,79.4731693 69.953044,79.4432602 C69.8642251,79.6357047 69.7640485,79.8227009 69.653044,80.0032602 L69.733044,79.9232602 C69.643044,80.0732602 69.543044,80.1832602 69.463044,80.1932602 L69.563044,80.0532602 C69.4151,80.2312902 69.251074,80.3953163 69.073044,80.5432602 C69.1000755,80.532496 69.1240947,80.5153395 69.143044,80.4932602 C68.8505201,80.7426013 68.5102691,80.9297394 68.143044,81.0432602 C68.0190159,81.0859164 67.8920028,81.1193409 67.763044,81.1432602 C67.6446837,81.1743526 67.5244313,81.1977351 67.403044,81.2132602 L67.103044,81.2632602 L66.993044,81.2632602 L66.903044,81.2632602 L67.003044,81.2632602 L66.853044,81.2632602 L66.603044,81.2632602 C66.6526067,81.2508391 66.6998682,81.2305842 66.743044,81.2032602 L66.873044,81.1432602 L66.603044,81.1432602 L66.603044,81.1432602 L66.603044,81.1432602 C66.603044,81.1432602 66.603044,81.1432602 66.603044,81.1432602 C66.603044,81.1432602 66.603044,81.1432602 66.603044,81.1432602 C66.603044,81.1432602 66.603044,81.1432602 66.603044,81.1432602 C66.603044,81.1432602 66.533044,81.1432602 66.523044,81.1432602 C66.513044,81.1432602 66.523044,81.1432602 66.523044,81.0632602 C66.34291,80.8731239 66.1526326,80.6928611 65.953044,80.5232602 C65.953044,80.5232602 65.953044,80.5232602 65.953044,80.5232602 L65.763044,80.3932602 C65.763044,80.3932602 65.763044,80.3932602 65.763044,80.3432602 C65.6459439,80.2660061 65.5355542,80.1790324 65.433044,80.0832602 L65.433044,80.0832602 C65.363044,80.0832602 65.433044,80.0232602 65.383044,79.9832602 C65.333044,79.9432602 65.293044,79.9032602 65.253044,79.9132602 C65.213044,79.9232602 65.253044,79.9132602 65.253044,79.9132602 C65.253044,79.9132602 65.253044,79.9132602 65.203044,79.9132602 C65.153044,79.9132602 65.203044,79.9132602 65.203044,79.9132602 L65.153044,79.9132602 C65.153044,79.9132602 65.153044,79.9132602 65.153044,79.9132602 C64.9373315,79.6881275 64.7068181,79.4776588 64.463044,79.2832602 C64.463044,79.2832602 64.463044,79.2832602 64.463044,79.3832602 C64.463044,79.4832602 64.463044,79.3832602 64.393044,79.3832602 C64.323044,79.3832602 64.333044,79.3232602 64.393044,79.2432602 L64.393044,79.2432602 L64.393044,79.2432602 C64.243044,79.1632602 64.393044,79.2432602 64.243044,79.1232602 C64.093044,79.0032602 64.103044,79.1232602 64.083044,79.0432602 C64.063044,78.9632602 64.083044,79.0432602 64.083044,79.0432602 C64.083044,79.0432602 64.023044,79.0432602 64.083044,78.9832602 C64.143044,78.9232602 64.013044,78.9232602 64.003044,78.9832602 C63.993044,79.0432602 64.003044,78.9132602 64.003044,78.9232602 C64.003044,78.9332602 64.003044,78.9232602 64.003044,78.9232602 L64.003044,78.9232602 C63.943044,78.9232602 63.933044,78.8232602 63.873044,78.8332602 L63.873044,78.8332602 C63.873044,78.8332602 63.803044,78.8332602 63.823044,78.7332602 L63.823044,78.7332602 C63.779261,78.6939419 63.7283404,78.6633896 63.673044,78.6432602 L63.673044,78.6432602 C63.5081168,78.5499538 63.33782,78.466475 63.163044,78.3932602 L63.163044,78.3932602 L63.103044,78.3932602 C63.103044,78.3932602 63.193044,78.3232602 63.193044,78.3932602 C63.193044,78.4632602 62.553044,77.8932602 62.483044,77.7932602 C62.413044,77.6932602 62.483044,77.7432602 62.483044,77.7332602 C62.483044,77.7232602 62.483044,77.7332602 62.403044,77.7332602 C62.323044,77.7332602 62.403044,77.7332602 62.403044,77.7332602 C62.403044,77.7332602 62.403044,77.7332602 62.403044,77.7332602 C62.403044,77.7332602 62.403044,77.7932602 62.403044,77.8232602 L62.403044,77.7732602 L62.403044,77.7732602 C62.403044,77.7732602 62.323044,77.7732602 62.283044,77.7732602 C62.243044,77.7732602 62.113044,77.6232602 62.033044,77.5432602 C62.0520302,77.5342543 62.0740578,77.5342543 62.093044,77.5432602 C62.093044,77.5432602 62.093044,77.5432602 62.093044,77.5432602 C62.093044,77.5432602 62.093044,77.5432602 62.093044,77.5432602 C62.093044,77.5432602 61.953044,77.4232602 61.863044,77.4232602 C61.773044,77.4232602 61.053044,78.1532602 61.003044,78.2132602 C60.953044,78.2732602 61.003044,78.2132602 61.003044,78.2132602 C61.003044,78.2132602 61.003044,78.2132602 61.003044,78.2732602 L61.003044,78.2732602 C61.003044,78.2732602 61.003044,78.2732602 61.003044,78.2732602 C61.003044,78.2732602 60.943044,78.2732602 60.913044,78.2732602 C60.883044,78.2732602 60.913044,78.3432602 60.983044,78.2732602 C61.053044,78.2032602 60.983044,78.2732602 60.983044,78.3432602 C60.983044,78.4132602 61.063044,78.3432602 61.073044,78.3932602 L61.073044,78.3932602 C61.073044,78.4732602 61.203044,78.3932602 61.233044,78.5132602 L61.233044,78.5132602 C61.233044,78.5132602 61.303044,78.5132602 61.323044,78.6032602 C61.343044,78.6932602 61.323044,78.6032602 61.323044,78.6032602 C61.323044,78.6032602 61.393044,78.6632602 61.403044,78.7032602 L61.453044,78.7032602 C61.603044,78.8332602 62.213044,79.3032602 62.373044,79.4232602 L62.373044,79.4232602 C62.613044,79.6032602 63.073044,80.0032602 63.373044,80.1632602 C63.373044,80.2232602 63.443044,80.2532602 63.473044,80.2932602 C63.503044,80.3332602 63.473044,80.2932602 63.473044,80.2932602 C63.473044,80.2932602 63.473044,80.2932602 63.623044,80.3732602 C63.8932683,80.572867 64.1443489,80.7971656 64.373044,81.0432602 C64.473044,81.0432602 64.523044,81.1632602 64.613044,81.1932602 L64.613044,81.1932602 C64.693044,81.1932602 65.053044,81.5932602 65.143044,81.6432602 L65.143044,81.6432602 C65.233044,81.6432602 65.143044,81.7132602 65.233044,81.7632602 C65.323044,81.8132602 65.333044,81.7632602 65.363044,81.7632602 L65.363044,81.7632602 C65.4350394,81.788372 65.5052076,81.818444 65.573044,81.8532602 L65.573044,81.8532602 C65.6385955,81.8883364 65.6991371,81.9320608 65.753044,81.9832602 L65.903044,82.1532602 C65.903044,82.1532602 65.903044,82.2332602 65.903044,82.2732602 L65.903044,82.4732602 L65.903044,82.6132602 L65.843044,82.8732602 C65.754341,83.2212603 65.6233668,83.5570918 65.453044,83.8732602 C65.2221075,84.3213916 64.8772034,84.7007861 64.453044,84.9732602 C64.273044,85.0532602 64.393044,84.9732602 64.393044,84.9732602 C64.193044,85.1032602 64.323044,85.0632602 64.143044,85.1532602 C63.963044,85.2432602 64.143044,85.1532602 64.143044,85.1032602 C64.0874278,85.1250935 64.0338803,85.1518672 63.983044,85.1832602 C64.093044,85.1832602 64.063044,85.1832602 64.123044,85.1832602 C64.0413649,85.2176706 63.9579138,85.247713 63.873044,85.2732602 L63.873044,85.2732602 C63.7574287,85.3648741 63.6192411,85.4236038 63.473044,85.4432602 C62.9799559,85.5275776 62.4761321,85.5275776 61.983044,85.4432602 C62.0588211,85.4267436 62.1372669,85.4267436 62.213044,85.4432602 L61.983044,85.3932602 C62.093044,85.4432602 61.773044,85.3932602 61.863044,85.3932602 C61.6590939,85.3764731 61.4577622,85.3362067 61.263044,85.2732602 L60.973044,85.1732602 L60.873044,85.1732602 L60.743044,85.1732602 L60.143044,85.5232602 C59.853044,85.6832602 59.543044,85.8232602 59.523044,85.8532602 L59.003044,85.2332602 C59.1098824,85.3314317 59.2313324,85.4123984 59.363044,85.4732602 L59.363044,85.4732602 C59.623044,85.5932602 59.363044,85.5332602 59.663044,85.6532602 C59.663044,85.6532602 59.433044,85.5832602 59.223044,85.4732602 C59.359781,85.5649673 59.5076361,85.6388948 59.663044,85.6932602 C59.823044,85.7832602 59.663044,85.6932602 59.823044,85.8332602 L60.403044,86.0432602 L60.403044,86.0432602 C60.5828041,86.116182 60.7709017,86.1665653 60.963044,86.1932602 L61.513044,86.3132602 L61.463044,86.3132602 C61.5634781,86.3479597 61.6674445,86.371436 61.773044,86.3832602 C61.912892,86.3740339 62.053196,86.3740339 62.193044,86.3832602 C62.113044,86.3832602 62.043044,86.3832602 62.193044,86.3832602 L62.623044,86.3832602 L63.003044,86.3832602 L63.243044,86.3232602 C63.6803128,86.2659046 64.1037116,86.130417 64.493044,85.9232602 C65.0633872,85.6267073 65.5486792,85.1896003 65.903044,84.6532602 C66.2421292,84.1433547 66.4986176,83.58313 66.663044,82.9932602 L66.753044,82.6132602 L66.753044,82.4332602 L66.753044,82.2932602 L67.003044,82.2932602 L67.363044,82.2932602 L67.753044,82.2932602 L68.183044,82.2032602 C68.8260536,82.0702761 69.4330469,81.8008802 69.963044,81.4132602 C70.5187214,81.0054135 70.945631,80.4466133 71.193044,79.8032602 C71.3014819,79.5253006 71.3818811,79.2372035 71.433044,78.9432602 C71.433044,78.8032602 71.433044,78.6732602 71.433044,78.5532602 C71.433044,78.4332602 71.433044,78.2632602 71.433044,78.2932602 C71.4377225,78.2735338 71.4377225,78.2529866 71.433044,78.2332602 C71.433044,78.2332602 71.433044,78.2332602 71.433044,78.2332602 C71.433044,78.2332602 71.433044,78.2332602 71.433044,78.2332602 L71.433044,78.2332602 C71.433044,78.2332602 71.433044,78.2332602 71.433044,78.2332602 L71.733044,78.2332602 C72.12077,78.1949349 72.5051444,78.1280872 72.883044,78.0332602 L73.273044,77.9232602 L73.673044,77.7632602 C73.9529802,77.6444906 74.2181054,77.4934699 74.463044,77.3132602 C74.9477964,76.97266 75.3508369,76.5286323 75.643044,76.0132602 C75.8335929,75.6750366 75.9845862,75.3160081 76.093044,74.9432602 C76.093044,74.7732602 76.153044,74.5832602 76.173044,74.3932602 C76.1772405,74.3466879 76.1772405,74.2998325 76.173044,74.2532602 L76.173044,74.1232602 L76.173044,74.0532602 C76.1774491,74.0200724 76.1774491,73.986448 76.173044,73.9532602 L76.173044,73.9532602 L76.373044,73.9532602 L76.813044,73.9532602 C77.1488831,73.9266887 77.4828197,73.8799376 77.813044,73.8132602 C78.3105599,73.7097793 78.7893935,73.5310597 79.233044,73.2832602 L79.153044,73.2832602 C79.603044,72.9832602 79.563044,73.0632602 79.913044,72.7932602 C79.833044,72.7932602 80.153044,72.4432602 80.243044,72.2832602 L80.243044,72.2832602 C80.3571067,72.1163318 80.4479389,71.9346674 80.513044,71.7432602 C80.5634616,71.6304292 80.6036235,71.5132902 80.633044,71.3932602 C80.6680371,71.2820489 80.6947764,71.168407 80.713044,71.0532602 L80.713044,71.0532602 C80.7460848,70.8279337 80.766118,70.600891 80.773044,70.3732602 C80.7715243,70.1689684 80.7548116,69.9650727 80.723044,69.7632602 C80.678142,69.4193578 80.587333,69.0830282 80.453044,68.7632602 C80.2983911,68.3958201 80.0819261,68.0575936 79.813044,67.7632602 C79.7733589,67.6910665 79.7299677,67.6209729 79.683044,67.5532602 L79.593044,67.4132602 L79.833044,66.8232602 L79.743044,67.0632602 L79.923044,66.5932602 L80.013044,66.3732602 L80.143044,66.1232602 L80.423044,65.5532602 L80.593044,65.2232602 C80.6451496,65.1059203 80.7052925,64.992317 80.773044,64.8832602 L81.203044,64.1632602 L81.433044,63.7832602 L81.693044,63.4032602 L82.233044,62.6232602 C82.423044,62.3532602 82.633044,62.1032602 82.833044,61.8432602 C84.1207165,60.2264764 85.542419,58.7211444 87.083044,57.3432602 L86.903044,57.5032602 C87.294145,57.1247184 87.7082678,56.7707103 88.143044,56.4432602 L89.083044,55.7232602 C89.003044,55.7232602 89.223044,55.5432602 89.523044,55.3032602 L89.753044,55.1132602 L89.873044,55.0232602 L90.003044,54.9132602 C90.273044,54.7132602 90.543044,54.5232602 90.733044,54.4032602 L90.733044,54.4032602 L91.173044,54.0532602 Z" id="Shape" fill="#373735"></path>
                <path d="M79.003044,68.2532602 C78.9311371,68.1266671 78.8400576,68.0119744 78.733044,67.9132602 C78.8104395,68.0360554 78.9009728,68.1500603 79.003044,68.2532602 Z" id="Path" fill="#373735"></path>
                <path d="M37.363044,72.1832602 C37.3187367,72.1062032 37.2685899,72.0326546 37.213044,71.9632602 C37.2091,72.003163 37.2091,72.0433574 37.213044,72.0832602 L37.363044,72.1832602 Z" id="Path" fill="#373735"></path>
                <path d="M42.093044,77.2232602 C42.0087473,77.1087016 41.9076026,77.0075569 41.793044,76.9232602 C41.8827108,77.0330854 41.9832188,77.1335934 42.093044,77.2232602 Z" id="Path" fill="#373735"></path>
                <polygon id="Path" fill="#373735" points="41.793044 76.9132602 41.793044 76.9132602 41.793044 76.9232602"></polygon>
                <path d="M47.363044,81.3532602 C47.2832783,81.2443561 47.1890831,81.1467968 47.083044,81.0632602 C47.160209,81.1743273 47.254752,81.2722469 47.363044,81.3532602 L47.363044,81.3532602 Z" id="Path" fill="#373735"></path>
                <polygon id="Path" fill="#373735" points="47.083044 81.0632602 47.083044 81.0532602 47.083044 81.0632602"></polygon>
                <path d="M53.003044,85.1732602 C52.933949,85.0801037 52.8533039,84.9960984 52.763044,84.9232602 C52.8293319,85.0187512 52.910337,85.1031315 53.003044,85.1732602 L53.003044,85.1732602 Z" id="Path" fill="#373735"></path>
                <polygon id="Path" fill="#373735" points="52.723044 84.9132602 52.713044 84.9132602 52.723044 84.9232602"></polygon>
                <path d="M59.493044,84.1832602 L59.853044,83.8532602 L59.953044,83.7632602 L60.073044,83.6432602 C60.1615756,83.5547016 60.2450415,83.4612198 60.323044,83.3632602 C60.6800315,82.9370671 60.9150064,82.4221956 61.003044,81.8732602 C61.0786416,81.3149026 60.9954668,80.7465416 60.763044,80.2332602 C60.5703996,79.8214338 60.2906193,79.4563546 59.943044,79.1632602 C59.8767221,79.0769033 59.7994009,78.9995822 59.713044,78.9332602 L59.473044,78.7132602 C59.543044,78.7932602 59.473044,78.7932602 59.473044,78.7132602 C59.193044,78.4932602 59.173044,78.4932602 59.163044,78.4932602 C59.0440268,78.4446733 58.9301336,78.3843769 58.823044,78.3132602 C58.5313206,78.1735552 58.2265064,78.0630182 57.913044,77.9832602 C57.4681978,77.8756772 57.0081878,77.8452353 56.553044,77.8932602 L56.433044,77.8932602 C56.5534695,77.70919 56.6508633,77.511044 56.723044,77.3032602 C57.1032504,76.1725179 56.777367,74.9239524 55.893044,74.1232602 C55.8518047,74.0654114 55.8049066,74.0118136 55.753044,73.9632602 L55.613044,73.8332602 L55.333044,73.5932602 C55.423044,73.6732602 55.333044,73.6632602 55.333044,73.5932602 C55.013044,73.3432602 54.993044,73.3432602 54.973044,73.3432602 L54.903044,73.3432602 L54.583044,73.1732602 C54.2648752,73.0217429 53.9289018,72.9108717 53.583044,72.8432602 C53.1038728,72.7535561 52.6122152,72.7535561 52.133044,72.8432602 C52.133044,72.8432602 52.133044,72.8432602 52.133044,72.8432602 C52.2821218,72.5287556 52.3735702,72.1900579 52.403044,71.8432602 C52.4294332,71.5072379 52.3990071,71.1691709 52.313044,70.8432602 C52.2326576,70.5525099 52.1078535,70.2759172 51.943044,70.0232602 C51.8062462,69.8088029 51.6451832,69.6108296 51.463044,69.4332602 C51.2760477,69.230025 51.0755954,69.0395954 50.863044,68.8632602 C50.953044,68.9532602 50.863044,68.9432602 50.863044,68.8632602 C50.523044,68.5832602 50.493044,68.5932602 50.473044,68.5932602 L50.403044,68.5932602 C50.2903474,68.525836 50.1734405,68.4657124 50.053044,68.4132602 C49.6942612,68.2493453 49.3136531,68.1381942 48.923044,68.0832602 C48.3672765,68.0110331 47.8026449,68.0518498 47.263044,68.2032602 C46.9803406,68.2835706 46.7083714,68.3977305 46.453044,68.5432602 C46.323044,68.6132602 46.213044,68.6932602 46.103044,68.7632602 L45.943044,68.8932602 L45.833044,68.9732602 C45.9817598,68.5149847 46.0127109,68.0266445 45.923044,67.5532602 C45.8445143,67.1009739 45.6555974,66.6750522 45.373044,66.3132602 C45.2402559,66.0815057 45.067608,65.8750053 44.863044,65.7032602 C44.953044,65.8032602 44.863044,65.7932602 44.863044,65.7032602 C44.7687227,65.615139 44.664727,65.5379808 44.553044,65.4732602 C44.553044,65.4732602 44.553044,65.4732602 44.203044,65.3032602 C43.9163735,65.1573708 43.6145698,65.043356 43.303044,64.9632602 C42.3991124,64.7574933 41.4523491,64.8594911 40.613044,65.2532602 C40.3362737,65.3961153 40.0749031,65.5670115 39.833044,65.7632602 C39.623044,66.0232602 39.293044,66.2632602 39.073044,66.5032602 L39.073044,66.5032602 C38.823044,66.7432602 37.343044,68.0232602 37.073044,68.3032602 L37.073044,68.3032602 C36.93549,68.442161 36.7809319,68.5631195 36.613044,68.6632602 C36.683044,68.6632602 36.443044,68.9432602 36.363044,69.0632602 L36.363044,69.0632602 C36.1677166,69.3456016 36.016016,69.655745 35.913044,69.9832602 L35.913044,69.9832602 C35.8848951,70.0644246 35.8647984,70.1481611 35.853044,70.2332602 C35.8225476,70.3274547 35.8024283,70.4246977 35.793044,70.5232602 C35.7812242,70.6863797 35.7812242,70.8501407 35.793044,71.0132602 C35.7940691,71.300742 35.8344439,71.5867302 35.913044,71.8632602 C36.0150928,72.1765628 36.174464,72.4681781 36.383044,72.7232602 C36.453044,72.8432602 36.513044,72.9732602 36.593044,73.0832602 L36.643044,73.0832602 L36.813044,73.0232602 L36.983044,72.9532602 L37.063044,72.8932602 L37.063044,72.8932602 L37.063044,72.8932602 L37.123044,72.8332602 L37.203044,72.4432602 C37.2582363,72.3191183 37.2582363,72.1774022 37.203044,72.0532602 L37.203044,72.0532602 L37.133044,71.9732602 C37.063044,71.8732602 37.013044,71.8432602 37.043044,71.8332602 C37.0705791,71.8838079 37.1041589,71.9308197 37.143044,71.9732602 C37.063044,71.8732602 37.143044,71.9732602 37.143044,71.9732602 C37.1123432,71.9380388 37.0885912,71.8973212 37.073044,71.8532602 C37.073044,71.8532602 37.073044,71.8532602 37.073044,71.8532602 C37.073044,71.8532602 36.953044,71.7532602 36.923044,71.6732602 C36.893044,71.5932602 36.923044,71.6732602 36.923044,71.5132602 C36.7870024,71.197827 36.758881,70.8463098 36.843044,70.5132602 C36.9448827,70.1600368 37.1421042,69.8417145 37.413044,69.5932602 C37.413044,69.5932602 37.413044,69.5932602 37.413044,69.5932602 C37.633044,69.3732602 37.853044,69.1932602 38.053044,68.9932602 C38.0893807,68.9666468 38.1299512,68.9463615 38.173044,68.9332602 L38.733044,68.4032602 L39.153044,68.0232602 L39.353044,67.8432602 L39.353044,67.7932602 C39.583044,67.5832602 39.463044,67.7932602 39.673044,67.5732602 C39.673044,67.4432602 40.023044,67.2632602 40.073044,67.1632602 C40.123044,67.0632602 40.183044,67.0832602 40.193044,67.1032602 C40.203044,67.1232602 40.293044,67.0032602 40.353044,66.9332602 C40.413044,66.8632602 40.353044,66.9332602 40.353044,66.9332602 L40.493044,66.7832602 C40.563044,66.7832602 40.593044,66.7832602 40.493044,66.7832602 L40.583044,66.7032602 L40.673044,66.6332602 C40.743044,66.5732602 40.843044,66.5232602 40.943044,66.4532602 C41.1860593,66.3201472 41.4497402,66.228873 41.723044,66.1832602 C42.0046135,66.1385494 42.2914745,66.1385494 42.573044,66.1832602 C42.7591245,66.2140149 42.9428859,66.2574494 43.123044,66.3132602 C43.123044,66.2632602 42.943044,66.2432602 42.903044,66.1832602 C43.033044,66.1832602 43.073044,66.2432602 43.123044,66.2432602 C43.173044,66.2432602 43.193044,66.3032602 43.253044,66.3332602 C43.313044,66.3632602 43.383044,66.4132602 43.403044,66.4632602 L43.453044,66.4632602 L43.453044,66.4632602 L43.593044,66.5232602 L43.663044,66.5232602 L43.713044,66.5232602 L43.893044,66.6932602 C44.063044,66.8732602 44.173044,66.9332602 44.223044,67.0632602 C44.273044,67.1932602 44.223044,66.9932602 44.223044,67.0632602 C44.223044,67.1332602 44.333044,67.1932602 44.303044,67.2432602 C44.273044,67.2932602 44.383044,67.4832602 44.413044,67.4132602 C44.443044,67.3432602 44.413044,67.6232602 44.413044,67.5232602 C44.4064548,67.57639 44.4064548,67.6301304 44.413044,67.6832602 L44.413044,67.6032602 C44.4218218,67.6863624 44.4218218,67.770158 44.413044,67.8532602 C44.3981668,67.9157199 44.3981668,67.9808006 44.413044,68.0432602 C44.413044,68.0432602 44.413044,67.9932602 44.413044,67.9732602 C44.4185285,68.0264526 44.4185285,68.0800679 44.413044,68.1332602 C44.4054605,68.1726254 44.3842093,68.2080441 44.353044,68.2332602 C44.3580017,68.1900687 44.3580017,68.1464518 44.353044,68.1032602 C44.3256168,68.2619466 44.2888868,68.4188839 44.243044,68.5732602 C44.2483861,68.5570216 44.2483861,68.5394988 44.243044,68.5232602 C44.1676325,68.7845375 44.0264683,69.0221065 43.833044,69.2132602 C43.513044,69.5332602 43.173044,69.8732602 43.093044,69.9832602 L43.213044,69.9232602 L43.063044,70.1032602 C43.063044,70.1032602 43.063044,69.9432602 43.063044,69.9332602 L41.713044,71.1632602 L40.893044,71.9032602 C40.773044,72.0132602 40.663044,72.1132602 40.593044,72.1632602 C40.537972,72.2101999 40.4775545,72.2504783 40.413044,72.2832602 C40.273044,72.3532602 40.363044,72.2832602 40.353044,72.2832602 C40.343044,72.2832602 40.353044,72.3532602 40.173044,72.4332602 C39.993044,72.5132602 40.173044,72.4332602 40.173044,72.3832602 C40.173044,72.3332602 40.053044,72.4432602 40.053044,72.4532602 C40.053044,72.4632602 40.123044,72.4532602 40.173044,72.4532602 C40.1135829,72.4883229 40.0496769,72.5152307 39.983044,72.5332602 L39.983044,72.5332602 C39.983044,72.5332602 39.983044,72.5332602 39.893044,72.6132602 C39.8344076,72.6586125 39.7658752,72.6894521 39.693044,72.7032602 C39.3381474,72.7992551 38.9681531,72.8264107 38.603044,72.7832602 C38.603044,72.7832602 38.683044,72.7832602 38.753044,72.7832602 C38.7001389,72.7928178 38.6459491,72.7928178 38.593044,72.7832602 C38.673044,72.7832602 38.443044,72.7832602 38.513044,72.7832602 C38.2337075,72.7699168 37.9591776,72.7055209 37.703044,72.5932602 C37.5407524,72.7314193 37.3667649,72.855218 37.183044,72.9632602 L36.793044,73.1732602 L36.583044,73.2732602 L36.403044,73.1232602 C36.4797678,73.2075954 36.567173,73.2815536 36.663044,73.3432602 L36.663044,73.3432602 C36.883044,73.4632602 36.663044,73.3432602 36.903044,73.5132602 C36.903044,73.5132602 36.703044,73.4432602 36.543044,73.3232602 C36.6450759,73.4249631 36.7678777,73.5034198 36.903044,73.5532602 C37.043044,73.6532602 36.903044,73.5532602 37.043044,73.6932602 C37.183044,73.8332602 37.363044,73.7932602 37.513044,73.8732602 L37.513044,73.8732602 C37.8197069,73.9808088 38.139049,74.0480387 38.463044,74.0732602 L38.463044,74.0732602 C38.6659592,74.0917006 38.8701288,74.0917006 39.073044,74.0732602 C39.013044,74.0732602 38.953044,74.0732602 39.073044,74.0732602 C39.2862004,74.0855486 39.4998876,74.0855486 39.713044,74.0732602 L39.883044,74.0032602 L40.233044,73.9032602 C40.1230323,74.0795997 40.0325013,74.2673677 39.963044,74.4632602 L39.963044,74.4632602 C39.8921682,74.6752283 39.8386583,74.8926123 39.803044,75.1132602 C39.7936753,75.2263999 39.7936753,75.3401205 39.803044,75.4532602 C39.7979415,75.5398518 39.7979415,75.6266687 39.803044,75.7132602 C39.8164586,76.0591392 39.8980176,76.3989681 40.043044,76.7132602 C40.1933738,77.0976027 40.433372,77.4404573 40.743044,77.7132602 L41.023044,78.0632602 L41.073044,78.0632602 C41.073044,78.0632602 42.223044,77.7332602 41.713044,77.0632602 L41.713044,77.0632602 L41.583044,76.9632602 C41.473044,76.8432602 41.403044,76.8232602 41.433044,76.8032602 L41.583044,76.9532602 C41.473044,76.8432602 41.583044,76.9532602 41.583044,76.9532602 C41.5375535,76.9153375 41.4972122,76.8716343 41.463044,76.8232602 C41.463044,76.8232602 41.463044,76.8232602 41.463044,76.8232602 C41.3738398,76.7764672 41.2981017,76.7076143 41.243044,76.6232602 C41.153044,76.5032602 41.243044,76.6232602 41.173044,76.4432602 C40.9396459,76.0707706 40.8708669,75.6182773 40.983044,75.1932602 C41.037129,74.9802591 41.1322378,74.7798513 41.263044,74.6032602 C41.3290421,74.5107076 41.4063025,74.4267289 41.493044,74.3532602 L41.553044,74.2832602 L41.643044,74.2032602 L42.003044,74.0432602 C42.003044,74.0432602 42.003044,74.0432602 42.003044,74.0432602 L42.793044,73.3132602 C42.8334216,73.279037 42.8814389,73.2550283 42.933044,73.2432602 C42.933044,73.2432602 43.263044,72.9232602 43.623044,72.5932602 L44.133044,72.1332602 L44.383044,71.9132602 L44.383044,71.8632602 C44.663044,71.6032602 44.503044,71.8632602 44.763044,71.5832602 C44.813044,71.4432602 45.193044,71.2032602 45.263044,71.0932602 C45.333044,70.9832602 45.393044,70.9832602 45.393044,71.0132602 C45.393044,71.0432602 45.523044,70.8832602 45.593044,70.8032602 C45.663044,70.7232602 45.593044,70.8032602 45.533044,70.8032602 L45.713044,70.6332602 C45.793044,70.5732602 45.823044,70.5732602 45.713044,70.6332602 L46.363044,70.0632602 L46.593044,69.8632602 C46.6518947,69.80783 46.715469,69.7576397 46.783044,69.7132602 L47.013044,69.5832602 L47.253044,69.4732602 C47.5721206,69.3519926 47.9118191,69.2942439 48.253044,69.3032602 C48.4836426,69.3090021 48.7123959,69.3460063 48.933044,69.4132602 C48.8919033,69.38021 48.8441686,69.3563427 48.793044,69.3432602 C48.7419927,69.3356373 48.6937718,69.3149712 48.653044,69.2832602 C48.7089426,69.2700658 48.7671454,69.2700658 48.823044,69.2832602 L49.003044,69.4432602 C49.003044,69.5232602 49.303044,69.5532602 49.363044,69.6732602 L49.363044,69.6732602 L49.363044,69.6732602 C49.4712296,69.7244848 49.5749266,69.784696 49.673044,69.8532602 L49.973044,70.1132602 C50.0400736,70.1735009 50.1101668,70.230243 50.183044,70.2832602 L50.313044,70.3832602 C50.3848481,70.4301645 50.4461398,70.4914561 50.493044,70.5632602 C50.493044,70.5632602 50.493044,70.4832602 50.493044,70.5632602 C50.493044,70.6432602 50.643044,70.7132602 50.623044,70.7732602 C50.603044,70.8332602 50.753044,71.0632602 50.773044,70.9732602 C50.793044,70.8832602 50.773044,71.2232602 50.773044,71.1132602 C50.773044,71.1832602 50.773044,71.2432602 50.773044,71.2932602 C50.777897,71.2634565 50.777897,71.233064 50.773044,71.2032602 C50.8087407,71.377795 50.8288201,71.5551625 50.833044,71.7332602 L50.833044,71.6432602 L50.833044,71.7532602 C50.833044,71.7532602 50.833044,71.8132602 50.833044,71.8432602 C50.833044,71.8732602 50.833044,71.9432602 50.763044,71.9632602 C50.7679257,71.9133794 50.7679257,71.8631411 50.763044,71.8132602 C50.7350494,72.0094781 50.6812505,72.2011369 50.603044,72.3832602 L50.603044,72.3232602 C50.607035,72.3698416 50.607035,72.4166789 50.603044,72.4632602 C50.5698648,72.5337891 50.5296617,72.6007944 50.483044,72.6632602 L50.403044,72.7732602 L50.303044,72.8932602 L50.303044,72.9532602 L50.223044,73.0232602 L50.073044,73.1732602 C49.663044,73.5632602 49.263044,73.9632602 49.163044,74.0932602 L49.303044,74.0232602 L49.103044,74.2332602 C49.103044,74.2332602 49.103044,74.0532602 49.163044,74.0432602 C48.703044,74.4632602 46.313044,76.6432602 45.873044,77.0432602 C45.693044,77.1832602 45.803044,77.0432602 45.803044,77.0432602 C45.603044,77.2432602 45.743044,77.1532602 45.563044,77.3132602 C45.383044,77.4732602 45.563044,77.3132602 45.563044,77.2532602 L45.453044,77.3532602 C45.453044,77.3532602 45.453044,77.3532602 45.453044,77.3532602 C45.4820871,77.3425444 45.5140009,77.3425444 45.543044,77.3532602 L45.603044,77.3532602 L45.393044,77.5132602 L45.393044,77.5132602 C45.3168948,77.6230471 45.2179835,77.7151369 45.103044,77.7832602 C44.7023781,77.9850353 44.2615611,78.0943852 43.813044,78.1032602 C43.8754581,78.0880002 43.9406299,78.0880002 44.003044,78.1032602 C43.9364718,78.1082799 43.8696162,78.1082799 43.803044,78.1032602 C43.903044,78.1032602 43.623044,78.1032602 43.703044,78.1032602 C43.3622858,78.118707 43.0219712,78.0642567 42.703044,77.9432602 C42.5287954,78.0873259 42.3412912,78.2145609 42.143044,78.3232602 C41.853044,78.4632602 41.513044,78.5732602 41.493044,78.6032602 C41.4148148,78.5458278 41.341252,78.4822962 41.273044,78.4132602 C41.3637696,78.5178864 41.4720614,78.6058734 41.593044,78.6732602 L41.593044,78.6732602 C41.863044,78.8232602 41.643044,78.7432602 41.903044,78.8832602 C41.903044,78.8832602 41.653044,78.7932602 41.453044,78.6532602 C41.633044,78.7832602 41.803044,78.9232602 41.903044,78.9232602 C42.003044,78.9232602 41.903044,78.9232602 42.083044,79.0732602 C42.263044,79.2232602 42.473044,79.1832602 42.663044,79.2532602 L42.663044,79.2532602 C42.8552245,79.3241787 43.0582044,79.3613917 43.263044,79.3632602 C43.443044,79.3632602 43.613044,79.3632602 43.833044,79.3632602 L43.833044,79.3632602 C43.939506,79.3726042 44.046582,79.3726042 44.153044,79.3632602 L44.573044,79.3632602 C44.493044,79.3632602 44.423044,79.3632602 44.573044,79.3632602 C44.7123846,79.3470953 44.8497439,79.3169432 44.983044,79.2732602 L45.183044,79.2032602 C45.183044,79.3532602 45.183044,79.5232602 45.123044,79.6932602 C45.1108476,79.8797277 45.1108476,80.0667928 45.123044,80.2532602 C45.1545719,80.6008872 45.2494693,80.9398063 45.403044,81.2532602 C45.5606293,81.5883622 45.7933164,81.8826429 46.083044,82.1132602 L46.333044,82.4432602 L46.333044,82.4432602 C46.333044,82.4432602 47.453044,82.0932602 46.983044,81.4432602 L46.983044,81.4432602 L46.863044,81.3432602 C46.753044,81.2232602 46.693044,81.2132602 46.713044,81.1932602 L46.863044,81.3432602 C46.793044,81.2732602 46.803044,81.2732602 46.863044,81.2732602 L46.863044,81.2732602 L46.923044,81.2732602 C46.8949063,81.2552845 46.8710197,81.231398 46.853044,81.2032602 L46.853044,81.1432602 C46.853044,81.1432602 46.853044,81.1432602 46.853044,81.1432602 L46.743044,81.0632602 C46.7077517,81.0312628 46.6774193,80.9941898 46.653044,80.9532602 C46.553044,80.8432602 46.653044,80.9532602 46.583044,80.7832602 C46.344755,80.3774474 46.2972043,79.8873094 46.453044,79.4432602 C46.4849375,79.2427908 46.5526862,79.049707 46.653044,78.8732602 C46.7670892,78.6893562 46.9087458,78.5240902 47.073044,78.3832602 C47.073044,78.3832602 47.073044,78.3832602 47.073044,78.3832602 L47.813044,77.6832602 C47.8534639,77.6574721 47.8971962,77.637288 47.943044,77.6232602 L48.593044,77.0132602 L49.073044,76.5832602 L49.303044,76.3732602 L49.303044,76.3732602 C49.573044,76.1332602 49.423044,76.3732602 49.653044,76.1232602 C49.653044,75.9832602 50.063044,75.7632602 50.123044,75.6532602 C50.183044,75.5432602 50.253044,75.5532602 50.253044,75.5832602 C50.253044,75.6132602 50.373044,75.4632602 50.443044,75.3832602 C50.513044,75.3032602 50.443044,75.3832602 50.383044,75.3832602 L50.553044,75.2232602 C50.623044,75.1732602 50.653044,75.1732602 50.553044,75.2232602 L51.173044,74.6932602 C51.4113168,74.4867267 51.6908539,74.3333222 51.993044,74.2432602 C52.3165902,74.1445011 52.6557668,74.1071916 52.993044,74.1332602 C53.2065512,74.151928 53.4176244,74.1921324 53.623044,74.2532602 C53.623044,74.2532602 53.423044,74.1832602 53.373044,74.1232602 C53.513044,74.1232602 53.563044,74.1832602 53.623044,74.1732602 C53.683044,74.1632602 53.903044,74.2932602 53.953044,74.4032602 L54.003044,74.4432602 L54.003044,74.4432602 C54.10431,74.4916883 54.2013192,74.5485558 54.293044,74.6132602 L54.563044,74.8632602 L54.773044,75.0132602 L54.903044,75.1132602 C54.9692223,75.159542 55.0267622,75.2170819 55.073044,75.2832602 C55.073044,75.2832602 55.073044,75.2032602 55.073044,75.2832602 C55.073044,75.3632602 55.203044,75.4232602 55.203044,75.4732602 C55.203044,75.5232602 55.343044,75.7432602 55.353044,75.6532602 C55.363044,75.5632602 55.413044,75.8832602 55.353044,75.7832602 C55.353044,75.8432602 55.353044,75.9132602 55.413044,75.9532602 L55.413044,75.8732602 C55.4514186,76.0349439 55.4814582,76.1984929 55.503044,76.3632602 C55.503044,76.3632602 55.503044,76.3032602 55.503044,76.2832602 C55.5259609,76.3872499 55.5041941,76.496084 55.443044,76.5832602 C55.4480075,76.5367255 55.4480075,76.4897949 55.443044,76.4432602 C55.4310138,76.625798 55.4008656,76.8066876 55.353044,76.9832602 L55.353044,76.9232602 C55.2761731,77.2242525 55.1168707,77.4978371 54.893044,77.7132602 C54.513044,78.0932602 54.133044,78.4632602 54.033044,78.5832602 L54.173044,78.5132602 L53.993044,78.7232602 C53.993044,78.7232602 53.993044,78.5432602 53.993044,78.5332602 C53.563044,78.9332602 51.333044,80.9732602 50.913044,81.3132602 C50.743044,81.4432602 50.843044,81.3132602 50.843044,81.3132602 L50.803044,81.4432602 C50.803044,81.4432602 50.803044,81.4432602 50.723044,81.5232602 C50.643044,81.6032602 50.723044,81.5232602 50.723044,81.5232602 C50.723044,81.5232602 50.603044,81.6132602 50.613044,81.6232602 C50.623044,81.6332602 50.693044,81.6232602 50.743044,81.6232602 C50.793044,81.6232602 50.613044,81.7032602 50.543044,81.7532602 L50.543044,81.7532602 C50.4637091,81.853664 50.3606021,81.9327128 50.243044,81.9832602 C49.8542708,82.1463554 49.4342478,82.2214815 49.013044,82.2032602 C49.013044,82.2032602 49.113044,82.2032602 49.193044,82.2032602 L49.003044,82.2032602 C49.103044,82.2032602 48.833044,82.2032602 48.913044,82.2032602 C48.5964427,82.1725524 48.2880794,82.0844486 48.003044,81.9432602 C47.833455,82.0811396 47.6528504,82.2048872 47.463044,82.3132602 C47.183044,82.4632602 46.853044,82.5732602 46.833044,82.6032602 C46.813044,82.6332602 46.643044,82.4532602 46.623044,82.4232602 C46.7088483,82.5222872 46.8101675,82.6067199 46.923044,82.6732602 L46.923044,82.6732602 C47.173044,82.8132602 46.923044,82.7332602 47.203044,82.8732602 C47.203044,82.8732602 46.973044,82.7832602 46.783044,82.6532602 C46.9097814,82.7648 47.0553941,82.8528449 47.213044,82.9132602 C47.373044,83.0032602 47.213044,82.9132602 47.373044,83.0532602 C47.4603868,83.0907107 47.5506995,83.120815 47.643044,83.1432602 L47.923044,83.2332602 L47.923044,83.2332602 C48.2817773,83.3301444 48.6514678,83.3805568 49.023044,83.3832602 L49.023044,83.3832602 C49.2557808,83.4068554 49.4903072,83.4068554 49.723044,83.3832602 C49.643044,83.3832602 49.573044,83.3832602 49.723044,83.3832602 C49.9704614,83.3557463 50.214824,83.3055348 50.453044,83.2332602 L50.643044,83.1332602 L50.863044,83.0332602 L50.863044,83.2832602 L50.863044,83.2832602 C50.863044,83.4332602 50.863044,83.6332602 50.863044,83.8332602 C50.8738106,83.9962748 50.904025,84.157418 50.953044,84.3132602 C51.020661,84.5939353 51.128439,84.8633803 51.273044,85.1132602 C51.4388552,85.3885972 51.6521539,85.6323672 51.903044,85.8332602 L52.113044,86.1132602 L52.113044,86.1132602 C52.113044,86.1132602 53.113044,85.7132602 52.783044,85.1132602 L52.783044,85.1132602 L52.683044,85.0232602 L52.603044,84.9532602 L52.553044,84.9532602 C52.553044,84.9532602 52.553044,84.9532602 52.553044,84.9532602 L52.613044,85.0132602 L52.703044,85.0832602 C52.583044,84.9732602 52.703044,85.0832602 52.703044,85.0832602 C52.6581194,85.0485082 52.617796,85.0081848 52.583044,84.9632602 C52.583044,84.9632602 52.583044,84.9632602 52.583044,84.9632602 C52.583044,84.9632602 52.433044,84.8732602 52.393044,84.8032602 C52.353044,84.7332602 52.393044,84.8032602 52.323044,84.6532602 C51.8729646,84.0625578 51.8729646,83.2439626 52.323044,82.6532602 C52.323044,82.6532602 52.323044,82.6532602 52.323044,82.6532602 C52.455995,82.4598808 52.6140439,82.2850183 52.793044,82.1332602 C52.8314641,82.1039874 52.8758418,82.0835053 52.923044,82.0732602 C53.0998317,81.8864394 53.2867819,81.7095044 53.483044,81.5432602 L53.893044,81.1632602 L54.103044,80.9932602 L54.103044,80.9332602 C54.333044,80.7332602 54.203044,80.9332602 54.413044,80.7232602 C54.413044,80.5932602 54.763044,80.4032602 54.813044,80.3132602 C54.863044,80.2232602 54.923044,80.2232602 54.933044,80.2532602 C54.943044,80.2832602 55.033044,80.1432602 55.093044,80.0832602 C55.153044,80.0232602 55.093044,80.0832602 55.043044,80.0832602 L55.183044,79.9332602 C55.253044,79.9332602 55.283044,79.9332602 55.183044,79.9332602 L55.273044,79.8532602 L55.373044,79.7832602 C55.443044,79.7232602 55.543044,79.6732602 55.643044,79.6032602 C55.8860593,79.4701472 56.1497402,79.378873 56.423044,79.3332602 C56.7046002,79.2883817 56.9914878,79.2883817 57.273044,79.3332602 C57.4571761,79.3622186 57.6380362,79.4091083 57.813044,79.4732602 C57.813044,79.4732602 57.633044,79.4032602 57.603044,79.3432602 C57.723044,79.3432602 57.763044,79.3432602 57.823044,79.3432602 C57.883044,79.3432602 57.883044,79.4132602 57.953044,79.4432602 C58.0119207,79.4663063 58.0612643,79.5086009 58.093044,79.5632602 L58.143044,79.5632602 L58.143044,79.5632602 L58.283044,79.6332602 L58.353044,79.6332602 L58.353044,79.6332602 L58.593044,79.8432602 C58.6480318,79.8960368 58.7083559,79.9429555 58.773044,79.9832602 L58.893044,80.0732602 C58.958925,80.1032693 59.0145552,80.1519458 59.053044,80.2132602 C59.053044,80.2132602 59.053044,80.1432602 59.053044,80.2132602 C59.053044,80.2832602 59.193044,80.3232602 59.173044,80.3732602 L59.263044,80.4932602 C59.263044,80.4932602 59.323044,80.5632602 59.323044,80.4932602 C59.323044,80.4232602 59.403044,80.7032602 59.323044,80.6132602 C59.3331486,80.6666719 59.3535255,80.7176141 59.383044,80.7632602 L59.383044,80.6832602 C59.473044,80.8732602 59.453044,80.9932602 59.513044,81.1132602 L59.513044,81.0332602 C59.5503111,81.1194023 59.5503111,81.2171181 59.513044,81.3032602 L59.513044,81.1832602 C59.5230538,81.3431037 59.5230538,81.5034168 59.513044,81.6632602 L59.513044,81.6032602 C59.509977,81.8701578 59.43013,82.1305285 59.283044,82.3532602 C59.283044,82.4232602 59.183044,82.4932602 59.133044,82.5732602 L58.963044,82.7632602 L58.683044,83.0632602 L58.803044,83.0032602 L58.653044,83.1832602 C58.653044,83.1832602 58.653044,83.0232602 58.653044,83.0132602 L57.303044,84.2432602 L56.493044,84.9832602 L56.323044,85.1332602 L56.193044,85.2432602 L56.013044,85.3632602 C55.873044,85.4332602 55.953044,85.3632602 55.953044,85.3632602 C55.953044,85.3632602 55.953044,85.4332602 55.773044,85.5132602 C55.593044,85.5932602 55.773044,85.5132602 55.773044,85.4632602 C55.773044,85.4132602 55.653044,85.5232602 55.653044,85.5332602 C55.653044,85.5432602 55.723044,85.5332602 55.773044,85.5332602 C55.7117134,85.5673176 55.6482481,85.5973801 55.583044,85.6232602 L55.583044,85.6232602 L55.503044,85.6932602 C55.4431085,85.7386321 55.3753028,85.772535 55.303044,85.7932602 C54.9467498,85.881133 54.5776514,85.9048365 54.213044,85.8632602 C54.213044,85.8632602 54.293044,85.8632602 54.363044,85.8632602 C54.3101389,85.8728178 54.2559491,85.8728178 54.203044,85.8632602 C54.283044,85.8632602 54.053044,85.8632602 54.123044,85.8632602 C53.8437075,85.8499168 53.5691776,85.7855209 53.313044,85.6732602 C53.1528573,85.8140991 52.9786068,85.9380851 52.793044,86.0432602 C52.663044,86.1232602 52.513044,86.1932602 52.403044,86.2532602 L52.203044,86.3532602 L52.013044,86.2032602 C52.0897678,86.2875954 52.177173,86.3615536 52.273044,86.4232602 L52.273044,86.4232602 C52.493044,86.5432602 52.273044,86.4232602 52.523044,86.5932602 C52.523044,86.5932602 52.313044,86.5232602 52.153044,86.4032602 C52.2579752,86.5061874 52.3843062,86.5847175 52.523044,86.6332602 C52.663044,86.7332602 52.523044,86.6332602 52.653044,86.7732602 C52.783044,86.9132602 52.973044,86.8732602 53.123044,86.9432602 L53.123044,86.9432602 C53.446097,87.0521142 53.7825795,87.1160459 54.123044,87.1332602 L54.123044,87.1332602 C54.3259412,87.1520935 54.5301468,87.1520935 54.733044,87.1332602 C54.663044,87.1332602 54.613044,87.1332602 54.733044,87.1332602 C54.9461758,87.1463756 55.1599122,87.1463756 55.373044,87.1332602 L55.553044,87.0632602 C55.9046571,86.9715357 56.2413837,86.8301105 56.553044,86.6432602 L57.003044,86.4432602 L57.163044,86.3132602 L57.313044,86.1832602 L57.823044,85.7132602 L59.483044,84.1932602 L59.493044,84.1832602 Z" id="Path" fill="#373735"></path>
                <path d="M50.573044,38.0232602 C50.5803928,38.0706624 50.6053993,38.1135306 50.643044,38.1432602 C50.643044,38.0932602 50.603044,38.0632602 50.573044,38.0232602 Z" id="Path" fill="#373735"></path>
                <polygon id="Path" fill="#373735" points="50.573044 38.0232602 50.573044 38.0232602 50.573044 38.0332602"></polygon>
                <path d="M43.143044,33.0632602 L43.143044,33.0632602 C43.203044,33.0632602 43.143044,33.0632602 43.143044,33.1432602 C43.143044,33.2232602 43.073044,33.1432602 43.023044,33.0932602 C42.973044,33.0432602 43.083044,33.1832602 43.123044,33.1732602 C43.163044,33.1632602 43.123044,33.1732602 43.123044,33.2432602 C43.123044,33.3132602 43.223044,33.2432602 43.243044,33.3232602 L43.243044,33.3232602 C43.313044,33.4232602 43.413044,33.4032602 43.463044,33.4932602 L43.463044,33.4932602 C43.463044,33.4932602 43.543044,33.5632602 43.583044,33.6232602 C43.623044,33.6832602 43.583044,33.6232602 43.583044,33.6232602 C43.583044,33.6232602 43.683044,33.7132602 43.703044,33.7632602 L43.763044,33.7632602 C43.953044,33.9432602 44.763044,34.6232602 44.963044,34.7632602 L44.963044,34.7632602 C45.273044,35.0332602 45.883044,35.5932602 46.223044,35.8532602 C46.2647202,35.9167603 46.3152273,35.9740017 46.373044,36.0232602 C46.373044,36.0232602 46.373044,36.0232602 46.373044,36.0232602 C46.373044,36.0232602 46.373044,36.0232602 46.563044,36.1432602 C46.9169294,36.4553875 47.2509167,36.7893748 47.563044,37.1432602 C47.683044,37.1432602 47.763044,37.3132602 47.873044,37.3632602 L47.873044,37.3632602 C47.973044,37.4332602 48.453044,37.9332602 48.563044,38.0132602 L48.563044,38.0132602 C48.673044,38.0732602 48.623044,38.1032602 48.683044,38.1832602 C48.743044,38.2632602 48.813044,38.1832602 48.843044,38.1832602 L48.843044,38.1832602 C48.9324153,38.2284184 49.0192151,38.2784952 49.103044,38.3332602 L49.103044,38.3332602 C49.1875691,38.3864299 49.2648749,38.4502912 49.333044,38.5232602 C49.4442174,38.6645265 49.5717777,38.7920868 49.713044,38.9032602 L49.713044,39.0432602 L49.713044,39.0432602 C49.713044,39.0432602 50.523044,38.4432602 50.483044,38.1232602 L50.483044,38.1232602 L50.483044,38.1232602 C50.483044,38.1232602 50.403044,38.1232602 50.483044,38.0532602 L50.483044,38.1132602 C50.483044,38.1132602 50.483044,38.1132602 50.483044,38.1132602 L50.483044,38.1132602 C50.483044,38.1132602 50.483044,38.1132602 50.483044,38.1132602 C50.483044,38.1132602 50.403044,38.1132602 50.383044,38.0532602 C50.363044,37.9932602 50.383044,38.0532602 50.383044,37.9732602 C50.123044,37.7132602 49.893044,37.4432602 49.613044,37.2032602 L49.613044,37.2032602 L49.373044,37.0032602 C49.373044,37.0032602 49.373044,37.0032602 49.373044,36.9432602 C49.2287158,36.7932036 49.1043555,36.6251492 49.003044,36.4432602 L49.003044,36.4432602 C48.923044,36.3732602 49.003044,36.3732602 48.933044,36.3132602 C48.863044,36.2532602 48.813044,36.2032602 48.763044,36.2032602 C48.713044,36.2032602 48.763044,36.2032602 48.763044,36.1532602 C48.763044,36.1032602 48.763044,36.1532602 48.693044,36.1532602 C48.623044,36.1532602 48.693044,36.1532602 48.693044,36.1532602 L48.633044,36.1532602 C48.633044,36.1532602 48.633044,36.1032602 48.633044,36.1532602 C48.503044,36.0232602 47.873044,35.3932602 47.713044,35.2732602 C47.713044,35.2732602 47.713044,35.3332602 47.713044,35.3832602 C47.713044,35.4332602 47.713044,35.3232602 47.623044,35.3832602 C47.533044,35.4432602 47.553044,35.2932602 47.573044,35.2132602 L47.573044,35.2132602 L47.573044,35.2132602 C47.383044,35.0832602 47.523044,35.2132602 47.383044,35.0432602 C47.243044,34.8732602 47.213044,34.9732602 47.173044,34.9132602 C47.133044,34.8532602 47.173044,34.9132602 47.173044,34.9132602 C47.173044,34.9132602 47.093044,34.9132602 47.113044,34.8332602 C47.133044,34.7532602 47.013044,34.7532602 47.003044,34.8332602 C46.993044,34.9132602 47.003044,34.7332602 47.003044,34.7532602 C47.003044,34.7732602 47.003044,34.7032602 46.943044,34.7032602 L46.943044,34.7032602 C46.863044,34.6432602 46.853044,34.5832602 46.773044,34.5632602 L46.773044,34.5632602 C46.773044,34.5632602 46.693044,34.4932602 46.703044,34.4432602 L46.763044,34.4432602 C46.7012676,34.3899703 46.63426,34.343065 46.563044,34.3032602 L46.563044,34.3032602 C46.453044,34.3032602 46.023044,33.9232602 45.913044,33.9032602 L45.913044,33.9632602 L45.833044,33.9632602 C45.833044,33.9632602 45.943044,33.8932602 45.933044,33.9632602 C45.923044,34.0332602 45.103044,33.2332602 44.993044,33.1032602 C44.883044,32.9732602 44.993044,33.0532602 44.993044,33.0532602 C44.993044,33.0532602 44.943044,33.0532602 44.893044,33.0532602 C44.843044,33.0532602 44.893044,33.0532602 44.893044,33.0532602 C44.893044,33.0532602 44.893044,33.0032602 44.843044,33.0532602 C44.793044,33.1032602 44.843044,33.0532602 44.843044,33.1432602 L44.783044,33.0732602 L44.783044,33.0732602 C44.783044,33.0732602 44.693044,33.0732602 44.633044,33.0732602 C44.573044,33.0732602 44.413044,32.8632602 44.313044,32.7632602 C44.213044,32.6632602 44.313044,32.7632602 44.383044,32.7632602 C44.453044,32.7632602 44.383044,32.7632602 44.383044,32.7632602 C44.383044,32.7632602 44.323044,32.7632602 44.383044,32.7632602 C44.443044,32.7632602 44.193044,32.6032602 44.093044,32.5732602 C43.993044,32.5432602 43.203044,33.2332602 43.153044,33.2932602 L43.153044,33.2332602 C43.153044,33.2332602 43.113044,33.0532602 43.143044,33.0632602 Z" id="Path" fill="#373735"></path>
                <path d="M65.693044,39.0132602 C65.6547864,38.9965632 65.6113016,38.9965632 65.573044,39.0132602 C65.6124968,39.0226173 65.6535912,39.0226173 65.693044,39.0132602 L65.693044,39.0132602 Z" id="Path" fill="#373735"></path>
                <polygon id="Path" fill="#373735" points="65.693044 39.0132602 65.693044 39.0032602 65.693044 39.0132602"></polygon>
                <path d="M65.613044,38.9832602 L65.613044,38.9832602 L65.613044,38.9832602 C65.613044,38.9832602 65.613044,38.9132602 65.683044,38.9332602 L65.623044,38.9832602 C65.623044,38.9832602 65.623044,38.9832602 65.623044,38.9832602 L65.683044,38.9832602 L65.683044,38.9832602 C65.683044,38.9832602 65.683044,38.9032602 65.743044,38.8932602 C65.803044,38.8832602 65.743044,38.8932602 65.833044,38.8932602 C66.113044,38.6632602 66.393044,38.4532602 66.663044,38.2032602 C66.663044,38.2032602 66.663044,38.2032602 66.663044,38.2032602 C66.663044,38.2032602 66.813044,38.0532602 66.873044,37.9732602 L67.003044,37.9732602 C67.1234809,37.8276257 67.2574094,37.6936971 67.403044,37.5732602 L67.403044,37.5732602 C67.483044,37.4932602 67.463044,37.5732602 67.533044,37.5132602 C67.603044,37.4532602 67.653044,37.4032602 67.653044,37.3532602 C67.653044,37.3032602 67.653044,37.3532602 67.713044,37.3532602 C67.773044,37.3532602 67.713044,37.3532602 67.713044,37.2832602 L67.713044,37.2832602 L67.713044,37.2232602 C67.713044,37.2232602 67.713044,37.2232602 67.713044,37.2232602 C68.0608156,36.9573653 68.3945952,36.6736526 68.713044,36.3732602 C68.713044,36.3732602 68.643044,36.4332602 68.593044,36.3732602 C68.543044,36.3132602 68.663044,36.3232602 68.663044,36.2932602 C68.663044,36.2632602 68.753044,36.2232602 68.833044,36.2932602 L68.833044,36.2932602 L68.833044,36.2932602 C68.973044,36.1032602 68.833044,36.2332602 69.013044,36.1032602 C69.193044,35.9732602 69.103044,35.9432602 69.173044,35.9132602 C69.243044,35.8832602 69.173044,35.9132602 69.173044,35.9132602 C69.173044,35.9132602 69.173044,35.8432602 69.253044,35.8632602 C69.333044,35.8832602 69.343044,35.7732602 69.253044,35.7632602 C69.163044,35.7532602 69.353044,35.7632602 69.333044,35.7632602 C69.313044,35.7632602 69.333044,35.7632602 69.393044,35.7632602 L69.393044,35.7632602 C69.463044,35.6932602 69.523044,35.6832602 69.543044,35.6032602 L69.543044,35.6032602 C69.543044,35.6032602 69.623044,35.5232602 69.673044,35.5432602 L69.673044,35.5432602 C69.7372776,35.4899716 69.7914639,35.4256254 69.833044,35.3532602 L69.833044,35.3532602 C69.833044,35.2532602 70.253044,34.8432602 70.283044,34.7432602 L70.223044,34.7432602 L70.223044,34.6632602 C70.223044,34.6632602 70.283044,34.7732602 70.223044,34.7732602 C70.163044,34.7732602 71.023044,34.0032602 71.153044,33.9132602 C71.283044,33.8232602 71.153044,33.9132602 71.153044,33.9132602 C71.153044,33.9132602 71.153044,33.8632602 71.213044,33.8232602 C71.273044,33.7832602 71.213044,33.8232602 71.213044,33.8232602 C71.213044,33.8232602 71.263044,33.8232602 71.213044,33.8232602 C71.163044,33.8232602 71.153044,33.8232602 71.123044,33.8232602 L71.193044,33.7632602 L71.193044,33.7632602 C71.193044,33.7632602 71.193044,33.6732602 71.253044,33.6232602 C71.313044,33.5732602 71.483044,33.4232602 71.593044,33.3232602 C71.6055483,33.3449183 71.6055483,33.3716021 71.593044,33.3932602 L71.653044,33.3932602 C71.653044,33.3932602 71.653044,33.3332602 71.653044,33.3432602 C71.653044,33.3532602 71.833044,33.1732602 71.873044,33.0732602 C71.913044,32.9732602 71.283044,32.1332602 71.233044,32.0732602 C71.183044,32.0132393 71.233044,32.0732602 71.293044,32.0732602 C71.353044,32.0732602 71.223044,32.0732602 71.203044,32.1332602 L71.203044,32.1332602 C71.153044,32.1932602 71.203044,32.1332602 71.123044,32.1332602 C71.043044,32.1332602 71.123044,32.0632602 71.183044,32.0232602 C71.243044,31.9832602 71.083044,32.0732602 71.093044,32.1132602 C71.103044,32.1532602 71.093044,32.1132602 71.023044,32.1132602 C70.953044,32.1132602 71.023044,32.2132602 70.933044,32.2332602 L70.933044,32.2332602 C70.833044,32.2832602 70.843044,32.3932602 70.743044,32.4332602 L70.743044,32.4332602 C70.743044,32.4332602 70.663044,32.5132602 70.603044,32.5432602 C70.543044,32.5732602 70.603044,32.5432602 70.603044,32.5432602 C70.603044,32.5432602 70.513044,32.6332602 70.453044,32.6532602 L70.453044,32.7132602 C70.253044,32.8932602 69.513044,33.6332602 69.313044,33.8232602 L69.313044,33.8232602 C69.023044,34.1032602 68.403044,34.6732602 68.123044,34.9832602 C68.0559056,35.020752 67.992311,35.0642641 67.933044,35.1132602 C67.933044,35.1132602 67.933044,35.1132602 67.933044,35.1132602 C67.933044,35.1132602 67.933044,35.1132602 67.793044,35.2932602 C67.476481,35.6145258 67.1426531,35.9183091 66.793044,36.2032602 C66.743044,36.3132602 66.613044,36.3832602 66.543044,36.4832602 L66.543044,36.4832602 C66.473044,36.5832602 65.933044,37.0132602 65.843044,37.1232602 L65.843044,37.1232602 C65.773044,37.2232602 65.753044,37.1732602 65.663044,37.2332602 C65.573044,37.2932602 65.663044,37.3532602 65.663044,37.3832602 L65.663044,37.3832602 C65.663044,37.4332602 65.553044,37.5532602 65.483044,37.6332602 L65.483044,37.6332602 C65.4233728,37.715801 65.3527216,37.7898165 65.273044,37.8532602 C65.122173,37.9482812 64.9843432,38.0625791 64.863044,38.1932602 L64.723044,38.1932602 L64.723044,38.1932602 C64.723044,38.1932602 65.293044,38.9932602 65.613044,38.9832602 Z" id="Path" fill="#373735"></path>
                <path d="M58.353044,38.4432602 C58.3324553,38.501494 58.3324553,38.5650265 58.353044,38.6232602 C58.3654478,38.5639013 58.3654478,38.5026192 58.353044,38.4432602 L58.353044,38.4432602 Z" id="Path" fill="#373735"></path>
                <path d="M56.923044,25.6832602 L56.923044,25.6832602 C56.923044,25.8532602 56.923044,25.9432602 56.923044,26.0932602 L56.923044,26.0932602 C56.923044,26.0932602 56.923044,26.2532602 56.923044,26.3532602 C56.923044,26.4532602 56.923044,26.2932602 56.923044,26.3532602 C56.923044,26.4132602 56.923044,26.5532602 56.923044,26.6332602 L56.923044,26.7132602 C56.923044,27.1032602 56.923044,28.7132602 56.923044,29.0732602 L56.923044,29.0732602 C56.923044,29.6832602 56.923044,30.9232602 56.983044,31.5532602 C56.9732667,31.663043 56.9732667,31.7734775 56.983044,31.8832602 C56.983044,31.8232602 56.983044,31.8832602 56.983044,31.8832602 C56.983044,32.1932602 56.983044,31.8832602 56.983044,32.2132602 C56.983044,32.5432602 56.983044,33.9432602 56.983044,34.2132602 C56.9979407,34.3962909 56.9979407,34.5802295 56.983044,34.7632602 L56.983044,34.7632602 C56.983044,34.9432602 56.983044,35.9532602 56.983044,36.1632602 L56.983044,36.1632602 C56.983044,36.3432602 56.983044,36.3132602 56.983044,36.4632602 C57.043044,36.4632602 57.073044,36.5932602 57.073044,36.6532602 L57.073044,36.6532602 C57.073044,36.7432602 57.073044,36.9432602 57.133044,37.0932602 L57.133044,37.0932602 C57.1473553,37.2395778 57.1473553,37.3869427 57.133044,37.5332602 C57.1069761,37.7959484 57.1069761,38.060572 57.133044,38.3232602 L57.053044,38.5032602 L57.053044,38.5032602 C57.053044,38.5032602 58.053044,38.7932602 58.263044,38.4332602 L58.263044,38.4332602 L58.263044,38.3632602 C58.263044,38.2832602 58.263044,38.2432602 58.263044,38.2432602 L58.263044,38.3632602 C58.263044,38.2732602 58.263044,38.3632602 58.263044,38.3632602 C58.2576322,38.3301465 58.2576322,38.2963739 58.263044,38.2632602 C58.263044,38.2632602 58.263044,38.2632602 58.263044,38.2632602 C58.2525365,38.2104444 58.2525365,38.156076 58.263044,38.1032602 C58.263044,38.0132602 58.313044,38.1032602 58.313044,37.9932602 C58.313044,37.4532602 58.373044,36.9332602 58.313044,36.3832602 C58.313044,36.3832602 58.313044,36.3832602 58.313044,36.3832602 C58.313044,36.2132602 58.313044,36.0732602 58.313044,35.9232602 C58.3118422,35.8999424 58.3118422,35.8765781 58.313044,35.8532602 C58.2924206,35.57364 58.2924206,35.2928805 58.313044,35.0132602 L58.313044,35.0132602 C58.313044,34.8532602 58.373044,35.0132602 58.313044,34.8232602 C58.253044,34.6332602 58.313044,34.5732602 58.313044,34.5232602 C58.313044,34.4732602 58.313044,34.4432602 58.313044,34.4532602 C58.313044,34.4632602 58.313044,34.3732602 58.313044,34.3332602 C58.313044,34.2932602 58.313044,34.3332602 58.313044,34.3332602 L58.313044,34.2332602 C58.313044,34.2332602 58.313044,34.1732602 58.313044,34.2332602 C58.313044,33.9532602 58.313044,32.6332602 58.313044,32.3332602 C58.313044,32.3332602 58.313044,32.4632602 58.253044,32.4932602 C58.193044,32.5232602 58.253044,32.3832602 58.253044,32.3432602 C58.253044,32.3032602 58.253044,32.1732602 58.343044,32.1132602 L58.343044,32.1132602 L58.343044,32.1132602 C58.3174483,31.9845201 58.3174483,31.8520003 58.343044,31.7232602 C58.343044,31.5432602 58.283044,31.4632602 58.343044,31.3632602 C58.403044,31.2632602 58.343044,31.3632602 58.343044,31.3632602 C58.343044,31.3632602 58.343044,31.2332602 58.343044,31.2132602 C58.343044,31.1932602 58.343044,31.0232602 58.293044,31.0732602 C58.243044,31.1232602 58.293044,30.9232602 58.343044,30.9932602 C58.3532053,30.9539055 58.3532053,30.9126149 58.343044,30.8732602 L58.343044,30.9332602 C58.343044,30.7832602 58.343044,30.7032602 58.343044,30.6132602 L58.343044,30.6632602 C58.343044,30.5732602 58.343044,30.5032602 58.343044,30.4632602 L58.343044,30.5532602 C58.3583169,30.4337462 58.3583169,30.3127743 58.343044,30.1932602 L58.343044,30.1932602 C58.343044,30.0332602 58.253044,29.1932602 58.203044,29.0732602 L58.203044,29.1432602 L58.203044,29.0132602 C58.203044,29.0132602 58.323044,29.0732602 58.313044,29.0832602 C58.313044,28.8232602 58.313044,27.4432602 58.313044,27.1932602 C58.313044,26.9432602 58.373044,27.1932602 58.373044,27.1932602 C58.373044,27.1932602 58.373044,27.1332602 58.373044,27.0332602 C58.373044,26.9332602 58.373044,27.0332602 58.373044,27.0332602 C58.373044,27.0332602 58.373044,26.9532602 58.373044,26.9432602 C58.373044,26.9332602 58.313044,26.9432602 58.283044,27.0032602 L58.283044,26.8732602 L58.283044,26.8732602 C58.283044,26.8732602 58.203044,26.8032602 58.213044,26.6732602 C58.223044,26.5432602 58.213044,26.2132602 58.213044,25.9932602 C58.213044,25.9932602 58.213044,25.9932602 58.213044,26.0932602 C58.2081152,26.0601091 58.2081152,26.0264114 58.213044,25.9932602 C58.213044,25.9932602 58.213044,25.9032602 58.213044,25.9432602 C58.133044,25.7832602 58.213044,25.5732602 58.153044,25.4332602 C58.093044,25.2932602 57.063044,25.1232602 56.993044,25.1232602 C56.9870434,25.0901969 56.9870434,25.0563235 56.993044,25.0232602 C56.993044,25.0232602 56.993044,25.1232602 56.993044,25.1732602 L56.993044,25.1732602 C56.993044,25.2832602 56.993044,25.1732602 56.993044,25.3032602 C56.993044,25.4332602 56.993044,25.2132602 56.993044,25.1332602 C56.993044,25.2032602 56.993044,25.2832602 56.993044,25.3132602 C56.993044,25.3432602 56.993044,25.3132602 56.933044,25.3932602 C56.959066,25.4887195 56.9555798,25.5898202 56.923044,25.6832602 Z" id="Path" fill="#373735"></path>
            </g>
        </g>
    </g>
</svg>