<?xml version="1.0" encoding="UTF-8"?>
<svg width="117px" height="117px" viewBox="0 0 117 117" version="1.1" xmlns="http://www.w3.org/2000/svg" xmlns:xlink="http://www.w3.org/1999/xlink">
    <title>2BFE790D-597C-45EC-BD5A-BA9409C40621</title>
    <g id="Desktop" stroke="none" stroke-width="1" fill="none" fill-rule="evenodd">
        <g id="0.0-Exportable-Items-Copy" transform="translate(-883.000000, -8547.000000)" fill-rule="nonzero">
            <g id="icon-independent-brands-small" transform="translate(883.307859, 8547.000000)">
                <circle id="Oval" fill="#FFFEF7" cx="58.2554519" cy="57.7844287" r="54.93"></circle>
                <path d="M12.1954519,22.8944287 C11.1401293,24.1324102 10.1584385,25.431314 9.25545195,26.7844287 C10.1154519,25.6744287 11.0654519,24.5144287 12.1954519,22.8944287 Z" id="Path" fill="#FFFEF8"></path>
                <path d="M18.6954519,24.7844287 L19.5854519,23.7844287 C19.2554519,24.1444287 18.9754519,24.4944287 18.6954519,24.7844287 Z" id="Path" fill="#FFFEF8"></path>
                <path d="M25.3854519,106.024429 L25.7454519,106.024429 L26.8154519,106.794429 L27.4754519,107.224429 C27.6697226,107.341204 27.8507778,107.478672 28.0154519,107.634429 C28.6815353,108.167772 29.4102634,108.61777 30.1854519,108.974429 C30.7323627,109.175335 31.2609779,109.422914 31.7654519,109.714429 C32.4154519,110.034429 33.1854519,110.354429 33.9354519,110.714429 C35.1173782,111.332497 36.3441821,111.860658 37.6054519,112.294429 C38.1852389,112.489849 38.7500595,112.72714 39.2954519,113.004429 C40.3677443,113.262975 41.420378,113.597144 42.4454519,114.004429 C42.8954519,114.094429 42.1454519,113.844429 41.8454519,113.684429 C42.7570678,113.961058 43.6856893,114.178182 44.6254519,114.334429 C45.7054519,114.644429 45.9554519,114.814429 44.7554519,114.564429 C45.6754519,114.754429 47.0054519,115.144429 48.7554519,115.424429 L51.5454519,115.794429 C52.6111001,115.967848 53.6865156,116.074722 54.7654519,116.114429 C57.2258528,116.284413 59.6950511,116.284413 62.1554519,116.114429 C64.8411998,115.957297 67.5136639,115.623239 70.1554519,115.114429 C71.4954519,114.834429 72.8154519,114.444429 74.1554519,114.114429 C74.8154519,113.934429 75.4754519,113.784429 76.1554519,113.584429 L77.9554519,112.784429 C79.1854519,112.314429 80.4254519,111.914429 81.5654519,111.404429 L84.8454519,109.834429 C87.9587813,108.274761 90.9070099,106.405316 93.6454519,104.254429 C92.7354519,104.764429 90.8154519,106.384429 89.8354519,106.624429 C90.2754519,106.324429 90.6654519,106.074429 91.0054519,105.854429 L91.8754519,105.204429 C92.3139567,104.903574 92.7285272,104.569243 93.1154519,104.204429 C93.9738893,103.776391 94.7793541,103.249482 95.5154519,102.634429 C96.3886055,101.867983 97.3033252,101.150229 98.2554519,100.484429 L98.5754519,99.9344287 L99.4354519,99.2944287 C100.104805,98.6409059 100.732694,97.9462206 101.315452,97.2144287 L102.315452,95.9644287 L103.095452,95.0444287 C103.235452,94.9044287 103.345452,94.7744287 103.785452,94.3044287 C104.225452,93.8344287 104.785452,92.9144287 106.065452,91.2344287 C107.179581,89.6927375 108.156642,88.0564946 108.985452,86.3444287 C109.685452,85.0144287 110.285452,83.9344287 110.835452,82.7044287 C110.665452,83.0744287 110.135452,83.9844287 110.595452,82.8344287 C110.835452,82.7044287 111.845452,79.7644287 112.235452,79.2744287 C112.705452,78.1444287 113.895452,74.3844287 113.235452,75.5944287 C113.395452,75.2944287 113.755452,74.3144287 114.015452,73.6544287 C114.275452,72.9944287 114.365452,72.6544287 114.135452,73.6544287 C114.465452,72.5144287 114.705452,71.3844287 114.865452,70.5444287 L114.465452,72.0244287 C114.865452,70.0244287 115.325452,68.5644287 115.465452,67.2044287 C115.605452,65.8444287 115.795452,64.6544287 115.865452,63.3544287 L115.695452,64.7844287 C115.805452,63.5944287 116.015452,62.5144287 116.035452,61.6044287 C116.054147,60.8921619 116.134447,60.1828491 116.275452,59.4844287 L116.275452,61.9544287 C116.275452,59.9544287 116.355452,58.3744287 116.395452,56.8544287 C116.435452,55.3344287 116.155452,53.9244287 115.995452,52.2744287 L116.065452,53.4544287 C116.065452,52.9344287 115.935452,52.1344287 115.825452,51.1244287 C115.715452,50.1144287 115.425452,48.9244287 115.175452,47.5944287 C115.045452,46.9244287 114.935452,46.2244287 114.775452,45.5044287 L114.155452,43.3044287 C113.766684,41.7678778 113.279001,40.2580635 112.695452,38.7844287 L111.825452,36.5244287 C111.558885,35.7849675 111.244899,35.0634698 110.885452,34.3644287 L108.885452,30.4844287 C107.505452,28.2144287 106.325452,26.4844287 105.775452,25.7044287 L106.555452,27.3044287 C105.972566,26.3729578 105.324269,25.4840555 104.615452,24.6444287 C104.845452,24.9544287 106.035452,25.5944287 106.135452,25.9344287 C105.695452,25.1544287 104.805452,24.1244287 103.795452,22.7544287 C103.265452,22.0944287 102.795452,21.3044287 102.065452,20.5544287 L99.8554519,18.1944287 L98.6654519,16.9144287 C98.2654519,16.4744287 97.7654519,16.1044287 97.3154519,15.6844287 L94.4254519,13.1544287 C93.4254519,12.3044287 92.2854519,11.5944287 91.2054519,10.7944287 L89.5554519,9.5944287 C88.9899437,9.23082677 88.4058132,8.89703792 87.8054519,8.5944287 L84.2554519,6.5944287 L80.6154519,4.9644287 C80.0254519,4.7044287 79.4354519,4.4244287 78.8454519,4.1944287 L77.0754519,3.6044287 L73.7154519,2.4244287 C71.5254519,1.9244287 69.5754519,1.4244287 67.9654519,1.1344287 L64.2554519,0.624428697 C61.6354519,0.204428697 63.8054519,0.304428697 63.8354519,0.274428697 C63.2993017,0.195332723 62.7570642,0.165208417 62.2154519,0.184428697 C62.0055899,0.173665535 61.795314,0.173665535 61.5854519,0.184428697 C60.9559875,0.221164583 60.3249164,0.221164583 59.6954519,0.184428697 C58.9554519,0.124428697 59.8554519,0.0544286968 60.2854519,0.0344286968 C59.4794384,-0.0114762323 58.6714655,-0.0114762323 57.8654519,0.0344286968 C59.3754519,0.134428697 58.7354519,0.324428697 59.3654519,0.484428697 C58.1969956,0.399432453 57.0239083,0.399432453 55.8554519,0.484428697 L56.0054519,0.344428697 C55.6154519,0.344428697 55.1254519,0.484428697 54.3054519,0.624428697 C53.8954519,0.694428697 53.4054519,0.764428697 52.7954519,0.834428697 L51.7954519,0.924428697 L50.6154519,1.1044287 C44.6695749,1.85698544 38.8866752,3.5763172 33.4954519,6.1944287 C34.2083389,5.7197388 34.9534821,5.29537472 35.7254519,4.9244287 C35.0154519,5.2644287 33.9454519,5.8044287 33.2654519,6.0644287 C34.6054519,5.5744287 31.0954519,7.2244287 32.1254519,6.7944287 C31.6654519,7.0744287 31.1254519,7.3244287 30.6854519,7.6144287 L29.2254519,8.6144287 L26.2254519,10.5044287 C25.2254519,11.1944287 24.3254519,11.9144287 23.4354519,12.5944287 C22.5918613,13.19487 21.7991796,13.8637998 21.0654519,14.5944287 C21.0654519,14.8244287 20.3854519,17.1444287 19.9054519,19.3044287 C19.8454519,19.5744287 19.7954519,19.8444287 19.7354519,20.1144287 C19.6754519,20.3844287 19.6554519,20.6644287 19.6254519,20.9344287 C19.5554519,21.4644287 19.5054519,21.9344287 19.4654519,22.3744287 C19.3916275,22.8582957 19.3916275,23.3505617 19.4654519,23.8344287 C18.7654519,24.6244287 18.0654519,25.4144287 17.8254519,25.6344287 C18.6611164,24.8372402 19.4428412,23.9853606 20.1654519,23.0844287 L20.1654519,22.7844287 C21.8254519,20.8444287 20.5754519,22.3544287 22.3754519,20.6444287 C22.4854519,20.6444287 22.1154519,21.0444287 21.5454519,21.6444287 L19.5854519,23.7844287 C20.1854519,23.1144287 20.7954519,22.4444287 21.3154519,21.8844287 C21.7592665,21.4915959 22.1706057,21.0635357 22.5454519,20.6044287 C23.8254519,19.5044287 22.5454519,20.8744287 24.0654519,19.5344287 C25.2213121,18.3124081 26.509191,17.2224064 27.9054519,16.2844287 L27.9054519,16.2844287 C29.5154519,15.0544287 30.9054519,14.2844287 32.1254519,13.4544287 C32.7468328,13.0119025 33.3947101,12.6078141 34.0654519,12.2444287 C34.7654519,11.8944287 35.5254519,11.5444287 36.3754519,11.1744287 L36.0354519,11.3944287 C36.6554519,11.1644287 37.4954519,10.6744287 38.5254519,10.2644287 C39.5554519,9.8544287 40.7154519,9.4444287 41.8354519,9.0744287 C41.1954519,9.2844287 40.6054519,9.3844287 41.9354519,8.8744287 C42.5295023,8.65964497 43.137599,8.48590305 43.7554519,8.3544287 L45.3654519,7.9344287 L46.8454519,7.5644287 C47.0954519,7.5044287 47.3254519,7.4344287 47.5654519,7.3944287 L48.2554519,7.3844287 L50.1154519,6.9244287 L52.2554519,6.5844287 C53.0454519,6.5044287 53.9454519,6.4744287 54.9154519,6.3944287 L56.4354519,6.2944287 C56.9813667,6.25387917 57.5295372,6.25387917 58.0754519,6.2944287 L61.6454519,6.3944287 C67.224527,6.77711623 72.7101136,8.02537394 77.9054519,10.0944287 C79.2454519,10.7044287 80.6154519,11.2444287 81.9054519,11.8944287 C83.1954519,12.5444287 84.4254519,13.3344287 85.6654519,14.0244287 C86.9054519,14.7144287 87.9654519,15.6344287 89.0854519,16.3944287 C89.6254519,16.7944287 90.2054519,17.1344287 90.6954519,17.5644287 C91.1854519,17.9944287 91.6954519,18.4244287 92.1454519,18.8344287 C93.0654519,19.6744287 94.0354519,20.4044287 94.8054519,21.2344287 C95.5754519,22.0644287 96.3054519,22.8344287 96.9754519,23.5544287 L97.9754519,24.5544287 L98.7454519,25.5544287 L100.025452,27.2244287 L99.7754519,26.9444287 C102.439128,30.4893552 104.618323,34.3735695 106.255452,38.4944287 C106.695452,39.6944287 107.155452,40.9144287 107.615452,42.1544287 C108.075452,43.3944287 108.305452,44.7444287 108.615452,46.0744287 C108.695452,46.4044287 108.795452,46.7244287 108.865452,47.0744287 L109.035452,48.0744287 C109.145452,48.7544287 109.265452,49.4444287 109.375452,50.1244287 C109.485452,50.8044287 109.635452,51.4944287 109.695452,52.1944287 L109.835452,54.2844287 L109.985452,56.3844287 C110.055452,57.0844287 109.985452,57.7844287 109.985452,58.4844287 C109.985452,59.1844287 109.985452,59.8744287 109.985452,60.5644287 C109.9926,61.2566742 109.949151,61.9485166 109.855452,62.6344287 C109.685452,64.0044287 109.525452,65.3544287 109.365452,66.6344287 C109.205452,67.9144287 108.795452,69.2344287 108.515452,70.4944287 C107.420961,74.9217433 105.739394,79.1828329 103.515452,83.1644287 C103.195452,83.6544287 102.855452,84.1644287 102.515452,84.7744287 L101.985452,85.6544287 L101.365452,86.4944287 L99.0154519,89.7844287 C99.8554519,88.7244287 99.6654519,89.1644287 99.0154519,90.0244287 C98.0966642,90.9751781 97.2319706,91.9767536 96.4254519,93.0244287 C96.3201212,93.2210192 96.1889572,93.4026309 96.0354519,93.5644287 C95.2970188,94.4237135 94.4947368,95.2259956 93.6354519,95.9644287 C92.630957,96.997695 91.5440359,97.9474968 90.3854519,98.8044287 L88.1354519,100.524429 C87.7276032,100.850809 87.2926982,101.141861 86.8354519,101.394429 L85.4454519,102.244429 L83.9854519,103.144429 L83.2354519,103.594429 L82.4254519,103.984429 L79.1054519,105.584429 C77.9554519,106.104429 76.7354519,106.484429 75.5354519,106.944429 C74.9254519,107.154429 74.3254519,107.414429 73.7054519,107.584429 L71.8154519,108.074429 C69.3477763,108.729325 66.838753,109.217098 64.3054519,109.534429 C63.0654519,109.634429 61.8554519,109.694429 60.6854519,109.764429 C60.0954519,109.764429 59.5154519,109.864429 58.9554519,109.854429 L57.2854519,109.794429 L54.2554519,109.784429 L51.5654519,109.424429 L49.3354519,109.114429 C48.6754519,108.984429 48.1154519,108.834429 47.6454519,108.724429 C46.6454519,108.544429 45.5454519,108.334429 44.4354519,108.104429 C43.3254519,107.874429 42.2554519,107.404429 41.1554519,107.044429 L39.5054519,106.504429 L37.9254519,105.784429 C36.9254519,105.334429 35.9254519,104.904429 34.9254519,104.524429 L35.3254519,104.644429 C34.5571886,104.31059 33.815099,103.919488 33.1054519,103.474429 C32.1054519,102.904429 30.9554519,102.304429 29.7054519,101.474429 L25.7054519,98.5844287 C24.4054519,97.4144287 23.0154519,96.2144287 21.7054519,94.9744287 C20.3954519,93.7344287 19.1854519,92.2944287 18.0454519,90.9744287 C16.9054519,89.6544287 15.9454519,88.2144287 15.0454519,86.9744287 L12.9054519,83.4644287 C12.6202175,83.0244706 12.3694684,82.5630923 12.1554519,82.0844287 C11.9454519,81.6744287 11.7754519,81.3244287 11.6354519,81.0844287 L11.9054519,81.7044287 C11.2574197,80.5381298 10.6829651,79.332443 10.1854519,78.0944287 C9.94545195,77.2844287 9.77545195,76.5844287 9.18545195,74.9444287 C9.18545195,75.1944287 8.75545195,74.4544287 8.35545195,73.4544287 C7.95545195,72.4544287 7.64545195,71.1744287 7.44545195,70.4544287 L7.51545195,70.4544287 C7.38545195,69.9244287 7.13545195,69.2444287 6.95545195,68.4544287 L6.42545195,65.7544287 C6.03935836,63.7850573 5.80202149,61.7894219 5.71545195,59.7844287 L5.85545195,59.9144287 C5.85545195,59.5344287 5.77545195,59.1244287 5.73545195,58.6744287 C5.69545195,58.2244287 5.73545195,57.7444287 5.73545195,57.2544287 C5.73545195,56.2544287 5.73545195,55.1944287 5.79545195,54.1644287 C5.95545195,52.0944287 6.28545195,50.1644287 6.39545195,49.0744287 C6.95923603,46.1274434 7.76188454,43.23122 8.79545195,40.4144287 C9.3646326,38.7950441 10.032552,37.2120752 10.7954519,35.6744287 C11.480384,34.1175254 12.2550174,32.6016479 13.1154519,31.1344287 C13.5354519,30.5544287 13.9054519,29.9444287 14.3554519,29.3844287 L15.7354519,27.7844287 L16.0654519,27.2544287 C16.1074081,26.0943908 15.9275216,24.937008 15.5354519,23.8444287 C14.9454519,22.5444287 13.5354519,21.9944287 10.3854519,25.6544287 L10.3854519,25.4544287 C10.0046687,25.9656063 9.65085315,26.4963297 9.32545195,27.0444287 C8.13545195,29.0444287 7.74545195,29.9944287 7.70545195,29.7944287 L9.25545195,27.1044287 C8.07545195,29.1044287 8.81545195,27.6444287 9.19545195,26.8444287 C8.70545195,27.6744287 8.19545195,28.4744287 7.80545195,29.1244287 C7.62545195,29.5444287 8.01545195,28.8544287 8.22545195,28.5644287 C7.94545195,29.1144287 7.59545195,29.7744287 7.22545195,30.4644287 L6.66545195,31.4644287 C6.48545195,31.8044287 6.34545195,32.1744287 6.16545195,32.4644287 C5.16545195,34.6144287 5.90545195,32.5144287 4.76545195,35.0344287 C-1.07921304,48.49797 -1.56563844,63.6844572 3.40545195,77.4944287 C3.47545195,77.8344287 3.33545195,77.4944287 3.16545195,77.0644287 C3.56545195,78.0644287 3.94545195,79.0644287 4.32545195,80.0644287 C4.70545195,81.0644287 5.22545195,81.9644287 5.65545195,82.8944287 L7.02545195,85.7844287 C7.55545195,86.6444287 8.09545195,87.4944287 8.63545195,88.3544287 C8.92569343,88.8763317 9.17962817,89.4176137 9.39545195,89.9744287 C9.55396337,90.1771628 9.69766841,90.3910493 9.82545195,90.6144287 C10.1554519,91.0744287 10.6954519,91.7444287 11.3154519,92.6144287 C11.9354519,93.4844287 12.6954519,94.4244287 13.5254519,95.4644287 L16.3754519,98.5244287 C17.3345465,99.5635411 18.3636165,100.535812 19.4554519,101.434429 C20.4554519,102.314429 21.4054519,103.204429 22.2954519,103.864429 L25.3854519,106.024429 Z" id="Path" fill="#FFFEF8"></path>
                <path d="M60.2554519,66.3644287 C59.8354519,66.6144287 59.4054519,66.8944287 58.8254519,67.2644287 C59.1954519,67.0744287 59.7654519,66.7144287 60.2554519,66.3644287 Z" id="Path" fill="#373835"></path>
                <path d="M57.1254519,66.4444287 L57.5654519,66.7144287 L57.1254519,66.4444287 Z" id="Path" fill="#373835"></path>
                <path d="M67.2554519,62.0744287 C66.9899624,61.9980708 66.7192388,61.9412523 66.4454519,61.9044287 C66.6054519,61.9544287 66.9254519,62.0144287 67.2554519,62.0744287 Z" id="Path" fill="#373835"></path>
                <path d="M39.2554519,72.7244287 C39.3726246,72.7910089 39.4966864,72.8446572 39.6254519,72.8844287 C39.509214,72.8159914 39.3849305,72.7622471 39.2554519,72.7244287 L39.2554519,72.7244287 Z" id="Path" fill="#373835"></path>
                <polygon id="Path" fill="#373835" points="69.9354519 59.0344287 69.9454519 59.0344287 69.9354519 59.0344287"></polygon>
                <path d="M86.1654519,64.7844287 L85.9154519,64.3744287 C85.9954519,64.5144287 85.9154519,64.4744287 85.9154519,64.3744287 C85.6554519,64.0144287 85.6354519,64.0144287 85.6154519,64.0044287 C85.503183,63.8965018 85.3963828,63.7830267 85.2954519,63.6644287 C84.6205732,62.9974867 83.868602,62.4133663 83.0554519,61.9244287 C82.284381,61.460553 81.4862934,61.0431432 80.6654519,60.6744287 C80.2354519,60.5344287 79.7254519,60.2944287 79.2954519,60.1744287 L79.2954519,60.1744287 C79.0654519,60.1044287 78.2954519,59.8244287 77.5654519,59.5844287 C76.8354519,59.3444287 76.0254519,59.1244287 75.7554519,59.0644287 L75.8254519,59.0644287 C75.5700562,59.0066096 75.3193539,58.9297276 75.0754519,58.8344287 C75.0754519,58.8944287 74.7054519,58.8344287 74.5554519,58.8344287 L74.5554519,58.8344287 L73.4154519,58.6344287 L73.4154519,58.6344287 C73.0954519,58.6344287 72.5054519,58.4644287 72.2754519,58.4244287 C71.8454519,58.3344287 71.2754519,58.1944287 70.6554519,58.1044287 L70.7854519,57.9744287 C71.0054519,57.7544287 71.2154519,57.5144287 71.4354519,57.2944287 C71.8754519,56.8444287 72.2854519,56.3544287 72.7054519,55.8844287 L73.3054519,55.1444287 C73.5054519,54.8944287 73.7054519,54.6444287 73.8954519,54.3844287 C73.9754519,54.2944287 73.8954519,54.3844287 73.8054519,54.5344287 C74.718109,53.3674148 75.537315,52.1302465 76.2554519,50.8344287 C76.4654519,50.5044287 76.5154519,50.4044287 76.5754519,50.3044287 C77.1371342,49.1699319 77.6085919,47.9929594 77.9854519,46.7844287 C78.2648741,45.8884586 78.4754861,44.9724636 78.6154519,44.0444287 C78.7254519,43.2644287 78.7554519,42.7344287 78.7554519,42.6944287 L78.7554519,42.5944287 C78.7554519,41.8144287 78.7554519,41.7044287 78.7554519,41.5944287 C78.7870481,41.2919182 78.7870481,40.9869392 78.7554519,40.6844287 C78.7554519,40.4044287 78.6354519,39.8044287 78.5154519,39.2144287 C78.4611249,38.9265133 78.387628,38.6425479 78.2954519,38.3644287 C78.2765438,38.2995517 78.2531542,38.2360657 78.2254519,38.1744287 L78.2254519,38.0344287 L78.0654519,37.7844287 C78.0684885,37.7511645 78.0684885,37.7176929 78.0654519,37.6844287 L77.9954519,37.4744287 C77.9508429,37.3775225 77.9140589,37.2772024 77.8854519,37.1744287 C77.8043528,37.0283515 77.7309199,36.8781478 77.6654519,36.7244287 C77.5754519,36.5344287 77.4754519,36.3144287 77.3654519,36.1144287 C77.2554519,35.9144287 77.4154519,36.2244287 77.4554519,36.3444287 C77.3854519,36.1944287 77.2954519,36.0444287 77.2154519,35.8944287 C77.1354519,35.7444287 77.0454519,35.5944287 76.9454519,35.4544287 C76.7454519,35.1144287 76.7054519,35.0144287 76.9454519,35.3844287 C75.8556312,33.5892553 74.3455717,32.0860597 72.5454519,31.0044287 C71.7094136,30.5020345 70.8207596,30.0929183 69.8954519,29.7844287 C69.4317993,29.6162241 68.9574051,29.4792511 68.4754519,29.3744287 L68.2954519,29.3744287 L68.1954519,29.3744287 L68.0754519,29.3744287 L67.7154519,29.3744287 L67.0054519,29.3144287 L65.6254519,29.3144287 C65.1754519,29.3644287 64.7354519,29.3944287 64.3254519,29.4544287 C63.0958554,29.6505211 61.9004952,30.0209144 60.7754519,30.5544287 L61.5254519,30.2444287 C61.8254519,30.1444287 62.1154519,30.0444287 62.2754519,30.0044287 C61.9254519,30.1544287 61.6554519,30.2344287 61.4454519,30.3144287 C61.2354519,30.3944287 61.0754519,30.4744287 60.9254519,30.5544287 C60.7979319,30.5891761 60.674033,30.6360568 60.5554519,30.6944287 L59.9954519,30.9744287 C59.5954519,31.1844287 59.1754519,31.4344287 58.9154519,31.5744287 L58.7554519,31.7244287 L58.4354519,31.9344287 C58.1154519,32.1744287 57.8654519,32.3844287 57.6754519,32.5444287 L57.4254519,32.7644287 L57.4254519,32.7644287 L57.4254519,32.7644287 L57.4254519,32.7644287 L57.4254519,32.7644287 L57.4254519,32.7644287 L57.2554519,32.5844287 L56.9654519,32.3344287 C56.8554519,32.2344287 56.7054519,32.1444287 56.5554519,32.0244287 C56.0041351,31.6312975 55.4260653,31.2771044 54.8254519,30.9644287 L54.1354519,30.6444287 L53.8154519,30.4944287 L53.5254519,30.3744287 C53.6654519,30.4344287 53.9354519,30.5644287 53.5254519,30.3744287 C53.330212,30.2830071 53.129882,30.2028751 52.9254519,30.1344287 C52.6254519,30.0344287 52.3054519,29.9444287 52.2054519,29.8944287 C51.876638,29.7939597 51.5428614,29.7105156 51.2054519,29.6444287 C51.0810268,29.6102421 50.9538915,29.5868225 50.8254519,29.5744287 C50.7454519,29.5744287 50.7454519,29.5744287 50.8254519,29.5744287 L50.0954519,29.4244287 C49.8454519,29.4244287 49.7254519,29.3644287 50.0954519,29.4244287 C49.6754519,29.3744287 49.2654519,29.3144287 48.9654519,29.3044287 L49.5054519,29.3644287 L48.9954519,29.3644287 L48.5454519,29.3644287 C48.2554519,29.3644287 47.9954519,29.3644287 47.7454519,29.3644287 L47.0354519,29.3644287 C46.8054519,29.3644287 46.5954519,29.3644287 46.3254519,29.4744287 L46.8854519,29.4144287 L46.5654519,29.4144287 L46.4054519,29.4144287 L46.2454519,29.4144287 L45.7254519,29.5344287 C45.3954519,29.6044287 45.1554519,29.6844287 44.9854519,29.7044287 C45.2654519,29.6144287 45.5454519,29.5244287 45.8254519,29.4644287 C45.2351269,29.601647 44.6566394,29.7855592 44.0954519,30.0144287 C43.5828351,30.2160573 43.0849528,30.4533032 42.6054519,30.7244287 L42.9854519,30.5244287 C42.3761608,30.8977024 41.797655,31.319042 41.2554519,31.7844287 C40.3722536,32.454425 39.5878752,33.2455362 38.9254519,34.1344287 C38.2545062,35.0090822 37.6936328,35.9629028 37.2554519,36.9744287 C36.9895189,37.6001058 36.7722085,38.2453502 36.6054519,38.9044287 C36.6754519,38.7044287 36.7454519,38.5044287 36.8254519,38.3144287 C36.7043635,38.688564 36.6042084,39.0691534 36.5254519,39.4544287 C36.5254519,39.3144287 36.5254519,38.8744287 36.6054519,38.7644287 C36.5254519,39.0644287 36.3954519,39.5344287 36.2854519,40.1344287 C36.2854519,40.2844287 36.2854519,40.4444287 36.2054519,40.6244287 C36.1254519,40.8044287 36.2054519,40.9644287 36.2054519,41.1544287 C36.1952956,41.3409572 36.1952956,41.5279002 36.2054519,41.7144287 C36.2054519,41.9144287 36.2054519,42.1044287 36.2054519,42.3144287 C36.2362639,43.199801 36.3500963,44.0803282 36.5454519,44.9444287 C36.7573871,45.8795598 37.0450013,46.7959119 37.4054519,47.6844287 C38.1055578,49.3521961 38.9804437,50.9410695 40.0154519,52.4244287 C40.9054519,53.7244287 41.6954519,54.6844287 42.0154519,55.1244287 C42.5954519,55.8444287 42.0754519,55.2844287 42.0654519,55.2844287 C42.8054519,56.1244287 42.4054519,55.6344287 43.0654519,56.3444287 C43.2354519,56.5444287 43.0154519,56.3444287 42.9154519,56.2144287 C43.1954519,56.5244287 43.4454519,56.8244287 43.4754519,56.8344287 C43.1354519,56.4444287 43.3154519,56.5744287 43.1854519,56.3944287 C43.4554519,56.7044287 43.7354519,57.0044287 44.0154519,57.2944287 L44.0154519,57.2944287 C44.1554519,57.4544287 44.3954519,57.6444287 44.8954519,58.1344287 L44.8454519,58.1344287 C44.4554519,58.1344287 44.2754519,58.2844287 43.9254519,58.3244287 L43.9254519,58.3244287 C43.7954519,58.3244287 43.5654519,58.4044287 43.3454519,58.4344287 C43.4054519,58.4344287 43.4654519,58.4344287 43.3454519,58.4344287 C43.2254519,58.4344287 42.9254519,58.5244287 42.7354519,58.5444287 L42.5754519,58.6144287 C42.1354519,58.7044287 41.0654519,58.9744287 40.0054519,59.2944287 C38.9454519,59.6144287 37.9054519,60.0044287 37.4954519,60.1644287 L37.4954519,60.1644287 C36.6210464,60.4990143 35.7663382,60.8829652 34.9354519,61.3144287 C34.0791054,61.7554182 33.2713563,62.2849798 32.5254519,62.8944287 L32.2154519,63.1344287 L31.9254519,63.3944287 C32.0254519,63.3144287 32.0054519,63.3944287 31.9254519,63.3944287 C31.6554519,63.6544287 31.6554519,63.6744287 31.6554519,63.6844287 C31.5785114,63.795939 31.4950318,63.9027929 31.4054519,64.0044287 L31.2854519,64.1544287 L31.1454519,64.3544287 C31.0290635,64.5215881 30.9222261,64.6951989 30.8254519,64.8744287 C30.5701227,65.3315888 30.4070381,65.834433 30.3454519,66.3544287 C30.2855392,66.8758917 30.3366591,67.4041307 30.4954519,67.9044287 C30.5973468,68.2286216 30.7348526,68.5405249 30.9054519,68.8344287 C31.1533903,69.2116582 31.438116,69.5633782 31.7554519,69.8844287 L31.7554519,69.8844287 C32.136441,70.2761847 32.5477145,70.6373029 32.9854519,70.9644287 C33.4228576,71.2977246 33.8840919,71.5985295 34.3654519,71.8644287 L34.2554519,71.7844287 C34.4618318,71.8877329 34.6591894,72.0081544 34.8454519,72.1444287 C34.8454519,72.0844287 35.1554519,72.2244287 35.2754519,72.2844287 L35.2754519,72.2844287 C35.4654519,72.3744287 35.9054519,72.5344287 36.2154519,72.6644287 L36.2154519,72.6644287 C36.4854519,72.7444287 36.9654519,72.9644287 37.1554519,73.0344287 C37.6944324,73.2776583 38.2489888,73.4847818 38.8154519,73.6544287 L39.1754519,73.8444287 L39.1754519,73.8444287 C39.3137798,73.7395746 39.4323016,73.6108938 39.5254519,73.4644287 C39.6109932,73.3523732 39.6404292,73.2072807 39.6053208,73.0707481 C39.5702124,72.9342156 39.4744368,72.8213204 39.3454519,72.7644287 L39.3454519,72.7644287 L39.2554519,72.7844287 C39.0754519,72.7044287 38.9854519,72.7044287 39.0054519,72.6844287 L39.2554519,72.7844287 C39.0854519,72.7144287 39.2554519,72.7844287 39.2554519,72.7844287 L39.0554519,72.7044287 C39.0554519,72.7044287 39.0554519,72.7044287 39.0554519,72.7044287 C38.9327903,72.6863101 38.8122092,72.6561649 38.6954519,72.6144287 C38.5254519,72.5444287 38.6954519,72.6144287 38.4954519,72.4944287 C37.4116649,72.0879374 36.3531148,71.6170997 35.3254519,71.0844287 C35.3254519,71.0844287 35.3254519,71.0844287 35.3254519,71.0844287 C35.0054519,70.9344287 34.7354519,70.7744287 34.4654519,70.6244287 C34.3954519,70.5644287 34.3754519,70.5444287 34.3654519,70.5144287 C34.1142547,70.3831363 33.8735428,70.2326914 33.6454519,70.0644287 L33.2554519,69.6644287 L33.0354519,69.4744287 L33.0354519,69.4744287 C32.7954519,69.2544287 33.0354519,69.3744287 32.7754519,69.1644287 C32.6354519,69.1644287 32.4454519,68.8044287 32.3554519,68.7444287 C32.2654519,68.6844287 32.2754519,68.6344287 32.2954519,68.6244287 C32.3154519,68.6144287 32.1954519,68.5144287 32.1354519,68.4444287 C32.0754519,68.3744287 32.1354519,68.4444287 32.1354519,68.4444287 L32.0154519,68.2844287 C32.0154519,68.2144287 32.0154519,68.1844287 32.0154519,68.2844287 C31.8958662,68.0878252 31.7954065,67.8802086 31.7154519,67.6644287 C31.5923909,67.345843 31.5345807,67.0057829 31.5454519,66.6644287 C31.5551936,66.3191602 31.6333708,65.9792592 31.7754519,65.6644287 C31.8714078,65.4486969 31.9851328,65.241316 32.1154519,65.0444287 C32.0454519,65.0444287 31.9754519,65.2444287 31.9054519,65.2744287 C31.9654519,65.1344287 32.0254519,65.0944287 32.0454519,65.0244287 C32.0654519,64.9544287 32.2454519,64.7544287 32.3754519,64.7144287 L32.3754519,64.7844287 L32.4354519,64.7844287 L32.7054519,64.4744287 C32.7054519,64.4744287 32.7054519,64.4744287 32.9754519,64.2344287 C33.1415178,64.0467067 33.3257484,63.8758747 33.5254519,63.7244287 C33.5254519,63.7244287 33.4154519,63.7244287 33.5254519,63.7244287 C33.6354519,63.7244287 33.7154519,63.5444287 33.7754519,63.5444287 C33.8354519,63.5444287 34.1054519,63.3144287 33.9954519,63.3444287 C33.9954519,63.3444287 34.2854519,63.1844287 34.1654519,63.3444287 C34.2354519,63.2944287 34.3154519,63.2544287 34.3754519,63.2044287 L34.2654519,63.2644287 C34.4660799,63.1492618 34.6597487,63.0223754 34.8454519,62.8844287 L34.7354519,62.8844287 C34.8508791,62.7968877 34.9839485,62.735471 35.1254519,62.7044287 L34.9554519,62.8144287 C35.2354519,62.6644287 35.3954519,62.5644287 35.6254519,62.4244287 L35.5454519,62.4244287 C35.8764109,62.1917961 36.2202963,61.9781197 36.5754519,61.7844287 L37.2454519,61.4644287 C37.4354519,61.3744287 37.5954519,61.3044287 37.6554519,61.2644287 L37.5154519,61.2644287 L37.7554519,61.1444287 C37.7554519,61.1444287 37.6754519,61.2844287 37.6454519,61.2844287 C37.9154519,61.1744287 38.7554519,60.8544287 39.6454519,60.5844287 C40.5354519,60.3144287 41.3554519,60.0844287 41.6454519,60.0244287 C41.9354519,59.9644287 41.6954519,60.0244287 41.6954519,60.0244287 C41.7988197,59.9787882 41.9058694,59.9419899 42.0154519,59.9144287 C42.0754519,59.9144287 42.0154519,59.9144287 42.0154519,59.9144287 C42.0154519,59.9144287 42.1954519,59.9144287 42.2054519,59.8544287 C42.2154519,59.7944287 42.1254519,59.8544287 42.0654519,59.8544287 L42.3454519,59.7944287 L42.3454519,59.7944287 C42.4823991,59.7277201 42.6267266,59.6773733 42.7754519,59.6444287 C43.2454519,59.5444287 43.7754519,59.4244287 44.2254519,59.3344287 L44.0254519,59.4044287 L44.2454519,59.4044287 C44.1254519,59.4044287 44.4354519,59.3444287 44.3454519,59.3444287 C44.6854519,59.2144287 45.1454519,59.1944287 45.4454519,59.0844287 C45.4454519,59.0844287 45.5154519,58.9144287 45.5954519,58.7344287 C46.4054519,59.5244287 47.2654519,60.3144287 48.1454519,61.0844287 C48.065663,61.0958913 47.9880984,61.1194979 47.9154519,61.1544287 C47.5854519,61.2144287 47.9154519,61.1544287 47.5454519,61.1544287 C47.1754519,61.1544287 46.9154519,61.3444287 46.5454519,61.4244287 L46.5454519,61.4244287 C45.7654519,61.6144287 45.3854519,61.8144287 44.6854519,62.0444287 L44.7554519,62.0444287 C44.5054519,62.1244287 44.0354519,62.3244287 43.5954519,62.5044287 C43.7154519,62.5044287 43.8354519,62.4244287 43.5954519,62.5044287 C43.188197,62.678975 42.7909219,62.8759433 42.4054519,63.0944287 C42.2946565,63.1687703 42.1878427,63.2488807 42.0854519,63.3344287 C41.7994757,63.5156321 41.5285957,63.7196281 41.2754519,63.9444287 C40.8530154,64.2904069 40.5058877,64.7192117 40.2554519,65.2044287 C40.102572,65.4940217 40.0042694,65.8092678 39.9654519,66.1344287 C39.9453803,66.3105253 39.9453803,66.4883321 39.9654519,66.6644287 C39.9833927,66.8403708 40.0168564,67.0143818 40.0654519,67.1844287 C40.291336,67.8071043 40.6777037,68.3590581 41.1854519,68.7844287 C41.6420476,69.1739027 42.1420136,69.5094503 42.6754519,69.7844287 C43.1480006,70.0402504 43.635553,70.2673296 44.1354519,70.4644287 C45.0654519,70.8344287 45.8454519,71.0644287 46.2954519,71.1944287 L46.2554519,71.1944287 C46.9454519,71.3844287 47.8154519,71.6044287 48.7854519,71.7944287 C49.7554519,71.9844287 50.7854519,72.1644287 51.8954519,72.2944287 C53.8133362,72.5282775 55.7433728,72.6484874 57.6754519,72.6544287 C58.1154519,72.6544287 58.7354519,72.6544287 59.2054519,72.6544287 C58.9454519,72.6544287 59.0354519,72.6544287 59.2054519,72.6544287 C60.6254519,72.6544287 59.2954519,72.6544287 60.7454519,72.5844287 C61.5754519,72.5844287 63.5754519,72.4244287 65.5454519,72.1644287 C67.1040476,71.9625452 68.649883,71.6720751 70.1754519,71.2944287 C70.9354519,71.0444287 71.8954519,70.7744287 72.6254519,70.4544287 L72.5554519,70.4544287 L73.0154519,70.2644287 C73.2054519,70.1744287 73.4554519,70.0744287 73.7154519,69.9344287 C74.3456884,69.6449453 74.9397555,69.2824637 75.4854519,68.8544287 C75.7879556,68.6119112 76.0629345,68.3369323 76.3054519,68.0344287 C76.543964,67.7377405 76.7238308,67.3983691 76.8354519,67.0344287 L76.8954519,66.7644287 C76.9003544,66.6778314 76.9003544,66.591026 76.8954519,66.5044287 C76.9050868,66.4247188 76.9050868,66.3441386 76.8954519,66.2644287 C76.900675,66.187851 76.900675,66.1110064 76.8954519,66.0344287 L76.8954519,65.8344287 C76.8848256,65.7761577 76.8680657,65.719174 76.8454519,65.6644287 C76.8217413,65.5757112 76.7916632,65.4888191 76.7554519,65.4044287 L76.7554519,65.5544287 C76.6488657,65.2847291 76.5148273,65.0267053 76.3554519,64.7844287 L76.1954519,64.5544287 C76.1060004,64.438292 76.0091316,64.3280619 75.9054519,64.2244287 C75.9054519,64.2244287 75.7854519,64.1644287 75.6154519,64.0244287 L75.3354519,63.8244287 L75.0954519,63.6544287 L75.0954519,63.6544287 C74.4964642,63.2655187 73.8639538,62.9308571 73.2054519,62.6544287 L73.2054519,62.6544287 L72.2054519,62.2444287 L71.2554519,61.9744287 C70.0932906,61.5822295 68.9032643,61.2780374 67.6954519,61.0644287 L67.4354519,60.9944287 C67.8754519,60.6244287 68.3154519,60.2444287 68.7454519,59.8444287 L69.6754519,58.9944287 L69.8954519,58.9944287 L69.6954519,58.9344287 L69.6954519,58.9344287 L69.6954519,58.9344287 L69.6954519,58.9344287 L69.8754519,58.9344287 C70.0954519,58.9844287 70.1954519,58.9344287 70.1854519,58.9944287 L69.8854519,58.9944287 C70.1054519,58.9944287 69.9454519,58.9944287 69.8854519,58.9944287 L70.1354519,58.9944287 C70.1354519,58.9944287 70.1354519,58.9944287 70.0654519,58.9944287 C70.2084476,58.9805146 70.3524563,58.9805146 70.4954519,58.9944287 C70.7154519,58.9944287 70.4954519,59.0444287 70.7554519,59.0844287 C72.1254519,59.3344287 73.4354519,59.6344287 74.7554519,59.9644287 L74.7554519,59.9644287 L75.9054519,60.2444287 C75.9609834,60.2590917 76.0123388,60.2864813 76.0554519,60.3244287 C76.3935863,60.3955983 76.7274475,60.4857408 77.0554519,60.5944287 L77.7754519,60.8244287 L78.1054519,60.9344287 L78.1054519,60.9344287 C78.4954519,61.0644287 78.2054519,61.0244287 78.5654519,61.1344287 C78.8118626,61.1980055 79.0526644,61.2816172 79.2854519,61.3844287 C79.2854519,61.3844287 79.4554519,61.4544287 79.4354519,61.4644287 C79.4154519,61.4744287 79.6154519,61.5344287 79.7254519,61.5644287 C79.8354519,61.5944287 79.7254519,61.5644287 79.6754519,61.5644287 L79.9354519,61.6544287 C80.0254519,61.6544287 80.0354519,61.7344287 79.9354519,61.6544287 C80.6815154,61.9924335 81.4091966,62.3696261 82.1154519,62.7844287 C82.7891393,63.1698946 83.4223289,63.6221729 84.0054519,64.1344287 C84.0054519,64.0544287 83.7854519,63.9244287 83.7454519,63.8344287 C83.9054519,63.9444287 83.9454519,64.0344287 84.0254519,64.0644287 C84.1054519,64.0944287 84.3154519,64.3644287 84.3654519,64.5044287 L84.4254519,64.5044287 L84.4254519,64.5944287 C84.5135701,64.6798772 84.5970242,64.7700076 84.6754519,64.8644287 L84.7354519,64.9444287 C84.7354519,64.9444287 84.7354519,64.9444287 84.9554519,65.2844287 C85.1099177,65.4932168 85.2282292,65.7264594 85.3054519,65.9744287 C85.3054519,65.9744287 85.3054519,65.8544287 85.3054519,65.9744287 C85.3054519,66.0944287 85.4054519,66.2144287 85.3754519,66.2644287 L85.3754519,66.4844287 C85.3754519,66.5644287 85.3754519,66.6144287 85.3754519,66.5544287 C85.3754519,66.4944287 85.3754519,66.8844287 85.3754519,66.7244287 C85.3754519,66.8144287 85.3754519,66.9044287 85.3754519,66.9644287 L85.3754519,66.8544287 C85.3602132,67.0800903 85.3267711,67.3041522 85.2754519,67.5244287 C85.2771765,67.4877823 85.2771765,67.4510751 85.2754519,67.4144287 C85.295121,67.5377837 85.2883032,67.6639127 85.2554519,67.7844287 C85.2831008,67.7237697 85.3032495,67.6599655 85.3154519,67.5944287 C85.2266477,67.8387473 85.1196823,68.0760768 84.9954519,68.3044287 L84.9954519,68.2244287 C84.8072735,68.6272244 84.5576265,68.9983212 84.2554519,69.3244287 C83.8554519,69.7444287 83.3854519,70.1144287 83.2554519,70.2444287 L83.4054519,70.1744287 L83.1754519,70.3744287 C83.1754519,70.3744287 83.2354519,70.2044287 83.2654519,70.1944287 C83.1254519,70.2944287 82.8554519,70.4844287 82.4954519,70.7144287 C82.1354519,70.9444287 81.6754519,71.1844287 81.2154519,71.4144287 C80.5043172,71.7700066 79.7730795,72.0838712 79.0254519,72.3544287 C78.7754519,72.4244287 78.9554519,72.3544287 78.9654519,72.3544287 C78.6754519,72.4744287 78.8454519,72.4344287 78.6054519,72.5244287 C78.5354519,72.5244287 78.6054519,72.5244287 78.6054519,72.5244287 C78.533274,72.5449838 78.4630116,72.5717505 78.3954519,72.6044287 C78.5254519,72.6044287 78.4854519,72.6044287 78.5554519,72.6044287 L78.2354519,72.7144287 L78.2354519,72.7144287 C78.0900312,72.8097158 77.9317737,72.8837938 77.7654519,72.9344287 C77.2354519,73.1044287 76.6554519,73.2844287 76.1054519,73.4344287 C76.1770141,73.3904061 76.2544495,73.3567386 76.3354519,73.3344287 L76.0854519,73.3944287 C76.2254519,73.3944287 75.8554519,73.4744287 75.9654519,73.4544287 C75.5854519,73.6344287 75.0554519,73.7044287 74.7054519,73.8344287 C74.7054519,73.9044287 74.1654519,74.9744287 74.1854519,75.0344287 L73.9154519,75.0344287 C74.0447452,75.0287712 74.1726296,75.0052136 74.2954519,74.9644287 L74.2954519,74.9644287 C74.5654519,74.8944287 74.3654519,74.9644287 74.6254519,74.9644287 C74.4907919,75.0344223 74.3455084,75.081724 74.1954519,75.1044287 C74.3533507,75.0845999 74.5079885,75.0442596 74.6554519,74.9844287 C74.8354519,74.9844287 74.6554519,74.9844287 74.8654519,74.9844287 C75.0754519,74.9844287 75.2154519,74.8644287 75.3954519,74.8344287 L75.3954519,74.8344287 C75.8354519,74.7444287 76.0454519,74.6144287 76.3954519,74.5344287 L76.3954519,74.5344287 C76.5454519,74.5344287 76.8054519,74.4144287 77.0654519,74.3544287 C76.9854519,74.3544287 76.9254519,74.3544287 77.0654519,74.3544287 C77.2054519,74.3544287 77.5454519,74.2044287 77.7654519,74.1544287 L77.9554519,74.0644287 C78.9832415,73.6977292 79.9883444,73.27031 80.9654519,72.7844287 C81.5654519,72.5144287 82.1454519,72.2144287 82.6354519,71.9344287 C83.1254519,71.6544287 83.5154519,71.3944287 83.7354519,71.2444287 L83.7354519,71.2444287 C84.1557554,70.9622377 84.5536081,70.6479675 84.9254519,70.3044287 C85.4067464,69.8711934 85.821241,69.369082 86.1554519,68.8144287 C86.5142529,68.2249581 86.7172802,67.5539358 86.7454519,66.8644287 C86.7616832,66.2847713 86.64181,65.70938 86.3954519,65.1844287 C86.3297614,65.0450778 86.2528409,64.9113031 86.1654519,64.7844287 Z M48.0554519,61.1344287 L48.0554519,61.1344287 L47.8054519,61.1844287 C47.8054519,61.1844287 47.9154519,61.1744287 48.0554519,61.1344287 Z M69.0554519,58.1344287 L69.0554519,58.0744287 C68.6554519,58.4744287 68.0554519,59.0744287 67.4854519,59.5544287 C66.9154519,60.0344287 66.3354519,60.5544287 66.0254519,60.7944287 C64.5854519,61.9744287 62.2654519,63.6844287 60.2254519,65.1244287 L58.8454519,65.9544287 L58.6454519,66.0944287 C58.4369234,66.3548764 58.2745734,66.6491357 58.1654519,66.9644287 C58.0954519,67.3044287 58.3854519,67.4444287 59.8354519,66.6044287 L59.8354519,66.6644287 L60.3854519,66.2944287 C61.0454519,65.8544287 61.3254519,65.6244287 61.2954519,65.6744287 C60.9954519,65.8744287 60.7054519,66.0844287 60.3954519,66.2844287 C61.0654519,65.8444287 60.6154519,66.1644287 60.3954519,66.3444287 L61.1654519,65.8444287 C61.2854519,65.7444287 61.0654519,65.8444287 60.9554519,65.9644287 C61.3054519,65.7144287 61.7854519,65.3544287 62.2154519,65.0644287 C62.8754519,64.5844287 62.2754519,65.0644287 63.0454519,64.5144287 C64.0454519,63.7744287 65.0454519,63.0244287 66.0454519,62.2544287 L66.6254519,61.7844287 C66.7766462,61.8578435 66.9338968,61.9180672 67.0954519,61.9644287 L67.0954519,61.9644287 L67.4054519,62.0244287 C67.7854519,62.1044287 67.9654519,62.1144287 67.9354519,62.1344287 L67.2554519,62.0444287 C67.6354519,62.1244287 67.3654519,62.0444287 67.2554519,62.0444287 L67.6854519,62.1444287 C67.7654519,62.1444287 67.6854519,62.1444287 67.5754519,62.1444287 C67.7854519,62.1444287 68.0754519,62.2144287 68.3154519,62.2744287 C68.7054519,62.3644287 68.3154519,62.2744287 68.7854519,62.4244287 C69.9504111,62.6915338 71.0936345,63.0458662 72.2054519,63.4844287 C72.7456872,63.7012492 73.2702732,63.955189 73.7754519,64.2444287 C74.0262893,64.3800993 74.2669244,64.5338384 74.4954519,64.7044287 C74.7196382,64.8595076 74.9273847,65.0370973 75.1154519,65.2344287 C75.1154519,65.2344287 75.1154519,65.2344287 75.0554519,65.2344287 C75.468355,65.5580842 75.7142694,66.049913 75.7254519,66.5744287 C75.7194622,66.6398064 75.6952053,66.7021813 75.6554519,66.7544287 C75.6554519,66.7544287 75.6554519,66.7544287 75.6554519,66.8344287 C75.6625666,66.8741123 75.6625666,66.9147451 75.6554519,66.9544287 C75.6425476,67.0069829 75.6223517,67.0574726 75.5954519,67.1044287 C75.4288782,67.4196022 75.2010994,67.6983763 74.9254519,67.9244287 C74.6149601,68.1888023 74.2801324,68.4231816 73.9254519,68.6244287 C73.6254519,68.7944287 73.4154519,68.9144287 73.3954519,68.9144287 L73.3954519,68.9744287 C73.268853,69.0528461 73.1303959,69.1102551 72.9854519,69.1444287 C72.8505711,69.1806741 72.7198579,69.2309484 72.5954519,69.2944287 C72.162345,69.4926952 71.7142924,69.6565353 71.2554519,69.7844287 C71.2554519,69.7844287 70.9454519,69.8744287 70.9654519,69.8544287 C70.7962015,69.9228963 70.6224619,69.9796958 70.4454519,70.0244287 C70.3754519,70.0244287 70.5054519,70.0244287 70.5654519,70.0244287 L70.1054519,70.1744287 C69.9254519,70.1744287 69.8754519,70.1744287 70.1054519,70.1744287 C69.8054519,70.2544287 69.2154519,70.4044287 68.4754519,70.5644287 C67.7354519,70.7244287 66.8454519,70.8844287 65.9454519,71.0144287 C64.1354519,71.2844287 62.2954519,71.4044287 61.6254519,71.4444287 C61.7954519,71.4444287 62.2154519,71.4444287 62.3754519,71.4444287 C62.0154519,71.4444287 61.8454519,71.4444287 61.6954519,71.5044287 C61.5454519,71.5644287 60.9054519,71.5044287 60.6354519,71.5044287 L60.5354519,71.5044287 L60.3554519,71.5044287 C59.7725735,71.5370062 59.1883304,71.5370062 58.6054519,71.5044287 C57.7954519,71.5044287 57.4154519,71.5044287 56.9654519,71.5044287 C57.0254519,71.5044287 57.2054519,71.5044287 56.9654519,71.5044287 C56.9654519,71.5044287 56.4054519,71.5044287 56.3054519,71.5044287 C56.2054519,71.5044287 55.4454519,71.5044287 55.6654519,71.5044287 C55.5554519,71.5044287 54.9654519,71.4344287 55.3154519,71.4344287 L54.7754519,71.4344287 L55.0354519,71.4344287 C54.3654519,71.4344287 54.0354519,71.3344287 53.5554519,71.3344287 L53.8054519,71.3344287 C53.5052693,71.3200822 53.2071965,71.2765435 52.9154519,71.2044287 L53.3254519,71.2044287 L51.7054519,71.0544287 L51.9054519,71.0544287 C51.5454519,71.0544287 50.4554519,70.9044287 49.3754519,70.7244287 C48.2954519,70.5444287 47.2354519,70.2944287 46.9154519,70.2244287 L47.1954519,70.3344287 L46.6454519,70.2144287 C46.7154519,70.2144287 46.9354519,70.2144287 46.9854519,70.2144287 C46.6954519,70.1444287 46.1054519,69.9844287 45.3854519,69.7344287 C44.5732874,69.4733897 43.7866819,69.138664 43.0354519,68.7344287 C42.657491,68.5238766 42.2993634,68.2795465 41.9654519,68.0044287 C41.6873621,67.7688373 41.4507477,67.4882802 41.2654519,67.1744287 C41.0377449,66.8172645 40.9826686,66.3766541 41.1154519,65.9744287 C41.2554519,65.6544287 41.1854519,65.9744287 41.1954519,65.9744287 C41.2554519,65.7844287 41.2854519,65.7444287 41.2954519,65.7044287 C41.3284225,65.62235 41.3721372,65.5450085 41.4254519,65.4744287 C41.4854519,65.3944287 41.4254519,65.4744287 41.4254519,65.5644287 C41.4613503,65.493826 41.5086523,65.4296304 41.5654519,65.3744287 C41.5654519,65.3744287 41.6254519,65.2944287 41.6254519,65.2844287 C41.4754519,65.4444287 41.5054519,65.3444287 41.4254519,65.4044287 C41.5320463,65.2626655 41.6526556,65.1320054 41.7854519,65.0144287 L41.7854519,65.0144287 C41.954769,64.7819132 42.1648314,64.5820151 42.4054519,64.4244287 C43.2398049,63.8798377 44.1361358,63.4367078 45.0754519,63.1044287 C44.954266,63.1844497 44.8231601,63.2483218 44.6854519,63.2944287 C44.8255326,63.2355511 44.9691438,63.1854541 45.1154519,63.1444287 C44.8754519,63.1444287 45.4954519,62.9844287 45.3154519,63.0344287 C46.0311867,62.7586165 46.7624343,62.5248844 47.5054519,62.3344287 C47.5054519,62.3344287 47.8054519,61.9744287 48.0854519,61.6544287 L48.3354519,61.3644287 C48.8854519,61.8344287 49.4254519,62.2844287 49.9654519,62.7244287 C49.718363,62.5585602 49.4812838,62.3782464 49.2554519,62.1844287 L49.9754519,62.7844287 C49.6154519,62.4544287 50.6554519,63.3044287 50.3654519,63.0544287 C51.5654519,63.9344287 53.0854519,65.1244287 54.2054519,65.8344287 C54.2654519,65.8344287 54.9854519,66.0444287 55.6954519,66.1944287 C56.169954,66.3116145 56.650728,66.4017597 57.1354519,66.4644287 L57.9254519,66.9544287 C57.8454519,66.8844287 57.1654519,66.4644287 56.7954519,66.2444287 L56.7154519,66.2444287 C55.8854519,65.7444287 56.5254519,66.1044287 55.7154519,65.6144287 C55.7154519,65.5544287 56.4254519,66.0144287 57.0854519,66.4144287 C56.4954519,66.0444287 55.9054519,65.6544287 55.6654519,65.5444287 C55.1454519,65.1844287 55.7454519,65.5444287 55.1154519,65.1144287 C54.6454519,64.8144287 54.0354519,64.4244287 53.5254519,64.0344287 L53.5254519,64.0344287 C52.2854519,63.0944287 51.5854519,62.6544287 50.5254519,61.7444287 L50.6454519,61.8244287 C50.2654519,61.5044287 49.4954519,60.8944287 48.8254519,60.2844287 C49.0154519,60.4644287 49.1654519,60.6244287 48.7554519,60.2844287 C47.9854519,59.5844287 47.4454519,59.1244287 46.9154519,58.5844287 L46.3654519,58.1044287 C45.7254519,57.4744287 44.5954519,56.3744287 43.3654519,54.9444287 C41.9723759,53.3626716 40.7334266,51.6515821 39.6654519,49.8344287 C39.1222698,48.9050884 38.6508976,47.9355994 38.2554519,46.9344287 C37.8989022,46.0085525 37.6310344,45.0509251 37.4554519,44.0744287 C37.3068095,43.2631642 37.2398083,42.4390498 37.2554519,41.6144287 C37.24492,41.4445918 37.24492,41.2742656 37.2554519,41.1044287 L37.2554519,40.8644287 L37.2554519,40.6544287 C37.2554519,40.3744287 37.3454519,40.1144287 37.3854519,39.9044287 L37.3854519,40.0444287 C37.7205614,38.4451791 38.3440632,36.9203107 39.2254519,35.5444287 C39.7617261,34.7414494 40.3929575,34.0061321 41.1054519,33.3544287 C41.8547286,32.6832068 42.6925378,32.117938 43.5954519,31.6744287 C44.5107825,31.2241839 45.478056,30.888325 46.4754519,30.6744287 C46.7070277,30.6320593 46.94069,30.602017 47.1754519,30.5844287 C47.4154519,30.5844287 47.6654519,30.5844287 47.9054519,30.5844287 C48.3895649,30.5740402 48.8738523,30.5940797 49.3554519,30.6444287 C50.245271,30.7322797 51.1234137,30.9132709 51.9754519,31.1844287 C52.3854519,31.2944287 52.7554519,31.4644287 53.1154519,31.5944287 C53.4754519,31.7244287 53.7954519,31.9144287 54.1154519,32.0644287 L54.7054519,32.4244287 L55.0254519,32.6144287 L55.3354519,32.8344287 L55.9554519,33.2744287 L56.2354519,33.5144287 L56.5654519,33.7944287 L56.4454519,33.6844287 L56.3854519,33.6344287 L56.3154519,33.5644287 L56.3154519,33.5644287 L56.4154519,33.6344287 L56.7054519,33.8744287 L57.3954519,34.4544287 C57.7054519,34.1144287 57.9454519,33.8744287 58.1154519,33.6944287 L58.3454519,33.4844287 L58.4554519,33.3744287 L58.6754519,33.1944287 C58.7454519,33.1244287 58.8554519,33.0444287 59.0054519,32.9244287 L59.2754519,32.7244287 L59.6254519,32.4844287 C60.6757893,31.7844901 61.8299781,31.2546432 63.0454519,30.9144287 L63.6454519,30.7544287 L64.2754519,30.6344287 L64.6054519,30.5744287 L64.9354519,30.5744287 L65.6054519,30.5044287 L66.3054519,30.5044287 C66.5385494,30.4895922 66.7723545,30.4895922 67.0054519,30.5044287 L67.7054519,30.5044287 L67.8854519,30.5044287 L68.0254519,30.5044287 L68.3654519,30.5744287 C69.2694449,30.8111844 70.1446943,31.146529 70.9754519,31.5744287 C71.7355984,31.961361 72.4528868,32.4272633 73.1154519,32.9644287 C74.0442755,33.7103735 74.8536218,34.5939099 75.5154519,35.5844287 C75.9878307,36.25123 76.3836556,36.969082 76.6954519,37.7244287 C76.7854519,37.9144287 76.8554519,38.1244287 76.9354519,38.3244287 L77.0454519,38.6144287 L77.1354519,38.8844287 C77.24053,39.2559533 77.324003,39.6332516 77.3854519,40.0144287 L77.3854519,39.8644287 C77.5066606,40.6415365 77.5535392,41.4284267 77.5254519,42.2144287 C77.4728945,43.4810526 77.2680885,44.7367481 76.9154519,45.9544287 C76.5528053,47.196642 76.0740266,48.401959 75.4854519,49.5544287 C75.2354519,50.0644287 74.9654519,50.5544287 74.7554519,50.8944287 L74.2554519,51.7844287 L74.3954519,51.5744287 C73.9185431,52.350343 73.3836872,53.0891127 72.7954519,53.7844287 C72.7954519,53.7844287 72.7954519,53.7844287 72.7454519,53.9044287 C72.6954519,54.0244287 72.5754519,54.1444287 72.4554519,54.3044287 C72.2154519,54.6244287 71.9154519,55.0144287 71.7354519,55.2144287 L71.7354519,55.2144287 C70.8752537,56.2331571 69.9640902,57.2077349 69.0054519,58.1344287 L69.0554519,58.1344287 Z" id="Shape" fill="#373835"></path>
                <path d="M57.5054519,79.4644287 C57.7618242,79.4818153 58.0190797,79.4818153 58.2754519,79.4644287 C58.018956,79.4511914 57.7619479,79.4511914 57.5054519,79.4644287 Z" id="Path" fill="#373835"></path>
                <path d="M31.0954519,57.6244287 L31.3254519,57.5444287 L31.0954519,57.6244287 Z" id="Path" fill="#373835"></path>
                <path d="M57.7554519,79.5344287 L57.7554519,79.5344287 L57.4554519,79.5344287 C57.0954519,79.5344287 56.9254519,79.5344287 56.9554519,79.5344287 L57.4454519,79.5344287 C57.0854519,79.5344287 57.3354519,79.5344287 57.4454519,79.5344287 L57.0254519,79.5344287 C56.9554519,79.5344287 57.0854519,79.5344287 57.1354519,79.5344287 C56.9023726,79.5498252 56.6685313,79.5498252 56.4354519,79.5344287 C56.0654519,79.5344287 56.4354519,79.5344287 55.9754519,79.5344287 C53.6954519,79.4644287 51.4954519,79.3244287 49.2054519,79.1244287 C49.1454519,79.1244287 49.2054519,79.1244287 49.2754519,79.1244287 C48.5854519,79.1244287 47.9754519,79.0044287 47.3454519,78.9544287 C47.2526238,78.9438233 47.1617399,78.9202608 47.0754519,78.8844287 C47.1254519,78.8844287 46.2554519,78.8144287 45.3754519,78.7044287 L44.1454519,78.5444287 L43.5554519,78.4544287 L43.5054519,78.4544287 C42.8354519,78.3544287 43.3154519,78.3844287 42.6954519,78.2944287 C42.4354519,78.2944287 41.6954519,78.1144287 41.4354519,78.1144287 C41.4354519,78.1144287 41.1454519,78.0544287 41.1654519,78.0344287 C40.9934403,78.0293705 40.8224652,78.0059034 40.6554519,77.9644287 C40.5854519,77.9644287 40.6554519,77.9644287 40.7554519,77.9644287 L40.3154519,77.8944287 C40.1454519,77.8944287 40.1054519,77.8244287 40.3154519,77.8944287 C39.7454519,77.7844287 38.0854519,77.4444287 36.4454519,77.0344287 C34.8054519,76.6244287 33.1654519,76.1144287 32.5654519,75.9344287 C32.7154519,76.0044287 33.0854519,76.1044287 33.2154519,76.1844287 C32.8954519,76.1144287 32.7554519,76.0344287 32.6054519,76.0144287 C32.4554519,75.9944287 31.9154519,75.7744287 31.7054519,75.6244287 L31.6054519,75.6244287 L31.4554519,75.5444287 C30.9419329,75.3903695 30.4377572,75.2067294 29.9454519,74.9944287 C29.2554519,74.7244287 28.9454519,74.6244287 28.5454519,74.4344287 C28.5454519,74.4344287 28.7354519,74.5544287 28.5454519,74.4344287 C28.5454519,74.4344287 28.0754519,74.2344287 28.0054519,74.1744287 C27.9354519,74.1144287 27.2854519,73.8244287 27.4554519,73.9544287 C27.3654519,73.8844287 26.8954519,73.6244287 27.1854519,73.7644287 L26.7554519,73.5344287 L26.9554519,73.6544287 C26.4054519,73.3744287 26.1354519,73.1744287 25.7754519,73.0044287 L25.9554519,73.1344287 C25.7111502,73.0141291 25.4854905,72.8591986 25.2854519,72.6744287 L25.6054519,72.8644287 C25.0954519,72.5444287 24.7854519,72.3444287 24.3754519,72.0644287 L24.5154519,72.1644287 C23.8784435,71.7456646 23.2883761,71.2595295 22.7554519,70.7144287 C22.44629,70.4039412 22.1620768,70.0695728 21.9054519,69.7144287 C21.6854519,69.3944287 21.5454519,69.1244287 21.4754519,69.0044287 C21.4754519,69.0844287 21.4754519,69.1644287 21.5554519,69.2544287 L21.4354519,69.0344287 L21.3354519,68.8244287 C21.3354519,68.8244287 21.5154519,68.9944287 21.5254519,69.0444287 C21.3251885,68.6114425 21.1968391,68.148709 21.1454519,67.6744287 C21.0676137,66.9393542 21.1884848,66.1968605 21.4954519,65.5244287 C21.8177149,64.8332634 22.2537812,64.2011362 22.7854519,63.6544287 C23.1220696,63.293098 23.4865215,62.9587384 23.8754519,62.6544287 C24.1954519,62.4144287 23.9554519,62.6544287 23.9554519,62.6544287 C24.3454519,62.3444287 24.1054519,62.4944287 24.4454519,62.2444287 C24.5354519,62.1844287 24.4454519,62.2444287 24.3854519,62.3244287 C24.4900522,62.2539565 24.5902396,62.1771461 24.6854519,62.0944287 C24.4854519,62.2244287 24.5454519,62.0944287 24.4454519,62.1644287 L24.8954519,61.8544287 L24.8954519,61.8544287 C25.1002205,61.6613302 25.3247978,61.4903834 25.5654519,61.3444287 C26.3730319,60.8664132 27.2040756,60.4291975 28.0554519,60.0344287 C27.948249,60.1110078 27.8344706,60.1779363 27.7154519,60.2344287 C27.8362052,60.1653746 27.9634912,60.1084309 28.0954519,60.0644287 C27.8854519,60.1244287 28.4354519,59.8844287 28.2754519,59.9444287 C28.8654519,59.6044287 29.6954519,59.3244287 30.2754519,59.0744287 C30.4087431,58.8265065 30.5556337,58.58614 30.7154519,58.3544287 C30.8670833,58.1267249 31.0040283,57.8895763 31.1254519,57.6444287 L31.5454519,57.5044287 C31.341407,57.5541979 31.1409519,57.6176753 30.9454519,57.6944287 L30.9454519,57.6944287 C30.5254519,57.8544287 30.8454519,57.6944287 30.4254519,57.8644287 C30.6430247,57.7405115 30.8746805,57.6431489 31.1154519,57.5744287 C30.8636431,57.6396033 30.6190668,57.730063 30.3854519,57.8444287 C30.0954519,57.9344287 30.3854519,57.8444287 30.0554519,57.9144287 C29.7254519,57.9844287 29.4954519,58.1644287 29.2154519,58.2644287 L29.2154519,58.2644287 C28.5254519,58.5144287 28.2154519,58.7344287 27.5754519,58.9944287 L27.6354519,58.9944287 C27.4054519,59.0744287 26.9954519,59.3044287 26.6354519,59.4844287 C26.7454519,59.4844287 26.8554519,59.4044287 26.6354519,59.4844287 C26.1854519,59.6944287 25.8954519,59.8744287 25.5654519,60.0444287 L25.2854519,60.2444287 C24.6793916,60.6029587 24.0950404,60.9969784 23.5354519,61.4244287 C22.6715334,62.0728739 21.9038971,62.8405102 21.2554519,63.7044287 C20.9213374,64.1632714 20.642731,64.6600634 20.4254519,65.1844287 C20.2225129,65.6967166 20.0945285,66.2355984 20.0454519,66.7844287 C19.9882294,67.558555 20.0973393,68.3359634 20.3654519,69.0644287 L20.3654519,68.9944287 C20.6706825,69.8036562 21.1176689,70.5520198 21.6854519,71.2044287 C22.3482691,71.9594481 23.100459,72.6310462 23.9254519,73.2044287 C25.4026605,74.2411389 26.992855,75.1066878 28.6654519,75.7844287 C29.0354519,75.9744287 29.5754519,76.1844287 29.9754519,76.3444287 C29.7554519,76.2544287 29.8454519,76.2644287 29.9754519,76.3444287 C31.2254519,76.8144287 30.0654519,76.3444287 31.3354519,76.8044287 C32.0654519,77.0544287 33.8354519,77.6244287 35.6154519,78.0744287 C37.3954519,78.5244287 39.1554519,78.9044287 39.8254519,79.0744287 C40.4954519,79.2444287 41.4454519,79.3644287 42.1554519,79.4444287 L42.0854519,79.4444287 C42.4654519,79.5044287 43.7354519,79.7044287 45.0154519,79.8744287 C46.2954519,80.0444287 47.6054519,80.1844287 48.0154519,80.2244287 L47.8954519,80.2244287 C48.6754519,80.2244287 48.5654519,80.3044287 49.1754519,80.3744287 C49.4543627,80.3395004 49.7365412,80.3395004 50.0154519,80.3744287 L50.0154519,80.3744287 L51.9054519,80.4444287 L51.9054519,80.4444287 C52.4354519,80.4444287 53.4254519,80.5044287 53.8054519,80.5144287 C54.6754519,80.5144287 56.0154519,80.6444287 57.1754519,80.6244287 L57.9254519,80.7044287 L58.0354519,80.7044287 C58.201807,80.5763659 58.3411541,80.4166265 58.4454519,80.2344287 C58.5954519,79.9044287 58.5154519,79.6344287 57.7554519,79.5344287 Z" id="Path" fill="#373835"></path>
                <path d="M77.2554519,56.6344287 C77.1069515,56.5777795 76.9527013,56.5375403 76.7954519,56.5144287 C76.9450042,56.5677285 77.098921,56.6078807 77.2554519,56.6344287 L77.2554519,56.6344287 Z" id="Path" fill="#373835"></path>
                <polygon id="Path" fill="#373835" points="77.2654519 56.6344287 77.2654519 56.6344287 77.2554519 56.6344287"></polygon>
                <path d="M96.5554519,65.2944287 C96.3075432,64.6816636 95.9705815,64.1088286 95.5554519,63.5944287 C95.2270366,63.1733003 94.8623048,62.7817991 94.4654519,62.4244287 C94.2543841,62.2017547 94.0306812,61.9914072 93.7954519,61.7944287 C93.9054519,61.9044287 93.8554519,61.8844287 93.7954519,61.7944287 C93.4754519,61.5244287 93.4554519,61.5344287 93.4354519,61.5244287 C93.4154519,61.5144287 93.4354519,61.5244287 93.0554519,61.2644287 C92.2646365,60.7295157 91.4468947,60.2355329 90.6054519,59.7844287 C89.6054519,59.2344287 88.5454519,58.7844287 88.1554519,58.5944287 C87.9354519,58.5244287 87.6954519,58.4244287 87.4554519,58.3244287 L86.7554519,58.0744287 L86.7554519,58.0744287 C86.5254519,57.9944287 85.7554519,57.7044287 85.0054519,57.4444287 L83.8954519,57.0844287 C83.5654519,56.9844287 83.3054519,56.9044287 83.1654519,56.8744287 L83.2454519,56.8744287 C82.9829063,56.8062591 82.7255811,56.7193701 82.4754519,56.6144287 C82.4754519,56.6744287 82.0954519,56.6144287 81.9454519,56.5544287 L81.9454519,56.5544287 L80.7854519,56.3144287 L80.7854519,56.3144287 C80.4554519,56.2544287 79.8554519,56.1044287 79.6254519,56.0544287 C78.9469547,55.8665631 78.2594149,55.7130348 77.5654519,55.5944287 L77.1154519,55.4244287 L77.0454519,55.4244287 C76.9060152,55.5371598 76.7904326,55.6765388 76.7054519,55.8344287 C76.5954519,56.0644287 76.5954519,56.3444287 77.0354519,56.5244287 L77.0354519,56.5244287 L77.2254519,56.5244287 C77.4454519,56.5244287 77.5454519,56.5244287 77.5254519,56.5944287 L77.2254519,56.5244287 C77.4454519,56.5244287 77.2954519,56.5244287 77.2254519,56.5244287 L77.4754519,56.5944287 C77.4754519,56.5944287 77.4754519,56.5944287 77.4154519,56.5944287 C77.5603403,56.6010018 77.7042985,56.621089 77.8454519,56.6544287 C78.0754519,56.6544287 77.8454519,56.6544287 78.1154519,56.7644287 C79.5054519,57.0744287 80.8354519,57.4244287 82.2154519,57.7644287 C82.2154519,57.7644287 82.2154519,57.7644287 82.2154519,57.7644287 C82.6354519,57.8644287 82.9954519,57.9744287 83.3754519,58.0744287 C83.4322259,58.0978536 83.485951,58.128074 83.5354519,58.1644287 C83.5354519,58.1644287 84.0254519,58.3044287 84.5354519,58.4644287 L85.2554519,58.7144287 L85.6054519,58.8344287 L85.6054519,58.8344287 C86.0054519,58.9744287 85.7054519,58.9244287 86.0754519,59.0444287 C86.3281266,59.1129412 86.5754528,59.1998396 86.8154519,59.3044287 C86.8154519,59.3044287 86.9954519,59.3744287 86.9754519,59.3944287 C86.9554519,59.4144287 87.1554519,59.4544287 87.2754519,59.4944287 C87.3954519,59.5344287 87.2754519,59.4944287 87.2154519,59.4944287 L87.4754519,59.5844287 C87.5754519,59.6344287 87.5954519,59.6644287 87.4754519,59.5844287 C87.8054519,59.7244287 88.7554519,60.1444287 89.6854519,60.5844287 C90.4134488,60.9638125 91.121084,61.3810503 91.8054519,61.8344287 C91.7454519,61.7544287 91.5354519,61.6444287 91.4854519,61.5544287 C91.6654519,61.6444287 91.7354519,61.7244287 91.8154519,61.7544287 C91.8954519,61.7844287 92.1754519,62.0144287 92.2554519,62.1544287 L92.3254519,62.1544287 L92.3954519,62.2344287 C92.5455214,62.3244094 92.6891966,62.4246479 92.8254519,62.5344287 C92.8254519,62.5344287 92.8254519,62.5344287 93.1654519,62.8244287 L93.5754519,63.1644287 C93.6745997,63.2373037 93.7651767,63.3211713 93.8454519,63.4144287 C93.8454519,63.4144287 93.7654519,63.3044287 93.8454519,63.4144287 C93.9254519,63.5244287 94.0754519,63.6144287 94.0854519,63.6844287 C94.0954519,63.7544287 94.4054519,64.0344287 94.3554519,63.9144287 C94.3554519,63.9744287 94.5654519,64.2344287 94.4354519,64.0944287 C94.4880301,64.1766246 94.5483011,64.2536375 94.6154519,64.3244287 L94.5354519,64.2044287 C94.6317486,64.3207062 94.718687,64.4444262 94.7954519,64.5744287 C94.8563776,64.6717323 94.9231677,64.7652384 94.9954519,64.8544287 L94.9954519,64.7344287 C95.0864319,64.8651474 95.1540975,65.0106284 95.1954519,65.1644287 L95.0754519,64.9844287 C95.1518278,65.1092162 95.218684,65.2395859 95.2754519,65.3744287 C95.3399893,65.4939914 95.3967731,65.6175796 95.4454519,65.7444287 L95.4454519,65.6444287 C95.6267567,66.0459566 95.7383522,66.4754302 95.7754519,66.9144287 C95.7963273,67.3497898 95.7661214,67.7860976 95.6854519,68.2144287 L95.7554519,68.0644287 C95.7554519,68.1644287 95.7554519,68.2644287 95.6954519,68.3644287 C95.6354519,68.4644287 95.6354519,68.1944287 95.6954519,68.1744287 L95.5954519,68.5044287 C95.5454519,68.6544287 95.4654519,68.8144287 95.3854519,69.0044287 C95.3398742,69.1051758 95.2863729,69.2021469 95.2254519,69.2944287 L95.0554519,69.5944287 L94.8354519,69.9044287 L94.7354519,70.0544287 L94.6054519,70.2044287 C94.0992786,70.8139779 93.5256134,71.3641598 92.8954519,71.8444287 C92.6854519,71.9844287 92.8254519,71.8444287 92.8254519,71.8444287 C92.5854519,72.0444287 92.7354519,71.9544287 92.5254519,72.1044287 C92.4654519,72.1044287 92.5254519,72.1044287 92.5254519,72.0444287 C92.5254519,71.9844287 92.3354519,72.1644287 92.3354519,72.1844287 C92.3354519,72.2044287 92.4354519,72.1844287 92.5054519,72.1844287 L92.2254519,72.3844287 L92.2254519,72.3844287 C92.1068252,72.5179055 91.9685758,72.6325513 91.8154519,72.7244287 C91.5754519,72.8744287 91.3254519,73.0344287 91.0754519,73.1744287 C90.8254519,73.3144287 90.5554519,73.4844287 90.3054519,73.6144287 C90.3622755,73.5524982 90.430088,73.5016388 90.5054519,73.4644287 L90.2754519,73.5844287 C90.4054519,73.5844287 90.0654519,73.7044287 90.1654519,73.6644287 C89.8354519,73.9244287 89.3154519,74.1044287 88.9954519,74.3144287 C88.9954519,74.3744287 88.6754519,75.5344287 88.6954519,75.5944287 L88.4454519,75.7044287 C88.570052,75.666276 88.6906251,75.6160372 88.8054519,75.5544287 L88.8054519,75.5544287 C89.0654519,75.4244287 88.8754519,75.5544287 89.1354519,75.4344287 C89.0111494,75.5287803 88.8727962,75.6030186 88.7254519,75.6544287 C88.8784749,75.6027377 89.0258888,75.5357313 89.1654519,75.4544287 C89.3454519,75.3844287 89.1654519,75.4544287 89.3754519,75.4544287 C89.5377301,75.3505439 89.7083097,75.260237 89.8854519,75.1844287 L89.8854519,75.1844287 C90.3154519,75.0144287 90.4954519,74.8344287 90.8854519,74.6544287 L90.8854519,74.6544287 C91.0254519,74.6044287 91.2754519,74.4444287 91.5154519,74.3244287 C91.4454519,74.3244287 91.3754519,74.3244287 91.5154519,74.3244287 C91.6554519,74.3244287 91.9754519,74.0644287 92.1754519,73.9544287 L92.2554519,73.7844287 C93.1786265,73.2211229 94.0313162,72.5497138 94.7954519,71.7844287 C95.26475,71.31039 95.6775057,70.7835392 96.0254519,70.2144287 L96.2554519,69.7844287 C96.3152447,69.6674049 96.3686562,69.5472289 96.4154519,69.4244287 L96.5454519,69.1244287 C96.5782695,69.0431903 96.6050097,68.9596272 96.6254519,68.8744287 L96.6254519,68.8744287 C96.7100249,68.6337083 96.7735956,68.3861169 96.8154519,68.1344287 C96.8543734,67.9940719 96.877846,67.8498834 96.8854519,67.7044287 L96.8854519,67.2344287 C96.8965836,66.5729026 96.784684,65.9150682 96.5554519,65.2944287 L96.5554519,65.2944287 Z" id="Path" fill="#373835"></path>
            </g>
        </g>
    </g>
</svg>