<?xml version="1.0" encoding="UTF-8"?>
<svg width="117px" height="117px" viewBox="0 0 117 117" version="1.1" xmlns="http://www.w3.org/2000/svg" xmlns:xlink="http://www.w3.org/1999/xlink">
    <title>F4881201-9B48-4C57-B5AE-24FD2D56DEC8</title>
    <g id="Desktop" stroke="none" stroke-width="1" fill="none" fill-rule="evenodd">
        <g id="0.0-Exportable-Items-Copy" transform="translate(-1213.000000, -8548.000000)" fill-rule="nonzero">
            <g id="icon-social-shoppers-small" transform="translate(1213.000000, 8548.494200)">
                <circle id="Oval" fill="#FFFEF7" cx="58.4178595" cy="58.5058" r="55"></circle>
                <path d="M116.247859,57.1858 C116.317516,55.552156 116.28746,53.9157842 116.157859,52.2858 C116.147859,53.7058 116.127859,55.2158 116.247859,57.1858 Z" id="Path" fill="#FFFEF8"></path>
                <path d="M109.957859,59.7158 C109.957859,60.1258 109.957859,60.5958 109.897859,61.0658 C109.927859,60.6158 109.947859,60.1558 109.957859,59.7158 Z" id="Path" fill="#FFFEF8"></path>
                <path d="M54.1578595,0.2158 L53.8978595,0.5058 L52.5778595,0.5058 C52.2378595,0.5058 51.9878595,0.5658 51.7878595,0.5758 C51.5617795,0.598864524 51.3339394,0.598864524 51.1078595,0.5758 C50.2559049,0.569858189 49.4063726,0.667235417 48.5778595,0.8658 C48.0241122,1.05135903 47.4553141,1.18853976 46.8778595,1.2758 C46.1678595,1.4258 45.3578595,1.6558 44.5478595,1.8358 C43.2384909,2.07438722 41.9483687,2.40861576 40.6878595,2.8358 C40.1159532,3.04814231 39.5272153,3.21205229 38.9278595,3.3258 C37.935939,3.81022644 36.909859,4.22132689 35.8578595,4.5558 C35.4478595,4.7558 36.1978595,4.4858 36.5278595,4.4258 C35.6428984,4.7774359 34.7811638,5.18492278 33.9478595,5.6458 C32.9478595,6.0758 32.6078595,6.1058 33.7078595,5.5558 C32.8678595,5.9758 31.5778595,6.4958 30.0778595,7.3358 L27.6578595,8.7758 C26.7143719,9.30516422 25.8028013,9.88950438 24.9278595,10.5258 C22.8970052,11.9349763 20.9626873,13.4784217 19.1378595,15.1458 C17.1240273,16.9505159 15.2300098,18.8846185 13.4678595,20.9358 C12.5978595,21.9358 11.8078595,23.1158 10.9778595,24.1958 C10.5678595,24.7458 10.1478595,25.2758 9.76785946,25.8258 L8.76785946,27.5358 C8.08785946,28.6758 7.36785946,29.7558 6.76785946,30.8658 C6.16785946,31.9758 5.69785946,33.0858 5.18785946,34.1358 C3.71432796,37.2981374 2.56512147,40.6016873 1.75785946,43.9958 C2.15785946,42.9958 2.65785946,40.5558 3.26785946,39.7658 C3.10785946,40.2758 2.96785946,40.7658 2.82785946,41.0958 C2.68785946,41.4258 2.63785946,41.8358 2.55785946,42.1458 C2.40103191,42.6532157 2.28072452,43.1712059 2.19785946,43.6958 C1.77870935,44.5927444 1.46656296,45.5358964 1.26785946,46.5058 C1.08377503,47.6460878 0.833349932,48.7746703 0.517859463,49.8858 L0.607859463,50.5258 L0.327859463,51.5258 C0.211473277,52.4546517 0.151363569,53.3896916 0.147859463,54.3258 C0.147859463,55.0458 0.147859463,55.5658 0.147859463,55.9458 C0.147859463,56.7258 0.147859463,56.9458 0.097859463,57.1558 C0.047859463,57.3658 0.097859463,57.5258 0.027859463,58.1558 C-0.042140537,58.7858 0.027859463,59.9058 0.147859463,61.9858 C0.233805217,63.8878851 0.488133199,65.7786128 0.907859463,67.6358 C1.18785946,69.1158 1.38785946,70.3358 1.71785946,71.6358 C1.62785946,71.2558 1.46785946,70.2058 1.82785946,71.3958 C1.71785946,71.6458 2.75785946,74.5758 2.75785946,75.2058 C3.08785946,76.3758 4.49785946,80.0758 4.22785946,78.7458 C4.28785946,79.0758 4.61785946,80.0758 4.82785946,80.7458 C5.03785946,81.4158 5.16785946,81.7458 4.71785946,80.8058 C5.16785946,81.9058 5.71785946,82.9358 6.07785946,83.6958 L5.47785946,82.2958 C6.37785946,84.0858 6.94785946,85.5358 7.64785946,86.7258 C8.34785946,87.9158 8.97785946,88.9358 9.73785946,89.9958 L9.04785946,88.6758 C9.68785946,89.6758 10.1978595,90.6758 10.7578595,91.3958 C11.1896662,91.9609306 11.5648076,92.5671857 11.8778595,93.2058 L10.3178595,91.3258 L13.4178595,95.3958 C14.4178595,96.5258 15.4178595,97.5458 16.5778595,98.7358 L15.7878595,97.8558 L17.4178595,99.5058 L20.1278595,101.8658 C20.6478595,102.3158 21.1278595,102.7958 21.7478595,103.2558 L23.5978595,104.5958 C24.872268,105.577122 26.2083477,106.475635 27.5978595,107.2858 L29.6978595,108.5058 C30.3653586,108.928284 31.0640428,109.299355 31.7878595,109.6158 L35.7878595,111.4358 C38.2778595,112.3458 40.2778595,112.9658 41.1978595,113.2458 L39.5178595,112.5058 C40.5560567,112.8703 41.6187002,113.161023 42.6978595,113.3758 C42.3278595,113.2858 40.9978595,113.5158 40.6978595,113.3158 C41.5278595,113.6458 42.8678595,113.9058 44.5078595,114.3158 C45.3378595,114.5058 46.2378595,114.7958 47.2378595,114.9658 L50.4178595,115.5058 L52.1478595,115.7658 C52.755446,115.836629 53.3662264,115.87668 53.9778595,115.8858 L57.8078595,116.0658 C59.1178595,116.0658 60.4578595,115.9658 61.8078595,115.9158 L63.8078595,115.8058 C64.4786157,115.749246 65.1461185,115.659133 65.8078595,115.5358 L69.8078595,114.9158 L73.6678595,113.9158 C74.2978595,113.7458 74.9278595,113.6058 75.5378595,113.4158 L77.2978595,112.7758 L80.7578595,111.5058 C82.7578595,110.5058 84.6078595,109.6858 86.0778595,108.9358 L89.3178595,107.0058 C91.6278595,105.7058 89.8678595,107.0058 89.8578595,107.0058 C90.329484,106.734546 90.7747501,106.419847 91.1878595,106.0658 C91.4378595,105.8558 91.5578595,105.7458 91.6578595,105.6458 C92.1236925,105.231375 92.6182604,104.850424 93.1378595,104.5058 C93.7578595,104.0758 93.1378595,104.7058 92.7678595,104.9758 C93.4337725,104.521412 94.0716029,104.027177 94.6778595,103.4958 C93.4378595,104.3558 93.8178595,103.8058 93.2278595,104.0758 C94.1865904,103.404484 95.1017621,102.673014 95.9678595,101.8858 L95.9678595,102.0858 C96.2578595,101.8258 96.5678595,101.4258 97.1278595,100.8058 C97.4078595,100.4958 97.7478595,100.1258 98.1278595,99.7058 L98.8578595,99.0158 C99.1078595,98.7458 99.3678595,98.4558 99.6678595,98.1458 C103.864449,93.8566781 107.333327,88.9117538 109.937859,83.5058 C109.664581,84.3230503 109.330308,85.1186212 108.937859,85.8858 C109.287859,85.1858 109.787859,84.0958 110.157859,83.4658 C109.417859,84.6758 111.157859,81.2058 110.597859,82.1858 C110.787859,81.6758 111.027859,81.1858 111.217859,80.6458 C111.407859,80.1058 111.587859,79.5458 111.767859,78.9858 C112.167859,77.8758 112.577859,76.7458 112.977859,75.6158 C113.377859,74.4858 113.587859,73.3258 113.867859,72.2458 C114.148176,71.2635541 114.348826,70.2603026 114.467859,69.2458 C114.357859,69.0558 113.467859,66.8258 112.467859,64.8358 L112.107859,64.0958 C111.967859,63.8558 111.817859,63.6158 111.687859,63.3858 C111.407859,62.9258 111.147859,62.5058 110.917859,62.1558 C110.685223,61.7239696 110.384729,61.3323135 110.027859,60.9958 C110.087859,59.9358 110.147859,58.8758 110.197859,58.5558 C110.032643,59.7018823 109.945775,60.8578974 109.937859,62.0158 L110.117859,62.2158 C110.027859,64.7758 110.117859,62.8158 109.717859,65.2758 C109.637859,65.3358 109.717859,64.7958 109.767859,63.9958 C109.817859,63.1958 109.837859,62.1158 109.877859,61.1158 C109.817859,62.0158 109.747859,62.9158 109.697859,63.6858 C109.598837,64.2676011 109.542022,64.8558021 109.527859,65.4458 C109.207859,67.1158 109.377859,65.2358 109.007859,67.2458 C108.853573,68.920429 108.518283,70.5734099 108.007859,72.1758 L108.007859,72.1758 C107.507859,74.1758 106.897859,75.5758 106.467859,77.0258 C106.258396,77.7598055 105.997758,78.4782315 105.687859,79.1758 C105.357859,79.8958 104.997859,80.6358 104.557859,81.4558 L104.687859,81.0758 C104.337859,81.6358 103.987859,82.5558 103.437859,83.5058 C102.887859,84.4558 102.227859,85.5058 101.577859,86.5058 C101.947859,85.9458 102.347859,85.5058 101.577859,86.7258 C101.242452,87.2632022 100.871632,87.7776736 100.467859,88.2658 L99.4678595,89.5958 L98.5478595,90.8158 C98.3978595,91.0058 98.2478595,91.2058 98.0878595,91.3958 L97.5578595,91.9158 L96.4178595,93.3458 L95.0078595,94.8958 C94.4278595,95.4558 93.7478595,96.0358 93.0078595,96.7058 L91.8778595,97.7058 C91.486432,98.0695128 91.0686243,98.403759 90.6278595,98.7058 L87.7678595,100.8558 C83.1526578,104.0289 78.0719052,106.464693 72.7078595,108.0758 C71.2778595,108.4258 69.8678595,108.8558 68.4378595,109.1558 L64.1678595,109.8258 C62.7578595,110.0058 61.3578595,110.0058 60.0178595,110.1058 C59.3378595,110.1058 58.6778595,110.2158 58.0178595,110.1858 L56.0978595,110.0958 C54.8478595,110.0058 53.6378595,110.0958 52.5178595,109.8758 L49.4178595,109.5058 L48.0178595,109.3058 L46.7878595,108.9858 L44.7878595,108.4658 L45.1578595,108.5458 C40.8408046,107.43432 36.6909946,105.752874 32.8178595,103.5458 L29.4178595,101.5058 L26.1678595,99.0858 C25.8978595,98.8858 25.6178595,98.6858 25.3478595,98.4658 L24.5878595,97.7758 L23.0378595,96.3758 C22.5378595,95.8958 21.9778595,95.4658 21.5078595,94.9558 L20.0878595,93.3958 L18.6678595,91.8458 C18.2234712,91.3173618 17.8062649,90.7666495 17.4178595,90.1958 L16.1178595,88.5058 C15.6830541,87.9668098 15.2854673,87.3988285 14.9278595,86.8058 L12.7978595,83.3258 L11.0578595,79.7658 C9.15740242,75.6276981 7.81241443,71.2564871 7.05785946,66.7658 C7.00785946,66.1858 6.93785946,65.5458 6.84785946,64.8858 C6.84785946,64.5458 6.75785946,64.2058 6.71785946,63.8858 C6.67785946,63.5658 6.71785946,63.1858 6.71785946,62.8858 C6.65785946,61.4858 6.59785946,60.0658 6.54785946,58.8858 C6.54785946,60.2458 6.42785946,59.7858 6.37785946,58.7258 C6.52057218,57.3975622 6.56736008,56.0607652 6.51785946,54.7258 C6.49553698,54.5030245 6.49553698,54.2785755 6.51785946,54.0558 C6.55731134,52.9210299 6.68435587,51.7910022 6.89785946,50.6758 C7.05163717,49.244975 7.31236645,47.8276774 7.67785946,46.4358 L8.37785946,43.6758 C8.4933064,43.1670594 8.65050566,42.6687043 8.84785946,42.1858 C9.03785946,41.6858 9.21785946,41.1858 9.41785946,40.6458 C9.61785946,40.1058 9.79785946,39.5858 9.99785946,39.0458 C10.0978595,38.7658 10.2078595,38.4958 10.3078595,38.2158 L10.6978595,37.4158 L12.2978595,34.0858 C12.8778595,32.9758 13.6078595,31.9058 14.2978595,30.7958 C14.6378595,30.2558 14.9378595,29.6758 15.2978595,29.1558 L16.4178595,27.5058 C17.9564804,25.4593668 19.626678,23.5152568 21.4178595,21.6858 C22.3278595,20.8358 23.2478595,20.0358 24.1178595,19.2458 C24.5578595,18.8558 24.9678595,18.4458 25.4178595,18.1058 L26.7578595,17.1058 C27.6378595,16.4658 28.4678595,15.8458 29.2478595,15.2658 L31.5778595,13.8858 L33.5178595,12.7258 C34.1178595,12.4258 34.6578595,12.1958 35.0878595,11.9858 C35.9978595,11.4958 36.9778595,10.9858 37.9878595,10.4758 C38.9978595,9.9658 40.1378595,9.6658 41.2278595,9.2558 L42.8478595,8.6558 L44.4978595,8.2258 C45.5878595,7.9358 46.6378595,7.6458 47.6178595,7.3558 L47.2278595,7.5158 C48.0389577,7.30054795 48.8643896,7.14348195 49.6978595,7.0458 C50.7878595,6.9058 52.1078595,6.6258 53.6078595,6.5058 L58.5378595,6.2758 C60.2878595,6.3858 62.1178595,6.4558 63.9578595,6.5858 C65.7678595,6.8958 67.6078595,7.1258 69.3378595,7.4758 C71.0678595,7.8258 72.7078595,8.3258 74.1878595,8.7558 L78.0578595,10.1758 C78.5531936,10.3408438 79.0346955,10.5448134 79.4978595,10.7858 L80.5578595,11.2858 L79.9578595,10.9558 C81.1936102,11.4701189 82.3959604,12.0612744 83.5578595,12.7258 C84.2478595,13.2058 84.8178595,13.6558 86.2878595,14.5858 C86.1578595,14.3758 86.9278595,14.6958 87.8678595,15.2358 C88.8078595,15.7758 89.8678595,16.5758 90.4278595,17.0058 L90.3178595,17.0058 C90.7578595,17.3358 91.3778595,17.7158 92.0178595,18.2358 L94.1178595,20.0258 C95.6273983,21.3110756 97.0411512,22.7047753 98.3478595,24.1958 L98.1478595,24.1958 L99.0178595,25.0958 L99.8978595,26.2158 L101.767859,28.6758 C102.927859,30.3958 103.887859,32.1258 104.477859,33.0358 C105.865462,35.7018623 107.039151,38.4739092 107.987859,41.3258 C108.55055,42.9437286 109.018016,44.5932184 109.387859,46.2658 C109.818494,47.9115209 110.152398,49.5810445 110.387859,51.2658 C110.387859,51.9758 110.507859,52.6858 110.497859,53.4058 L110.417859,55.5058 L110.487859,56.1258 C111.176468,57.0725611 112.038359,57.8801596 113.027859,58.5058 C114.297859,59.1558 115.717859,58.7458 115.937859,53.8758 L116.077859,54.0158 C116.059313,53.3800172 116.0059,52.7457307 115.917859,52.1158 C115.637859,49.8358 115.327859,48.8158 115.477859,48.9458 L115.937859,52.0558 C115.627859,49.7758 115.937859,51.3558 116.147859,52.2158 C116.017859,51.2158 115.887859,50.3358 115.817859,49.5658 C115.697859,49.1258 115.817859,49.9058 115.817859,50.2658 L115.397859,48.1658 L115.187859,47.0058 C115.117859,46.6158 115.007859,46.2458 114.927859,45.8758 C114.357859,43.5858 115.107859,45.6758 114.427859,42.9958 C110.634039,28.802689 101.567323,16.5921288 89.0778595,8.8558 C88.8178595,8.6358 89.1678595,8.8558 89.5478595,9.0458 L86.7378595,7.3758 C85.8178595,6.8358 84.8478595,6.4458 83.9278595,5.9858 L81.1678595,4.6758 L78.2978595,3.6758 C77.7461892,3.45135936 77.2114628,3.18733817 76.6978595,2.8858 C76.4451382,2.83017602 76.1975857,2.75323402 75.9578595,2.6558 C75.4178595,2.5058 74.5778595,2.2858 73.5678595,2.0258 C72.5578595,1.7658 71.4178595,1.5058 70.0778595,1.1658 L65.9278595,0.5058 C64.531112,0.289174569 63.121117,0.168890628 61.7078595,0.1458 C60.3478595,0.1458 59.0678595,-0.0342 57.9678595,0.0058 L54.1578595,0.2158 Z" id="Path" fill="#FFFEF8"></path>
                <path d="M41.6578595,67.1058 C41.6785479,67.0407384 41.6785479,66.9708616 41.6578595,66.9058 C41.6404748,66.9713333 41.6404748,67.0402667 41.6578595,67.1058 L41.6578595,67.1058 Z" id="Path" fill="#373835"></path>
                <path d="M43.1678595,80.9758 L43.1678595,80.9758 C43.1678595,80.7958 43.1078595,80.6958 43.1678595,80.5258 L43.1678595,80.5258 C43.1678595,80.4658 43.1678595,80.3458 43.1678595,80.2358 C43.1678595,80.1258 43.1678595,80.2958 43.1678595,80.2358 C43.1609066,80.1359209 43.1609066,80.0356791 43.1678595,79.9358 L43.1678595,79.8458 C43.1678595,79.4158 43.1678595,77.7058 43.1678595,77.2758 L43.1678595,77.2758 C43.1678595,76.6158 43.1678595,75.2758 43.1078595,74.5758 C43.1177392,74.4560034 43.1177392,74.3355966 43.1078595,74.2158 C43.1078595,74.2758 43.1078595,74.2158 43.1078595,74.2158 C43.1078595,73.8758 43.1078595,74.2158 43.1078595,73.8558 C43.1078595,73.4958 43.1078595,71.9658 43.1078595,71.6158 C43.1078595,71.4258 43.1078595,71.1958 43.1078595,71.0158 L43.1078595,71.0158 C43.1078595,70.8258 43.1078595,69.7158 43.1078595,69.4858 L43.1078595,69.4858 C43.1078595,69.2858 43.1078595,69.3158 43.1078595,69.1558 C43.1078595,69.1558 43.0278595,69.0058 43.0178595,68.9358 L43.0178595,68.9358 C43.0178595,68.8358 43.0178595,68.6158 42.9578595,68.4458 L42.9578595,68.4458 C42.9434888,68.2827828 42.9434888,68.1188172 42.9578595,67.9558 C42.9839188,67.6697256 42.9839188,67.3818744 42.9578595,67.0958 L43.0478595,66.9058 L43.0478595,66.9058 C43.0478595,66.9058 41.9978595,66.5958 41.7778595,66.9958 L41.7778595,66.9958 L41.7778595,67.0758 C41.7778595,67.1658 41.7778595,67.2058 41.7778595,67.2058 L41.7778595,67.0758 C41.7778595,67.1658 41.7778595,67.0758 41.7778595,67.0758 C41.7833404,67.1122618 41.7833404,67.1493382 41.7778595,67.1858 C41.7778595,67.1858 41.7778595,67.1858 41.7778595,67.1858 C41.7931015,67.244832 41.7931015,67.306768 41.7778595,67.3658 C41.7778595,67.4658 41.7278595,67.3658 41.7278595,67.4858 C41.7278595,68.0758 41.6678595,68.6458 41.7278595,69.2458 C41.7278595,69.2458 41.7278595,69.2458 41.7278595,69.2458 C41.7278595,69.4258 41.7278595,69.5858 41.7278595,69.7458 C41.7337869,69.7687569 41.7337869,69.7928431 41.7278595,69.8158 C41.7278595,69.8158 41.7278595,70.7158 41.7278595,70.7358 L41.7778595,70.7358 C41.7778595,70.9058 41.7178595,70.7358 41.7278595,70.9458 C41.7378595,71.1558 41.7278595,71.2158 41.7278595,71.2758 C41.7278595,71.3358 41.7278595,71.3558 41.7278595,71.3458 C41.7278595,71.3358 41.7278595,71.4358 41.7278595,71.4858 C41.7278595,71.5358 41.7278595,71.4858 41.7278595,71.4858 L41.7278595,71.6058 C41.7278595,71.6058 41.7278595,71.6058 41.7278595,71.6058 C41.7278595,71.9058 41.6778595,73.3558 41.7278595,73.6858 C41.7278595,73.6858 41.7278595,73.5458 41.7878595,73.5058 C41.8478595,73.4658 41.7878595,73.6358 41.7878595,73.6658 C41.7878595,73.6958 41.7878595,73.8558 41.6878595,73.9258 L41.7378595,73.9258 L41.7378595,73.9258 C41.76255,74.0647114 41.76255,74.2068886 41.7378595,74.3458 C41.7378595,74.5358 41.8078595,74.6258 41.7378595,74.7358 C41.6678595,74.8458 41.7378595,74.6758 41.7378595,74.7358 C41.7378595,74.7958 41.7378595,74.8758 41.7378595,74.8958 C41.7378595,74.9158 41.7378595,75.1058 41.7878595,75.0558 C41.8378595,75.0058 41.7878595,75.2158 41.7278595,75.1358 C41.7225249,75.1789692 41.7225249,75.2226308 41.7278595,75.2658 L41.7278595,75.2058 C41.7278595,75.3658 41.7278595,75.4558 41.7278595,75.5558 L41.7278595,75.4958 C41.7278595,75.5958 41.7278595,75.6758 41.7278595,75.7158 L41.7278595,75.6158 C41.7117536,75.7453012 41.7117536,75.8762988 41.7278595,76.0058 L41.7278595,76.0058 C41.7278595,76.1758 41.8178595,77.0758 41.8778595,77.2258 L41.8778595,77.1558 L41.8778595,77.2958 C41.8778595,77.2958 41.7578595,77.2258 41.7678595,77.2158 C41.7678595,77.5058 41.7678595,79.0158 41.7678595,79.2758 C41.7678595,79.5358 41.7078595,79.2758 41.6978595,79.2758 C41.6878595,79.2758 41.6978595,79.3358 41.6978595,79.4458 C41.6978595,79.5558 41.6978595,79.4458 41.6978595,79.4458 C41.6978595,79.4458 41.6978595,79.5358 41.6978595,79.5458 C41.6978595,79.5558 41.7578595,79.5458 41.7978595,79.4758 L41.7978595,79.6258 L41.7978595,79.6258 C41.7978595,79.6258 41.8778595,79.7058 41.8678595,79.8458 C41.8578595,79.9858 41.8678595,80.3458 41.8678595,80.5858 C41.8678595,80.5858 41.8678595,80.5358 41.8678595,80.4858 C41.8728005,80.5223002 41.8728005,80.5592998 41.8678595,80.5958 C41.8678595,80.5358 41.8678595,80.6958 41.8678595,80.5958 C41.9478595,80.7758 41.8678595,80.9958 41.9278595,81.1558 C41.9878595,81.3158 43.0778595,81.4858 43.1578595,81.4858 C43.1651327,81.522106 43.1651327,81.559494 43.1578595,81.5958 C43.1578595,81.5958 43.1578595,81.4858 43.1578595,81.4358 L43.1578595,81.4358 C43.1578595,81.3158 43.1578595,81.4358 43.1578595,81.2958 C43.1578595,81.1558 43.1578595,81.3858 43.1578595,81.4858 C43.1578595,81.3958 43.1578595,81.3158 43.1578595,81.2858 C43.1578595,81.2558 43.1578595,81.2858 43.2078595,81.1958 C43.1801318,81.1258269 43.1665369,81.051055 43.1678595,80.9758 Z" id="Path" fill="#373835"></path>
                <path d="M72.9878595,67.1058 C73.0085479,67.0407384 73.0085479,66.9708616 72.9878595,66.9058 C72.9754061,66.9718851 72.9754061,67.0397149 72.9878595,67.1058 Z" id="Path" fill="#373835"></path>
                <path d="M74.4978595,80.9758 L74.4978595,80.9758 C74.4978595,80.7958 74.4978595,80.6958 74.4978595,80.5258 L74.4978595,80.5258 C74.4978595,80.4658 74.4978595,80.3458 74.4978595,80.2358 C74.4978595,80.1258 74.4978595,80.2958 74.4978595,80.2358 C74.4978595,80.1758 74.4978595,80.0258 74.4978595,79.9358 L74.4978595,79.8458 C74.4978595,79.4158 74.4978595,77.7058 74.4978595,77.2758 L74.4978595,77.2758 C74.4978595,76.6158 74.4978595,75.2758 74.4378595,74.5758 C74.4477392,74.4560034 74.4477392,74.3355966 74.4378595,74.2158 C74.4378595,74.2758 74.4378595,74.2158 74.4378595,74.2158 C74.4378595,73.8758 74.4378595,74.2158 74.4378595,73.8558 C74.4378595,73.4958 74.4378595,71.9658 74.4378595,71.6158 C74.4378595,71.4258 74.4378595,71.1958 74.4378595,71.0158 L74.4378595,71.0158 C74.4378595,70.8258 74.4378595,69.7158 74.4378595,69.4858 L74.4378595,69.4858 C74.4378595,69.2858 74.4378595,69.3158 74.4378595,69.1558 C74.4378595,69.1558 74.3478595,69.0058 74.3478595,68.9358 L74.3478595,68.9358 C74.3186214,68.7737309 74.2985893,68.6101354 74.2878595,68.4458 L74.2878595,68.4458 C74.2734888,68.2827828 74.2734888,68.1188172 74.2878595,67.9558 C74.3139188,67.6697256 74.3139188,67.3818744 74.2878595,67.0958 L74.3778595,66.9058 L74.3778595,66.9058 C74.3778595,66.9058 73.3778595,66.5958 73.1078595,66.9958 L73.1078595,66.9958 L73.1078595,67.0758 C73.1078595,67.1658 73.1078595,67.2058 73.1078595,67.2058 L73.1078595,67.0758 C73.1078595,67.1658 73.1078595,67.0758 73.1078595,67.0758 C73.1078595,67.0758 73.1078595,67.1558 73.1078595,67.1858 C73.1078595,67.2158 73.1078595,67.1858 73.1078595,67.1858 C73.1231015,67.244832 73.1231015,67.306768 73.1078595,67.3658 C73.1078595,67.4658 73.1078595,67.3658 73.1078595,67.4858 C73.1078595,68.0758 73.0478595,68.6458 73.1078595,69.2458 C73.1078595,69.2458 73.1078595,69.2458 73.1078595,69.2458 C73.1078595,69.4258 73.1078595,69.5858 73.1078595,69.7458 C73.1162928,69.7683713 73.1162928,69.7932287 73.1078595,69.8158 C73.1236669,70.122263 73.1236669,70.429337 73.1078595,70.7358 L73.1078595,70.7358 C73.1078595,70.9058 73.0478595,70.7358 73.1078595,70.9458 C73.1678595,71.1558 73.1078595,71.2158 73.1078595,71.2758 C73.1078595,71.3358 73.1078595,71.3558 73.1078595,71.3458 C73.1078595,71.3358 73.1078595,71.4358 73.1078595,71.4858 C73.1078595,71.5358 73.1078595,71.4858 73.1078595,71.4858 L73.1078595,71.6058 C73.1078595,71.6058 73.1078595,71.6058 73.1078595,71.6058 C73.1078595,71.9058 73.0478595,73.3558 73.1078595,73.6858 C73.1078595,73.6858 73.1078595,73.5458 73.1678595,73.5058 C73.2278595,73.4658 73.1678595,73.6358 73.1678595,73.6658 C73.1678595,73.6958 73.1678595,73.8558 73.0678595,73.9258 L73.0678595,73.9258 L73.0678595,73.9258 C73.09255,74.0647114 73.09255,74.2068886 73.0678595,74.3458 C73.0788531,74.4755676 73.0788531,74.6060324 73.0678595,74.7358 C73.0678595,74.7358 73.0678595,74.6758 73.0678595,74.7358 C73.0678595,74.7958 73.0678595,74.8758 73.0678595,74.8958 C73.0678595,74.9158 73.0678595,75.1058 73.0678595,75.0558 C73.0678595,75.0058 73.0678595,75.2158 73.0078595,75.1358 C73.0028126,75.1789864 73.0028126,75.2226136 73.0078595,75.2658 L73.0078595,75.2058 C73.0078595,75.3658 73.0078595,75.4558 73.0078595,75.5558 L73.0078595,75.4958 C73.0078595,75.5958 73.0078595,75.6758 73.0078595,75.7158 L73.0078595,75.6158 C72.9964699,75.7455505 72.9964699,75.8760495 73.0078595,76.0058 L73.0078595,76.0058 C73.0578595,76.1758 73.0978595,77.0758 73.1578595,77.2258 L73.1578595,77.1558 L73.1578595,77.2958 C73.1578595,77.2958 73.0378595,77.2258 73.0478595,77.2158 C73.0478595,77.5058 73.0478595,79.0158 73.0478595,79.2758 C73.0478595,79.5358 72.9878595,79.2758 72.9778595,79.2758 C72.9678595,79.2758 72.9778595,79.3358 72.9778595,79.4458 C72.9778595,79.5558 72.9778595,79.4458 72.9778595,79.4458 C72.9778595,79.4458 72.9778595,79.5358 72.9778595,79.5458 C72.9778595,79.5558 73.0378595,79.5458 73.0678595,79.4758 L73.0678595,79.6258 L73.0678595,79.6258 C73.0678595,79.6258 73.1478595,79.7058 73.1378595,79.8458 C73.1278595,79.9858 73.1378595,80.3458 73.1378595,80.5858 C73.1378595,80.5858 73.1378595,80.5358 73.1378595,80.4858 C73.1428005,80.5223002 73.1428005,80.5592998 73.1378595,80.5958 C73.1378595,80.5358 73.1378595,80.6958 73.1378595,80.5958 C73.2178595,80.7758 73.1378595,80.9958 73.1978595,81.1558 C73.2578595,81.3158 74.3578595,81.5058 74.4178595,81.5058 C74.4251327,81.542106 74.4251327,81.579494 74.4178595,81.6158 C74.4178595,81.6158 74.4178595,81.5058 74.4178595,81.4558 L74.4178595,81.4558 C74.4178595,81.3358 74.4178595,81.4558 74.4178595,81.3158 C74.4178595,81.1758 74.4178595,81.4058 74.4178595,81.5058 C74.4178595,81.4158 74.4178595,81.3358 74.4178595,81.3058 C74.4178595,81.2758 74.4178595,81.3058 74.4778595,81.2158 C74.4673567,81.1352886 74.4741755,81.0534625 74.4978595,80.9758 Z" id="Path" fill="#373835"></path>
                <path d="M62.5478595,67.1058 C62.563964,67.0401059 62.563964,66.9714941 62.5478595,66.9058 C62.5309239,66.9713911 62.5309239,67.0402089 62.5478595,67.1058 L62.5478595,67.1058 Z" id="Path" fill="#373835"></path>
                <path d="M64.0578595,80.9758 L64.0578595,80.9758 C64.0578595,80.7958 64.0578595,80.6958 64.0578595,80.5258 L64.0578595,80.5258 C64.0578595,80.4658 64.0578595,80.3458 64.0578595,80.2358 C64.0578595,80.1258 64.0578595,80.2958 64.0578595,80.2358 C64.0578595,80.1758 64.0578595,80.0258 64.0578595,79.9358 L64.0578595,79.8458 C64.0578595,79.4158 64.0578595,77.7058 64.0578595,77.2758 L64.0578595,77.2758 C64.0578595,76.6158 64.0578595,75.2758 63.9878595,74.5758 C64.0026088,74.4562532 64.0026088,74.3353468 63.9878595,74.2158 C63.9878595,74.2758 63.9878595,74.2158 63.9878595,74.2158 C63.9878595,73.8758 63.9878595,74.2158 63.9878595,73.8558 C63.9878595,73.4958 63.9878595,71.9658 63.9878595,71.6158 C63.9878595,71.4258 63.9878595,71.1958 63.9878595,71.0158 L63.9878595,71.0158 C63.9878595,70.8258 63.9878595,69.7158 63.9878595,69.4858 L63.9878595,69.4858 C63.9878595,69.2858 63.9878595,69.3158 63.9878595,69.1558 C63.9278595,69.1558 63.8978595,69.0058 63.8978595,68.9358 L63.8978595,68.9358 C63.8978595,68.8358 63.8378595,68.6158 63.8278595,68.4458 L63.8278595,68.4458 C63.8184802,68.2826013 63.8184802,68.1189987 63.8278595,67.9558 C63.8593195,67.6699965 63.8593195,67.3816035 63.8278595,67.0958 L63.9078595,66.9058 L63.9078595,66.9058 C63.9078595,66.9058 62.9078595,66.5958 62.6278595,66.9958 L62.6278595,66.9958 L62.6278595,67.0758 C62.6278595,67.1658 62.6278595,67.2058 62.6278595,67.2058 L62.6278595,67.0758 C62.6278595,67.1658 62.6278595,67.0758 62.6278595,67.0758 C62.6334944,67.1122502 62.6334944,67.1493498 62.6278595,67.1858 C62.6278595,67.1858 62.6278595,67.1858 62.6278595,67.1858 C62.638323,67.2453438 62.638323,67.3062562 62.6278595,67.3658 C62.6278595,67.4658 62.6278595,67.3658 62.5678595,67.4858 C62.5678595,68.0758 62.5678595,68.6458 62.5678595,69.2458 C62.5678595,69.2458 62.5678595,69.2458 62.5678595,69.2458 C62.5678595,69.4258 62.5678595,69.5858 62.5678595,69.7458 C62.5711423,69.7690179 62.5711423,69.7925821 62.5678595,69.8158 C62.5884163,70.1221222 62.5884163,70.4294778 62.5678595,70.7358 L62.6278595,70.7358 C62.6278595,70.9058 62.5578595,70.7358 62.6278595,70.9458 C62.6978595,71.1558 62.6278595,71.2158 62.6278595,71.2758 C62.6278595,71.3358 62.6278595,71.3558 62.6278595,71.3458 C62.6278595,71.3358 62.6278595,71.4358 62.6278595,71.4858 C62.6278595,71.5358 62.6278595,71.4858 62.6278595,71.4858 L62.6278595,71.6058 C62.6278595,71.6058 62.6278595,71.6058 62.6278595,71.6058 C62.6278595,71.9058 62.5678595,73.3558 62.6278595,73.6858 C62.6278595,73.6858 62.6278595,73.5458 62.6878595,73.5058 C62.7478595,73.4658 62.6878595,73.6358 62.6878595,73.6658 C62.6878595,73.6958 62.6878595,73.8558 62.5978595,73.9258 L62.5978595,73.9258 L62.5978595,73.9258 C62.62255,74.0647114 62.62255,74.2068886 62.5978595,74.3458 C62.5978595,74.5358 62.6578595,74.6258 62.5978595,74.7358 C62.5378595,74.8458 62.5978595,74.6758 62.5978595,74.7358 C62.5978595,74.7958 62.5978595,74.8758 62.5978595,74.8958 C62.5978595,74.9158 62.5978595,75.1058 62.5978595,75.0558 C62.5978595,75.0058 62.5978595,75.2158 62.5378595,75.1358 C62.5328126,75.1789864 62.5328126,75.2226136 62.5378595,75.2658 L62.5378595,75.2058 C62.5378595,75.3658 62.5378595,75.4558 62.5378595,75.5558 L62.5378595,75.4958 C62.5378595,75.5958 62.5378595,75.6758 62.5378595,75.7158 L62.5378595,75.6158 C62.5267695,75.7455635 62.5267695,75.8760365 62.5378595,76.0058 L62.5378595,76.0058 C62.5378595,76.1758 62.6378595,77.0758 62.6978595,77.2258 L62.6978595,77.1558 L62.6978595,77.2958 C62.6978595,77.2958 62.5678595,77.2258 62.5878595,77.2158 C62.5878595,77.5058 62.5878595,79.0158 62.5878595,79.2758 C62.5878595,79.5358 62.5278595,79.2758 62.5278595,79.2758 C62.5278595,79.2758 62.5278595,79.3358 62.5278595,79.4458 C62.5278595,79.5558 62.5278595,79.4458 62.5278595,79.4458 C62.5278595,79.4458 62.5278595,79.5358 62.5278595,79.5458 C62.5278595,79.5558 62.5878595,79.5458 62.6178595,79.4758 L62.6178595,79.6258 L62.6178595,79.6258 C62.6178595,79.6258 62.6978595,79.7058 62.6778595,79.8458 C62.6578595,79.9858 62.6778595,80.3458 62.6778595,80.5858 C62.6778595,80.5858 62.6778595,80.5358 62.6778595,80.4858 C62.6778595,80.4358 62.6778595,80.5658 62.6778595,80.5958 C62.6778595,80.6258 62.6778595,80.6958 62.6778595,80.5958 C62.7478595,80.7758 62.6778595,80.9958 62.7378595,81.1558 C62.7978595,81.3158 63.8878595,81.4858 63.9678595,81.4858 C63.9698777,81.5224389 63.9698777,81.5591611 63.9678595,81.5958 C63.9678595,81.5958 63.9678595,81.4858 63.9678595,81.4358 L63.9678595,81.4358 C63.9678595,81.3158 63.9678595,81.4358 63.9678595,81.2958 C63.9678595,81.1558 63.9678595,81.3858 63.9678595,81.4858 C63.9678595,81.3958 63.9678595,81.3158 63.9678595,81.2858 C63.9678595,81.2558 63.9678595,81.2858 64.0278595,81.1958 C64.0233417,81.1212091 64.033535,81.0464578 64.0578595,80.9758 Z" id="Path" fill="#373835"></path>
                <path d="M52.1078595,67.1058 C52.123964,67.0401059 52.123964,66.9714941 52.1078595,66.9058 C52.0857635,66.9706358 52.0857635,67.0409642 52.1078595,67.1058 L52.1078595,67.1058 Z" id="Path" fill="#373835"></path>
                <path d="M53.6078595,80.9758 L53.6078595,80.9758 C53.6078595,80.7958 53.5578595,80.6958 53.6078595,80.5258 L53.6078595,80.5258 C53.6078595,80.4658 53.6078595,80.3458 53.6078595,80.2358 C53.6078595,80.1258 53.6078595,80.2958 53.6078595,80.2358 C53.6009066,80.1359209 53.6009066,80.0356791 53.6078595,79.9358 L53.6078595,79.8458 C53.6078595,79.4158 53.6078595,77.7058 53.6078595,77.2758 L53.6078595,77.2758 C53.6078595,76.6158 53.6078595,75.2758 53.5478595,74.5758 C53.5576941,74.4560015 53.5576941,74.3355985 53.5478595,74.2158 C53.5478595,74.2758 53.5478595,74.2158 53.5478595,74.2158 C53.5478595,73.8758 53.5478595,74.2158 53.5478595,73.8558 C53.5478595,73.4958 53.5478595,71.9658 53.5478595,71.6158 C53.4978595,71.4258 53.5478595,71.1958 53.4978595,71.0158 L53.4978595,71.0158 C53.4978595,70.8258 53.4978595,69.7158 53.4978595,69.4858 L53.4978595,69.4858 C53.4978595,69.2858 53.4978595,69.3158 53.4978595,69.1558 C53.4378595,69.1558 53.4078595,69.0058 53.3978595,68.9358 L53.3978595,68.9358 C53.3978595,68.8358 53.3378595,68.6158 53.3278595,68.4458 L53.3278595,68.4458 C53.3134888,68.2827828 53.3134888,68.1188172 53.3278595,67.9558 C53.3543111,67.6697435 53.3543111,67.3818565 53.3278595,67.0958 L53.4078595,66.9058 L53.4078595,66.9058 C53.4078595,66.9058 52.3578595,66.5958 52.1378595,66.9958 L52.1378595,66.9958 L52.1378595,67.0758 C52.1378595,67.1658 52.1378595,67.2058 52.1378595,67.2058 L52.1378595,67.0758 C52.1378595,67.1658 52.1378595,67.0758 52.1378595,67.0758 C52.1378595,67.0758 52.1378595,67.1558 52.1378595,67.1858 C52.1378595,67.2158 52.1378595,67.1858 52.1378595,67.1858 C52.1531015,67.244832 52.1531015,67.306768 52.1378595,67.3658 C52.1378595,67.4658 52.1378595,67.3658 52.0878595,67.4858 C52.0878595,68.0758 52.0278595,68.6458 52.0878595,69.2458 C52.0878595,69.2458 52.0878595,69.2458 52.0878595,69.2458 C52.0878595,69.4258 52.0878595,69.5858 52.0878595,69.7458 C52.0937869,69.7687569 52.0937869,69.7928431 52.0878595,69.8158 C52.1034226,70.1222692 52.1034226,70.4293308 52.0878595,70.7358 L52.1478595,70.7358 C52.1478595,70.9058 52.0778595,70.7358 52.1478595,70.9458 C52.2178595,71.1558 52.1478595,71.2158 52.1478595,71.2758 C52.1478595,71.3358 52.1478595,71.3558 52.1478595,71.3458 C52.1478595,71.3358 52.1478595,71.4358 52.1478595,71.4858 C52.1478595,71.5358 52.1478595,71.4858 52.1478595,71.4858 L52.1478595,71.6058 C52.1478595,71.6058 52.1478595,71.6058 52.1478595,71.6058 C52.1478595,71.9058 52.1478595,73.3558 52.1478595,73.6858 C52.1478595,73.6858 52.1478595,73.5458 52.2078595,73.5058 C52.2678595,73.4658 52.2078595,73.6358 52.2078595,73.6658 C52.2078595,73.6958 52.2078595,73.8558 52.1178595,73.9258 L52.1178595,73.9258 L52.1178595,73.9258 C52.1678595,74.2958 52.1178595,74.0058 52.1178595,74.3458 C52.1178595,74.5358 52.1878595,74.6258 52.1178595,74.7358 C52.0478595,74.8458 52.1178595,74.6758 52.1178595,74.7358 C52.1178595,74.7958 52.1178595,74.8758 52.1178595,74.8958 C52.1178595,74.9158 52.1178595,75.1058 52.1678595,75.0558 C52.2178595,75.0058 52.1678595,75.2158 52.1178595,75.1358 C52.1128126,75.1789864 52.1128126,75.2226136 52.1178595,75.2658 L52.1178595,75.2058 C52.1178595,75.3658 52.1178595,75.4558 52.1178595,75.5558 L52.1178595,75.4958 C52.1178595,75.5958 52.1178595,75.6758 52.0678595,75.7158 L52.0678595,75.6158 C52.0517536,75.7453012 52.0517536,75.8762988 52.0678595,76.0058 L52.0678595,76.0058 C52.0678595,76.1758 52.1578595,77.0758 52.2278595,77.2258 L52.2278595,77.1558 L52.2278595,77.2958 C52.2278595,77.2958 52.0978595,77.2258 52.1078595,77.2158 C52.1078595,77.5058 52.1078595,79.0158 52.1078595,79.2758 C52.1078595,79.5358 52.0478595,79.2758 52.0378595,79.2758 C52.0278595,79.2758 52.0378595,79.3358 52.0378595,79.4458 C52.0378595,79.5558 52.0378595,79.4458 52.0378595,79.4458 C52.0378595,79.4458 52.0378595,79.5358 52.0378595,79.5458 C52.0378595,79.5558 52.1078595,79.5458 52.1378595,79.4758 L52.1378595,79.6258 L52.1378595,79.6258 C52.1378595,79.6258 52.2278595,79.7058 52.2078595,79.8458 C52.1878595,79.9858 52.2078595,80.3458 52.2078595,80.5858 C52.2078595,80.5858 52.2078595,80.5358 52.2078595,80.4858 C52.2128005,80.5223002 52.2128005,80.5592998 52.2078595,80.5958 C52.2078595,80.5358 52.2078595,80.6958 52.2078595,80.5958 C52.2778595,80.7758 52.2078595,80.9958 52.2078595,81.1558 C52.2078595,81.3158 53.3678595,81.4858 53.4478595,81.4858 C53.4444339,81.5223867 53.4444339,81.5592133 53.4478595,81.5958 C53.459529,81.543105 53.459529,81.488495 53.4478595,81.4358 L53.4478595,81.4358 C53.4478595,81.3158 53.4478595,81.4358 53.4478595,81.2958 C53.4478595,81.1558 53.4478595,81.3858 53.4978595,81.4858 C53.4978595,81.3958 53.4978595,81.3158 53.4978595,81.2858 C53.4978595,81.2558 53.4978595,81.2858 53.5578595,81.1958 C53.5594285,81.119834 53.5764403,81.0449819 53.6078595,80.9758 L53.6078595,80.9758 Z" id="Path" fill="#373835"></path>
                <path d="M54.7478595,50.9358 C54.1678595,50.9358 53.1678595,50.9358 52.2278595,50.9358 C52.9478595,50.9258 53.7278595,50.9458 54.7478595,50.9358 Z" id="Path" fill="#373835"></path>
                <path d="M85.2978595,51.0158 C83.9278595,51.0158 85.0578595,50.9458 85.0678595,50.9458 C83.4078595,50.9458 84.3478595,50.9458 82.9378595,50.9458 C82.5478595,50.9458 83.0178595,50.9458 83.2278595,50.9458 C82.6078595,50.9458 82.0378595,50.9458 81.9878595,50.9458 C82.2510491,50.9324096 82.5146353,50.9628234 82.7678595,51.0358 L80.9378595,51.0358 L81.0278595,51.0358 C80.6178595,51.0358 80.0278595,51.1158 78.2078595,51.1058 L68.8678595,51.1058 C68.8678595,51.1058 69.5578595,51.1058 70.1878595,51.1058 L68.7878595,51.1058 C69.5278595,51.1058 67.5178595,51.1058 68.0878595,51.1058 C65.8678595,51.1858 62.9878595,51.1058 61.0278595,51.1658 L58.8578595,51.7758 L58.5778595,51.8558 C58.5725022,51.8159794 58.5725022,51.7756206 58.5778595,51.7358 C58.5778595,51.7358 58.5778595,51.7358 58.5778595,51.7358 C58.5669593,51.6394406 58.5669593,51.5421594 58.5778595,51.4458 C58.5778595,51.2858 58.5778595,51.4458 58.6378595,51.2458 C58.6378595,50.2458 58.6978595,49.3558 58.6378595,48.3758 C58.6378595,48.3758 58.6378595,48.3758 58.6378595,48.3758 C58.6378595,48.0758 58.6378595,47.8158 58.6378595,47.5458 C58.6296928,47.5095881 58.6296928,47.4720119 58.6378595,47.4358 C58.6252708,47.1926295 58.6252708,46.9489705 58.6378595,46.7058 L58.6378595,45.9358 L58.5778595,45.9358 C58.5778595,45.6458 58.6478595,45.8558 58.5778595,45.5858 C58.5078595,45.4758 58.5778595,45.1458 58.5778595,45.0458 C58.5778595,44.9458 58.5778595,44.9158 58.5778595,44.9258 C58.5778595,44.9358 58.5778595,44.7958 58.5778595,44.7158 C58.5778595,44.6358 58.5778595,44.7158 58.5778595,44.7158 L58.5778595,44.5258 C58.5778595,44.4558 58.5778595,44.4358 58.5778595,44.5258 C58.5778595,44.0358 58.5778595,41.6658 58.5778595,41.1258 C58.5778595,41.1958 58.5778595,41.3658 58.5178595,41.4258 C58.5178595,41.2858 58.5178595,41.2158 58.5178595,41.1558 C58.5178595,41.0958 58.5178595,40.8458 58.6078595,40.7358 L58.6078595,40.7358 L58.6078595,40.6658 C58.578239,40.4367537 58.578239,40.2048463 58.6078595,39.9758 C58.603213,39.9225679 58.603213,39.8690321 58.6078595,39.8158 L58.7078595,39.8158 C58.7778595,39.8158 58.7078595,39.8158 58.6178595,39.8158 C58.7978595,39.8158 59.0478595,39.9158 59.2678595,39.9958 C59.4878595,40.0758 59.2678595,40.0558 59.6678595,40.1658 C60.7056756,40.4753894 61.770398,40.686325 62.8478595,40.7958 C63.9407146,40.9251062 65.0450044,40.9251062 66.1378595,40.7958 C66.1378595,40.7958 66.1378595,40.7958 66.0678595,40.7958 C66.3978595,40.7358 66.7178595,40.6958 67.0678595,40.6258 C67.3720299,40.562349 67.672483,40.4822282 67.9678595,40.3858 C68.0610377,40.3781905 68.1546812,40.3781905 68.2478595,40.3858 C68.2478595,40.3858 68.4178595,40.3858 68.7078595,40.2158 L69.2278595,40.0158 C69.4178595,39.9358 69.6078595,39.8258 69.8078595,39.7358 C70.1753231,39.555695 70.5325362,39.3553886 70.8778595,39.1358 C70.997452,39.0688195 71.1111877,38.9918807 71.2178595,38.9058 L71.3578595,38.8058 L71.3578595,38.7358 C71.4652909,38.6410409 71.5867247,38.5634582 71.7178595,38.5058 C71.7178595,38.5058 71.8078595,38.5058 72.0278595,38.2758 C72.1615728,38.1099065 72.3161898,37.962012 72.4878595,37.8358 C72.6438217,37.7056779 72.7877374,37.5617623 72.9178595,37.4058 C72.9178595,37.4058 73.1278595,37.1858 73.1278595,37.2158 C73.1278595,37.2458 73.3478595,36.9958 73.4578595,36.8358 C73.5678595,36.6758 73.4578595,36.8358 73.3678595,36.8958 L73.6278595,36.5458 C73.7478595,36.4258 73.7878595,36.4058 73.6278595,36.5458 C74.4328112,35.5502746 75.1050975,34.4544479 75.6278595,33.2858 C75.9579093,32.5859982 76.2483673,31.8681996 76.4978595,31.1358 C76.6978595,30.4858 76.8578595,29.9458 76.9378595,29.6658 C76.8578595,29.7958 76.7778595,30.1558 76.6878595,30.2758 C76.7478595,29.9658 76.8278595,29.8358 76.8378595,29.6958 C76.8478595,29.5558 77.0178595,29.0358 77.1478595,28.8158 L77.1478595,28.7258 C77.1508013,28.6958721 77.1508013,28.6657279 77.1478595,28.6358 L77.1478595,28.4958 C77.2178595,28.1658 77.2778595,27.9158 77.3078595,27.7358 L77.3078595,27.4858 L77.3078595,27.3858 L77.3078595,27.3858 C77.3078595,27.3858 77.3078595,27.3858 77.3078595,27.3858 L77.0078595,27.2658 L76.7578595,27.1458 L76.4178595,27.0058 L76.1578595,26.9058 L75.8778595,26.8058 C75.1978595,26.5658 74.8778595,26.5358 74.4878595,26.4058 C74.4878595,26.4058 74.6878595,26.4858 74.4878595,26.4058 C74.4878595,26.4058 74.0078595,26.3058 73.9278595,26.2458 C73.8478595,26.1858 73.1878595,26.0658 73.3678595,26.1658 C73.2778595,26.1058 72.7678595,25.9958 73.0778595,26.0358 C72.9232509,25.9959033 72.7662698,25.9658431 72.6078595,25.9458 L72.8278595,26.0058 L72.1078595,25.8658 C71.9207855,25.8228519 71.7297665,25.7993934 71.5378595,25.7958 L71.7578595,25.7958 C71.4895438,25.7770393 71.2243781,25.7266914 70.9678595,25.6458 L71.3378595,25.6458 L70.5778595,25.5658 C70.3578595,25.5658 70.1378595,25.5658 69.8978595,25.5658 L70.0678595,25.5658 C69.3069808,25.5522842 68.5459196,25.5789881 67.7878595,25.6458 C67.0399569,25.7127262 66.3019719,25.8636777 65.5878595,26.0958 L65.8578595,26.0958 L65.3778595,26.2558 C65.4378595,26.2558 65.5778595,26.0758 65.6278595,26.0658 L65.0478595,26.2358 C64.7978595,26.3058 64.5078595,26.4358 64.1778595,26.5558 C64.0073967,26.6201838 63.8404926,26.6936216 63.6778595,26.7758 L63.1478595,27.0358 L62.6278595,27.3558 L62.3578595,27.5258 L62.0978595,27.7158 L61.5978595,28.0958 C61.4378595,28.2258 61.2978595,28.3758 61.1478595,28.5058 C60.9978595,28.6358 60.8478595,28.7758 60.7278595,28.9158 L60.3678595,29.3258 C60.2578595,29.4558 60.1378595,29.5758 60.0478595,29.6958 L59.8078595,30.0358 L59.4678595,30.4958 C59.2378595,30.8258 59.3778595,30.4958 59.3678595,30.4958 C59.1378595,30.9258 59.2978595,30.7058 59.0878595,31.0658 C59.0278595,31.1558 59.0878595,31.0658 59.0878595,30.9658 C59.0176324,31.0699051 58.9573663,31.1803929 58.9078595,31.2958 C59.0378595,31.0958 59.0278595,31.2058 59.1078595,31.1358 L58.8378595,31.6058 L58.8378595,31.6058 C58.7705942,31.8744331 58.6768,32.135717 58.5578595,32.3858 C58.3662576,32.7908248 58.2025433,33.2084634 58.0678595,33.6358 C57.9383603,33.9852363 57.8314729,34.3426409 57.7478595,34.7058 L57.7478595,34.6258 L57.7478595,34.5058 L57.7478595,34.5758 C57.7478595,34.3458 57.6178595,34.0558 57.5378595,33.7858 C57.5378595,33.8958 57.5378595,33.9958 57.5378595,33.7858 C57.3978595,33.3358 57.2778595,33.0458 57.1878595,32.7158 C57.1878595,32.6158 57.0778595,32.5258 57.0278595,32.4358 L56.6878595,31.6858 C56.6878595,31.6158 56.6178595,31.5358 56.5778595,31.4558 L56.4378595,31.2058 L56.1278595,30.6758 C56.0678595,30.5858 56.0278595,30.4858 55.9578595,30.3958 L55.7578595,30.1158 L55.4978595,29.5058 L55.0078595,28.9358 L54.7478595,28.6558 L54.4678595,28.3958 C53.7624852,27.7187204 52.9562038,27.1553355 52.0778595,26.7258 L51.5178595,26.5058 C51.3378595,26.4258 51.1578595,26.3758 50.9978595,26.3158 L50.5678595,26.1558 L50.2178595,26.0558 L50.2778595,26.0558 C49.9778595,25.9758 49.6378595,25.8758 49.2778595,25.8058 C49.0878595,25.8058 48.8978595,25.7258 48.6878595,25.7058 L48.0578595,25.6258 C47.1463031,25.5452279 46.2294158,25.5452279 45.3178595,25.6258 C43.6548529,25.7190802 42.0094011,26.0145899 40.4178595,26.5058 C40.2039513,26.5511656 39.9934463,26.6113098 39.7878595,26.6858 L39.6178595,26.6858 L39.5378595,26.6858 L39.4078595,26.7358 L38.8978595,26.9258 C39.0878595,26.8558 39.1478595,26.8458 39.1278595,26.8558 C39.0540809,26.9071914 38.9732397,26.947612 38.8878595,26.9758 L38.3078595,27.2158 L38.3078595,27.2158 L38.3078595,27.3058 L38.3078595,27.4358 C38.3164089,27.4977645 38.3332253,27.5583035 38.3578595,27.6158 C38.3578595,27.6158 38.3578595,27.6158 38.3578595,27.8058 L38.5578595,28.5958 L38.7278595,29.2758 C38.8078595,29.5558 38.9078595,29.8758 39.0078595,30.2258 L39.1778595,30.7758 C39.1778595,30.9558 39.3078595,31.1458 39.3778595,31.3458 L39.5978595,31.9358 L39.7078595,32.2358 C39.7078595,32.3358 39.7978595,32.4258 39.8378595,32.5258 C40.0178595,32.9158 40.1778595,33.3158 40.3678595,33.6758 C40.5578595,34.0358 40.7478595,34.3858 40.9278595,34.6758 L41.4478595,35.4858 L41.5578595,35.6558 L41.6678595,35.7958 L41.8478595,36.0358 L42.2078595,36.4458 C42.3297826,36.5962566 42.4599839,36.7398119 42.5978595,36.8758 L42.9978595,37.2958 C43.1278595,37.4258 43.2778595,37.5458 43.4078595,37.6558 L43.3478595,37.6558 C44.0563463,38.2877963 44.8386981,38.8317491 45.6778595,39.2758 C46.5450003,39.7400868 47.4745687,40.0768869 48.4378595,40.2758 L48.3278595,40.2758 C49.0578595,40.4158 48.9478595,40.4258 49.5278595,40.5358 C49.5278595,40.5358 49.6378595,40.5358 49.8178595,40.5358 L50.3378595,40.5358 L50.3378595,40.5358 C50.6978595,40.5358 51.5178595,40.5358 52.1178595,40.4758 L52.1178595,40.4758 L53.0578595,40.3758 C53.3878595,40.3758 53.7078595,40.2958 53.8878595,40.2558 C54.9330983,40.1231771 55.9597583,39.8715447 56.9478595,39.5058 L57.1678595,39.5058 C57.1575836,39.6989968 57.1575836,39.8926032 57.1678595,40.0858 C57.1678595,39.9858 57.1678595,40.0158 57.1678595,40.0858 C57.1579358,40.2823415 57.1579358,40.4792585 57.1678595,40.6758 C57.1678595,41.3158 57.1678595,43.7658 57.1678595,44.3358 C57.1678595,44.6458 57.1678595,45.0258 57.1678595,45.3358 L57.1678595,45.3358 C57.1678595,45.6558 57.1678595,47.4758 57.1678595,47.8458 L57.1678595,47.7958 C57.1954787,47.9747405 57.1954787,48.1568595 57.1678595,48.3358 C57.2278595,48.3358 57.2578595,48.5758 57.2578595,48.6858 L57.2578595,48.6858 C57.2578595,48.8458 57.3178595,49.2058 57.3278595,49.4758 L57.3278595,49.4758 C57.342035,49.7422783 57.342035,50.0093217 57.3278595,50.2758 C57.3013728,50.7454268 57.3013728,51.2161732 57.3278595,51.6858 L57.2478595,51.9958 L57.2478595,52.0458 L57.3778595,52.0458 C57.1942169,52.0876646 57.0162734,52.1514556 56.8478595,52.2358 L55.4178595,52.2358 C55.5778595,52.2358 56.7778595,52.2358 57.4178595,52.2358 L57.5278595,52.1858 C58.9878595,52.1858 57.8678595,52.1858 59.2978595,52.1858 C59.3678595,52.1858 58.0578595,52.1858 56.8978595,52.1858 C57.8978595,52.1858 58.9778595,52.1858 59.4078595,52.1858 C60.4078595,52.1858 59.2978595,52.1858 60.4778595,52.2458 C61.3178595,52.2458 62.4778595,52.2458 63.3878595,52.2458 L63.3878595,52.2458 C65.7378595,52.2458 66.9878595,52.2458 69.1378595,52.2458 L68.8978595,52.2458 C69.6578595,52.2458 71.1578595,52.2458 72.5278595,52.2458 C72.1378595,52.2458 71.7978595,52.2458 72.6178595,52.2458 C74.1878595,52.2458 75.2678595,52.2458 76.4178595,52.2458 L77.5178595,52.2458 L89.7278595,52.2458 C89.1678595,55.4158 88.6278595,58.4658 88.2178595,60.8058 L84.2678595,60.8058 C84.2678595,60.8058 84.2678595,60.8058 84.0878595,60.8058 C83.8048959,60.8262709 83.520823,60.8262709 83.2378595,60.8058 L83.2378595,60.8058 C82.5478595,60.8058 82.2378595,60.8058 81.5578595,60.8058 L81.6278595,60.8058 C81.4078595,60.8058 80.9678595,60.8058 80.5678595,60.8058 C80.6778595,60.8058 80.7778595,60.8058 80.5678595,60.8058 C80.1078595,60.8058 79.7978595,60.8058 79.4578595,60.8058 L79.1378595,60.8058 C77.5378595,60.8058 71.2178595,60.8058 69.6078595,60.8058 L69.6678595,60.8058 C67.2178595,60.8058 62.1878595,60.8058 59.6678595,60.8058 C59.2778595,60.8058 58.7378595,60.8058 58.3278595,60.8058 C58.5578595,60.8058 58.4778595,60.8058 58.3278595,60.8058 C57.0878595,60.8058 58.2478595,60.8058 56.9878595,60.8058 C55.5378595,60.8058 49.9878595,60.8058 48.7078595,60.8058 C48.0178595,60.8058 47.1478595,60.8058 46.4778595,60.8058 L46.5378595,60.8058 C45.8178595,60.8058 41.6978595,60.8058 40.8478595,60.8058 L40.9678595,60.8058 C40.5615123,60.8285972 40.1542066,60.8285972 39.7478595,60.8058 C39.8278595,60.8058 39.1878595,60.8858 38.9478595,60.8958 L38.9478595,60.8958 C38.5878595,60.8958 37.7678595,60.9558 37.1678595,60.9658 L37.1678595,60.9658 C36.6678595,60.9658 35.7278595,60.9658 35.3678595,60.9658 C34.5478595,60.9658 33.2778595,60.8958 32.1778595,60.9658 L32.1778595,60.9658 L32.1778595,60.8058 L27.7878595,60.8058 C27.3478595,58.2658 26.9678595,56.1158 26.7878595,55.1958 L26.8478595,55.5858 C26.6178595,54.3458 26.5278595,53.8058 26.4578595,53.3258 L26.3578595,52.5858 L26.3578595,52.3858 L26.3578595,52.2258 C26.3578595,52.2258 26.3578595,52.2258 26.3578595,52.2258 L26.4378595,52.2258 L26.7778595,52.2258 L28.2678595,52.2258 L28.2678595,52.2258 C29.5078595,52.2258 32.3278595,52.1658 34.3878595,52.1658 L34.3078595,52.1658 C36.0178595,52.1658 39.2378595,52.1658 40.4678595,52.1658 C43.2778595,52.1658 47.6278595,52.2358 51.3878595,52.1658 L53.8178595,52.2558 L54.1778595,52.2558 C54.1778595,52.2558 58.0878595,51.2058 53.1178595,50.9858 L53.1978595,50.9858 L52.1978595,50.9858 C51.0178595,50.9858 50.4678595,50.9858 50.5478595,50.9858 L52.1678595,50.9858 C50.9778595,50.9858 51.8078595,50.9858 52.2578595,50.9858 L50.8978595,50.9858 C50.6578595,50.9858 51.0678595,50.9858 51.2478595,50.9858 C50.6078595,50.9858 49.7278595,50.9858 48.9478595,50.9858 C47.7378595,50.9858 48.8678595,50.9358 47.4578595,50.9358 L36.5478595,50.9358 L24.6678595,50.9358 L24.7978595,51.6858 C24.7978595,52.0158 24.7978595,51.6258 24.6978595,51.1958 C25.1378595,53.7158 25.5378595,55.9658 25.9378595,58.2658 C25.9915203,58.5601183 26.0282474,58.8572734 26.0478595,59.1558 C26.0478595,59.1558 26.0478595,59.3558 26.1778595,59.8258 L26.6378595,62.4358 L30.9378595,62.4358 C31.3078595,64.4958 31.6378595,66.3158 31.6578595,66.4358 L31.7378595,66.5658 C32.1378595,68.7758 31.7378595,67.2258 32.1778595,69.2558 C32.3978595,70.0358 32.7778595,72.6358 32.9478595,73.3358 C32.9478595,73.3358 32.9478595,73.3958 32.9478595,73.4858 L33.0078595,73.8158 C33.0359916,73.9612425 33.0560225,74.1081355 33.0678595,74.2558 C33.1578595,74.5558 33.2578595,75.2558 33.3878595,75.9158 C33.3878595,76.1358 33.3878595,75.7458 33.3878595,75.5658 L33.6678595,77.0058 C33.7578595,77.5758 33.7578595,77.7158 33.6678595,77.1058 C33.9378595,78.6058 34.5978595,82.2458 35.3478595,86.4458 L46.2978595,86.4458 L53.4178595,86.4458 C52.8878595,86.4458 51.6178595,86.4458 51.1378595,86.3858 C52.2278595,86.3858 52.7378595,86.3858 53.2178595,86.3858 C53.6978595,86.3858 55.6178595,86.3858 56.4378595,86.4858 L56.7478595,86.4858 L57.2978595,86.4858 C62.0878595,86.4858 58.3878595,86.4858 62.6378595,86.4858 C65.0578595,86.4858 66.2278595,86.4258 67.5678595,86.4858 C67.3378595,86.4858 66.9478595,86.4858 67.5678595,86.4858 C67.6778595,86.4858 69.2578595,86.4858 69.5678595,86.4858 C70.23325,86.5441356 70.9024689,86.5441356 71.5678595,86.4858 C71.9178595,86.4858 73.7178595,86.4858 72.6478595,86.5458 L74.2778595,86.5458 L73.4978595,86.5458 C75.5578595,86.5458 76.6778595,86.5458 78.0078595,86.5458 L77.2578595,86.5458 L79.4178595,86.5458 L80.0478595,86.5458 L78.6078595,86.5458 L80.9978595,86.5458 C81.1278595,85.7758 81.2378595,85.0658 81.3578595,84.3658 C81.4378595,83.8458 81.5278595,83.3658 81.6178595,82.7758 L81.5078595,83.3658 C81.8278595,81.2258 83.6978595,70.0658 83.9678595,68.0858 L83.7778595,68.9858 L84.0278595,67.2958 C84.0278595,67.4958 84.0278595,68.1258 83.9778595,68.2958 C84.1378595,67.2958 84.4978595,65.2258 84.9778595,62.5858 L89.3278595,62.5858 C90.0178595,58.7358 90.7478595,54.5858 91.3278595,51.3758 L85.2978595,51.0158 Z M58.5578595,51.6358 L58.5578595,51.8158 L58.5578595,51.8158 C58.5278595,51.6958 58.5078595,51.6258 58.5378595,51.6358 L58.5578595,51.6358 Z M58.8878595,39.8458 L58.6678595,39.7658 L58.6678595,39.7658 C58.8178595,39.8158 58.8978595,39.8258 58.8678595,39.8458 L58.8878595,39.8458 Z M58.8878595,36.6458 L58.8878595,36.6458 C58.9450976,36.3849442 58.9884917,36.1212421 59.0178595,35.8558 C59.0551506,35.6074229 59.1154089,35.3630419 59.1978595,35.1258 L59.1978595,35.1958 C59.2778595,35.0058 59.3378595,34.6058 59.4778595,34.2658 C59.4778595,34.3558 59.3778595,34.4358 59.4778595,34.2658 C59.6378595,33.8858 59.7178595,33.6058 59.8378595,33.3258 C59.8618288,33.2306346 59.8918908,33.1371084 59.9278595,33.0458 L60.2278595,32.3858 C60.2570907,32.3139193 60.2904805,32.2438008 60.3278595,32.1758 L60.4478595,31.9558 L60.7178595,31.4858 L60.8578595,31.2358 L61.0278595,30.9958 L61.3878595,30.4858 L61.8078595,29.9958 L62.0178595,29.7458 L62.2578595,29.5258 C62.8479747,28.9448292 63.522198,28.4560173 64.2578595,28.0758 L64.7378595,27.8458 L65.1778595,27.6658 L65.5578595,27.5258 L65.8578595,27.4358 L65.8078595,27.4358 C66.099906,27.3449006 66.3970966,27.2714377 66.6978595,27.2158 C66.8690012,27.1719378 67.0426562,27.1385426 67.2178595,27.1158 L67.7778595,27.0358 C68.605226,26.953224 69.4378449,26.9365048 70.2678595,26.9858 C71.8230627,27.1042216 73.3615131,27.385768 74.8578595,27.8258 C75.0178595,27.8958 75.2278595,27.9658 75.4278595,28.0358 L75.6878595,28.1358 L75.7678595,28.1358 C75.7678595,28.1358 75.7678595,28.1358 75.7678595,28.1358 L75.8178595,28.1358 L75.8778595,28.1358 C75.8778595,28.1358 75.8778595,28.1358 75.8778595,28.1358 C75.8778595,28.1358 75.8778595,28.1358 75.8778595,28.1358 L75.8778595,28.1358 L75.8778595,28.1358 L75.8778595,28.3258 L75.7278595,28.9858 C75.6578595,29.2458 75.5578595,29.5558 75.4678595,29.8858 L75.3078595,30.4058 C75.3078595,30.5858 75.1778595,30.7558 75.1178595,30.9458 L74.9078595,31.4958 L74.7978595,31.7758 L74.6778595,32.0558 C74.4978595,32.4158 74.3478595,32.7858 74.1678595,33.1158 C73.9878595,33.4458 73.8078595,33.7658 73.6378595,34.0558 L73.1378595,34.7858 L73.0378595,34.9358 L72.9378595,35.0658 L72.7678595,35.2658 L72.4778595,35.6658 C72.3694359,35.806127 72.2525522,35.9397085 72.1278595,36.0658 L71.7778595,36.4358 C71.6578595,36.5658 71.5278595,36.6658 71.4278595,36.7758 L71.4278595,36.7758 C70.8126343,37.3479348 70.1189901,37.8294451 69.3678595,38.2058 C68.5919519,38.5998308 67.7685051,38.8922384 66.9178595,39.0758 L67.0178595,39.0758 C66.6623611,39.17184 66.2960851,39.2222449 65.9278595,39.2258 C65.9278595,39.2258 65.8478595,39.2958 65.6878595,39.3258 L65.2178595,39.3858 L65.2178595,39.3858 C64.6699151,39.444297 64.1187895,39.4676781 63.5678595,39.4558 L63.5678595,39.4558 C63.2747938,39.4735208 62.9809252,39.4735208 62.6878595,39.4558 L61.9078595,39.3458 C61.0660925,39.1854005 60.2346216,38.9750283 59.4178595,38.7158 L59.7478595,38.5258 C59.7478595,38.5258 59.7478595,38.5258 59.7478595,38.5258 L60.0478595,38.3258 L60.1078595,38.3258 C60.2864431,38.1966731 60.4735346,38.079741 60.6678595,37.9758 L60.6678595,37.9758 C60.7778595,37.9058 60.7278595,37.9758 60.8278595,37.9758 C60.9278595,37.9758 60.9978595,37.8858 61.0078595,37.8358 C61.0178595,37.7858 61.0678595,37.8358 61.0678595,37.8358 C61.0678595,37.8358 61.0678595,37.8358 61.1478595,37.7658 C61.2278595,37.6958 61.1478595,37.7658 61.1478595,37.7658 L61.2078595,37.7058 C61.2078595,37.7058 61.2678595,37.7058 61.2078595,37.7058 C61.3978595,37.6058 62.3178595,37.1258 62.5078595,36.9858 C62.5078595,36.9858 62.4178595,36.9858 62.3678595,36.9858 C62.3178595,36.9858 62.4478595,36.9858 62.4578595,36.9158 C62.4678595,36.8458 62.5778595,36.8558 62.6578595,36.9158 L62.6578595,36.9158 L62.6578595,36.9158 C62.8678595,36.7358 62.6578595,36.8658 62.9078595,36.7458 C63.1578595,36.6258 63.0578595,36.5958 63.1278595,36.5658 C63.1978595,36.5358 63.1278595,36.5658 63.1278595,36.5658 C63.1278595,36.5658 63.1978595,36.4858 63.2278595,36.5658 C63.2578595,36.6458 63.3578595,36.4858 63.2978595,36.4658 C63.2378595,36.4458 63.4278595,36.4658 63.3778595,36.4658 C63.3278595,36.4658 63.4478595,36.4658 63.4578595,36.4158 L63.4578595,36.4158 C63.5478595,36.3458 63.6278595,36.3558 63.6678595,36.2758 L63.6678595,36.2758 C63.7278595,36.2758 63.7778595,36.2058 63.8278595,36.2758 L63.8278595,36.2758 C63.9071478,36.2272894 63.9809162,36.1702866 64.0478595,36.1058 L64.0478595,36.1058 C64.1278595,35.9958 64.6578595,35.6458 64.7278595,35.5358 L64.6678595,35.5358 L64.7278595,35.4558 C64.7278595,35.4558 64.7278595,35.5858 64.7278595,35.5858 C64.9078595,35.4758 65.8278595,34.9058 65.9978595,34.8358 C66.1678595,34.7658 65.9978595,34.8358 65.9978595,34.8358 C65.9978595,34.8358 65.9978595,34.7758 66.0878595,34.7358 C66.1778595,34.6958 66.0878595,34.7358 66.0878595,34.7358 C66.0878595,34.7358 66.1478595,34.7358 66.1478595,34.7358 C66.1478595,34.7358 66.0878595,34.7358 66.0578595,34.6758 L66.1478595,34.6758 L66.1478595,34.6758 C66.1478595,34.6758 66.1478595,34.5758 66.2578595,34.5358 C66.3678595,34.4958 66.5578595,34.3658 66.7178595,34.2858 C66.7224402,34.3089085 66.7224402,34.3326915 66.7178595,34.3558 C66.7442239,34.3501223 66.771495,34.3501223 66.7978595,34.3558 C66.7378595,34.3558 66.7978595,34.2958 66.7978595,34.3058 C66.7978595,34.3158 67.0478595,34.1558 67.1178595,34.0558 C67.1878595,33.9558 66.7378595,32.9358 66.6978595,32.8658 L66.7778595,32.8658 C66.7778595,32.8658 66.6978595,32.8658 66.6678595,32.8658 L66.6678595,32.8658 C66.5978595,32.9258 66.6678595,32.8658 66.5678595,32.8658 C66.4678595,32.8658 66.5678595,32.7858 66.6578595,32.7558 C66.7478595,32.7258 66.5478595,32.7558 66.5378595,32.8358 C66.5278595,32.9158 66.5378595,32.8358 66.4578595,32.8358 C66.3778595,32.8358 66.3878595,32.9258 66.3278595,32.9358 L66.3278595,32.9358 C66.1978595,32.9358 66.1778595,33.0858 66.0578595,33.1158 L66.0578595,33.1158 C66.0578595,33.1158 65.9578595,33.1858 65.8778595,33.2058 C65.7978595,33.2258 65.8778595,33.2058 65.8778595,33.2058 C65.8778595,33.2058 65.7578595,33.2858 65.6878595,33.2958 L65.6878595,33.3558 C65.4178595,33.5058 64.3878595,34.1558 64.1178595,34.3558 L64.1178595,34.3558 C63.7178595,34.6058 62.8778595,35.0958 62.4778595,35.3558 C62.3907135,35.3786729 62.3067396,35.4122625 62.2278595,35.4558 C62.2278595,35.4558 62.2278595,35.4558 62.2278595,35.4558 C62.0178595,35.5758 62.2278595,35.4558 62.0178595,35.6158 C61.5676784,35.904345 61.1001235,36.1648398 60.6178595,36.3958 C60.5278595,36.5058 60.3678595,36.5558 60.2678595,36.6558 L60.2678595,36.6558 C60.1478595,36.7458 59.4378595,37.1058 59.2678595,37.1958 L59.2678595,37.1958 C59.1678595,37.2958 59.1478595,37.1958 59.0478595,37.2758 C58.9478595,37.3558 59.0478595,37.4058 58.9578595,37.4358 L58.9578595,37.4358 L58.8178595,37.5658 C58.8178595,37.5658 58.8178595,37.5058 58.8178595,37.4358 C58.8125085,37.1707085 58.8359796,36.9058204 58.8878595,36.6458 L58.8878595,36.6458 Z M55.5478595,38.7658 C54.5917401,39.0227981 53.6144881,39.1934826 52.6278595,39.2758 C51.6281196,39.3559255 50.6227742,39.3324674 49.6278595,39.2058 C49.6278595,39.2058 49.6278595,39.2058 49.6978595,39.2058 C49.4155917,39.1786627 49.1351253,39.1352572 48.8578595,39.0758 C48.5878595,39.0258 48.3278595,38.9658 48.0678595,38.8958 C47.9950849,38.8646934 47.9248686,38.8279134 47.8578595,38.7858 C47.7173072,38.7558393 47.5799963,38.7123017 47.4478595,38.6558 L47.0578595,38.5058 C46.8978595,38.4458 46.7278595,38.3458 46.5578595,38.2658 C46.2397674,38.1172807 45.9323627,37.9468716 45.6378595,37.7558 L45.3478595,37.5058 L45.2278595,37.5058 L45.1678595,37.5058 C44.9378595,37.3358 44.9078595,37.2958 44.8878595,37.2658 C44.8678595,37.2358 44.8878595,37.2658 44.6378595,37.0358 C44.4796002,36.94274 44.3349081,36.8283323 44.2078595,36.6958 C44.0378595,36.5558 43.9078595,36.3658 43.8278595,36.3158 C43.7478595,36.2658 43.6578595,36.1258 43.6878595,36.1158 C43.7178595,36.1058 43.4878595,35.9358 43.3678595,35.8058 C43.2478595,35.6758 43.3678595,35.8058 43.3678595,35.8958 L43.1178595,35.6058 C43.0378595,35.4758 43.0278595,35.4358 43.1178595,35.6058 C42.4043138,34.6840326 41.8096391,33.6761094 41.3478595,32.6058 C41.0178595,31.9358 40.7878595,31.2158 40.5578595,30.6058 C40.3278595,29.9958 40.2278595,29.4958 40.1378595,29.2258 C40.1378595,29.3758 40.2678595,29.7058 40.2578595,29.8458 C40.1478595,29.5658 40.1478595,29.4158 40.0778595,29.3058 C40.0078595,29.1958 39.9478595,28.6658 39.9678595,28.4258 L39.9078595,28.3558 C39.9095769,28.3358369 39.9095769,28.3157631 39.9078595,28.2958 L39.9078595,28.2958 L39.9078595,28.2958 L39.9678595,28.2958 L40.0578595,28.2958 C40.4987682,28.0802806 40.9530319,27.8932308 41.4178595,27.7358 C41.3578595,27.7358 41.2178595,27.7358 41.4178595,27.7358 C41.6178595,27.7358 41.8478595,27.5958 41.9478595,27.6058 C42.0478595,27.6158 42.6378595,27.4358 42.4478595,27.4258 C42.5478595,27.4258 43.0278595,27.3458 42.7478595,27.4258 L43.1778595,27.3358 L42.9678595,27.3358 C43.1888311,27.285968 43.4125544,27.2492374 43.6378595,27.2258 C43.816565,27.1997542 43.9935489,27.1630216 44.1678595,27.1158 L43.9578595,27.1158 C44.2007341,27.0628043 44.4496196,27.0426244 44.6978595,27.0558 L44.3678595,27.1158 L45.0578595,27.0358 L45.6878595,26.9658 L45.4178595,26.9658 C46.1113936,26.8842055 46.8107866,26.8641273 47.5078595,26.9058 C48.1793177,26.9448504 48.847449,27.0283668 49.5078595,27.1558 C49.4350677,27.1141814 49.3579425,27.0806487 49.2778595,27.0558 C49.4278595,27.0558 49.5778595,27.1158 49.7278595,27.1458 C49.7278595,27.1458 49.4778595,27.2058 49.4378595,27.1458 C50.5672844,27.4234873 51.6353683,27.9083635 52.5878595,28.5758 L53.0278595,28.9158 C53.1678595,29.0258 53.2978595,29.1558 53.4278595,29.2758 C53.560775,29.3855413 53.6845185,29.5059404 53.7978595,29.6358 L54.1178595,29.9958 C54.2178595,30.1158 54.3178595,30.2158 54.3978595,30.3258 L54.6178595,30.6358 L54.9078595,31.0558 C55.0778595,31.3758 54.9078595,31.1458 54.9078595,31.1458 C55.019401,31.2968957 55.1228787,31.4537812 55.2178595,31.6158 C55.2178595,31.7058 55.2178595,31.6158 55.1478595,31.6158 C55.1981901,31.712836 55.2549848,31.80638 55.3178595,31.8958 C55.2278595,31.7158 55.3178595,31.7658 55.3178595,31.6758 L55.5578595,32.0958 L55.5578595,32.0958 C55.7107526,32.2996219 55.8383516,32.5212412 55.9378595,32.7558 C56.1041658,33.1381292 56.2510202,33.5286285 56.3778595,33.9258 C56.5253267,34.3238523 56.6456032,34.7314559 56.7378595,35.1458 C56.6842813,35.0366539 56.6407678,34.9228493 56.6078595,34.8058 C56.6461324,34.9269729 56.6762004,35.0505859 56.6978595,35.1758 C56.6978595,34.9758 56.8078595,35.5058 56.7778595,35.3558 C56.8979948,35.6788384 56.9818432,36.0142318 57.0278595,36.3558 C57.0878595,36.6958 57.1478595,37.0158 57.2178595,37.2758 C57.2178595,37.2758 57.5678595,37.5358 57.8878595,37.7958 L58.1178595,37.9758 L58.0378595,37.9758 L57.8778595,37.8758 L57.8078595,37.8758 L57.7478595,37.8758 L57.6278595,37.8758 L57.7078595,37.9458 C57.5678595,37.8658 57.4478595,37.8058 57.4178595,37.7258 L57.5678595,37.7958 C57.3830004,37.6893448 57.1927449,37.5925481 56.9978595,37.5058 L57.0678595,37.5058 C56.7978595,37.4058 55.5178595,36.7058 55.2678595,36.6358 L55.3478595,36.7258 L55.1378595,36.6458 C55.1378595,36.6458 55.2978595,36.5858 55.3078595,36.6458 C54.8978595,36.4158 52.7478595,35.1958 52.3878595,34.9558 C52.2478595,34.8458 52.3878595,34.8858 52.3878595,34.8758 C52.1878595,34.7858 52.2878595,34.8758 52.1278595,34.7758 C51.9678595,34.6758 52.1278595,34.7758 52.1278595,34.7758 C52.1278595,34.7758 51.9978595,34.6858 51.9878595,34.6958 C51.9778595,34.7058 51.9878595,34.7858 51.9878595,34.8358 L51.7878595,34.7058 L51.7878595,34.7058 C51.6637239,34.692311 51.544157,34.6513166 51.4378595,34.5858 C51.1078595,34.3758 50.7378595,34.1758 50.4378595,33.9658 C50.4940108,33.971546 50.5484278,33.9885513 50.5978595,34.0158 C50.5434572,33.9895959 50.4929718,33.9559389 50.4478595,33.9158 C50.5178595,33.9958 50.2978595,33.8558 50.3578595,33.9158 C50.0678595,33.8358 49.7778595,33.5858 49.5378595,33.5058 C49.5378595,33.5558 48.5378595,34.2258 48.4478595,34.2958 L48.2978595,34.1958 C48.3576994,34.2561541 48.4291327,34.3037762 48.5078595,34.3358 L48.5078595,34.3358 C48.6778595,34.4258 48.5078595,34.3358 48.6878595,34.4758 C48.6878595,34.4758 48.5278595,34.4758 48.3978595,34.3558 C48.5178595,34.4258 48.6178595,34.5158 48.6878595,34.5158 C48.7578595,34.5158 48.6878595,34.5158 48.7778595,34.6358 C48.8963398,34.6742219 49.0077915,34.7316364 49.1078595,34.8058 L49.1078595,34.8058 C49.3478595,34.9858 49.5378595,34.9958 49.7578595,35.1658 L49.7578595,35.1658 C49.8278595,35.2358 50.0078595,35.3058 50.1478595,35.4158 C50.1478595,35.4158 50.0878595,35.3458 50.1478595,35.4158 C50.2889604,35.4988788 50.4257995,35.5889923 50.5578595,35.6858 L50.6978595,35.6858 C51.3078595,36.0458 53.6978595,37.4158 54.3578595,37.7658 L54.3578595,37.7658 L55.7878595,38.5858 L56.1678595,38.7958 C56.0676493,38.8381347 55.9639183,38.8715963 55.8578595,38.8958 C55.6378595,38.7958 55.9178595,38.6658 55.5478595,38.7658 L55.5478595,38.7658 Z M32.4178595,62.2758 L32.3178595,62.2758 C32.4178595,62.2658 32.4178595,62.2658 32.4178595,62.2758 Z M79.8178595,84.7558 L65.5678595,84.7558 C64.2278595,84.7558 62.3778595,84.7558 60.9878595,84.7558 C61.7578595,84.7558 61.4978595,84.7558 60.8878595,84.7558 C56.6278595,84.7558 60.5978595,84.7558 56.2878595,84.7558 L36.4178595,84.7558 C35.8278595,81.4458 35.3378595,78.7558 35.1078595,77.4058 C34.6378595,75.0858 34.1078595,72.1758 33.6978595,69.8958 L33.7478595,70.1258 C33.5478595,69.0358 32.9678595,65.8158 32.3178595,62.2258 C32.4910433,62.2156182 32.6646757,62.2156182 32.8378595,62.2258 C33.1978595,62.2258 32.8378595,62.2258 33.2778595,62.2858 C35.4578595,62.2858 37.5678595,62.3458 39.7778595,62.3458 C39.8278595,62.3458 39.7778595,62.3458 39.7078595,62.3458 L41.5578595,62.3458 C41.6477419,62.3392942 41.737977,62.3392942 41.8278595,62.3458 C41.7278595,62.3458 45.1678595,62.3458 45.2178595,62.3458 L45.2178595,62.2958 C45.8778595,62.2958 45.4078595,62.3558 46.0178595,62.3458 C46.2578595,62.2658 47.0178595,62.3458 47.2278595,62.3458 C47.2278595,62.3458 47.5178595,62.3458 47.5078595,62.3458 C47.6707309,62.3284278 47.8349881,62.3284278 47.9978595,62.3458 C48.0578595,62.3458 47.9478595,62.3458 47.8978595,62.3458 L48.3178595,62.3458 C48.4878595,62.3458 48.5278595,62.3458 48.3178595,62.3458 C49.4378595,62.3458 54.7978595,62.4158 56.0078595,62.3458 C55.8478595,62.3458 55.4778595,62.3458 55.3378595,62.2858 C55.6578595,62.2858 55.8078595,62.2858 55.9478595,62.2858 C56.0878595,62.2858 56.6478595,62.2858 56.8878595,62.3758 L56.9778595,62.3758 L57.1378595,62.3758 C58.5378595,62.3758 57.4578595,62.3758 58.6978595,62.3758 C59.4178595,62.3758 59.7578595,62.3158 60.1578595,62.3758 C60.0978595,62.3758 59.9378595,62.3758 60.1578595,62.3758 C60.1578595,62.3758 60.6478595,62.3758 60.7378595,62.3758 C60.8278595,62.3758 61.5178595,62.3758 61.3178595,62.3758 C61.4178595,62.3758 61.9378595,62.3758 61.6278595,62.4258 L61.8778595,62.4258 C62.4778595,62.4258 62.8078595,62.4258 63.1978595,62.4258 L62.9778595,62.4258 C63.2432545,62.38897 63.5124645,62.38897 63.7778595,62.4258 L63.4078595,62.4258 C63.9978595,62.4258 64.3578595,62.4258 64.8578595,62.4258 L64.6778595,62.4258 C65.3078595,62.4258 68.6178595,62.3358 69.1978595,62.2758 L68.9278595,62.2758 L69.4278595,62.2758 C69.4278595,62.2758 69.1878595,62.4058 69.1378595,62.3858 C70.2178595,62.3858 75.7978595,62.3858 76.7878595,62.3858 C77.1878595,62.3858 76.8578595,62.4458 76.8578595,62.4558 C77.3378595,62.4558 77.0678595,62.4558 77.4778595,62.4558 C77.5878595,62.4558 77.4778595,62.4558 77.3878595,62.4558 C77.5108211,62.4693417 77.6348978,62.4693417 77.7578595,62.4558 C77.5278595,62.4558 77.6178595,62.3958 77.5278595,62.3658 L78.0578595,62.3658 L78.0578595,62.3658 C78.3284063,62.317687 78.6031908,62.2975808 78.8778595,62.3058 L81.6078595,62.3058 C81.4782951,62.3208503 81.3474239,62.3208503 81.2178595,62.3058 L81.6278595,62.3058 C81.4178595,62.3058 81.9978595,62.3058 81.8378595,62.3058 C82.3778595,62.2458 83.0478595,62.3058 83.5878595,62.3058 C83.1978595,64.6058 83.0078595,65.6958 82.8778595,66.4858 L82.8778595,66.2758 C82.1678595,70.7158 80.9478595,77.9158 79.7878595,84.7558 L79.8178595,84.7558 Z" id="Shape" fill="#373835"></path>
            </g>
        </g>
    </g>
</svg>